G04 #@! TF.GenerationSoftware,KiCad,Pcbnew,(2017-12-06 revision 4e70e37f0)-master*
G04 #@! TF.CreationDate,2017-12-06T11:37:05-08:00*
G04 #@! TF.ProjectId,8CH_Amplifier,3843485F416D706C69666965722E6B69,rev?*
G04 #@! TF.SameCoordinates,Original*
G04 #@! TF.FileFunction,Profile,NP*
%FSLAX46Y46*%
G04 Gerber Fmt 4.6, Leading zero omitted, Abs format (unit mm)*
G04 Created by KiCad (PCBNEW (2017-12-06 revision 4e70e37f0)-master) date Wed Dec  6 11:37:05 2017*
%MOMM*%
%LPD*%
G01*
G04 APERTURE LIST*
%ADD10C,0.150000*%
G04 APERTURE END LIST*
D10*
X232500000Y-230000000D02*
X232500000Y-239500000D01*
X360000000Y-73000000D02*
X335000000Y-73000000D01*
X25000000Y-73000000D02*
X25000000Y-60000000D01*
X360000000Y-250000000D02*
X360000000Y-73000000D01*
X273000000Y-250000000D02*
X360000000Y-250000000D01*
X232500000Y-239500000D02*
X260000000Y-239500000D01*
X260000000Y-230000000D02*
X273000000Y-230000000D01*
X273000000Y-250000000D02*
X273000000Y-230000000D01*
X219000000Y-250000000D02*
X219000000Y-230000000D01*
X219000000Y-230000000D02*
X232500000Y-230000000D01*
X260000000Y-230000000D02*
X260000000Y-239500000D01*
X141000000Y-250000000D02*
X219000000Y-250000000D01*
X141000000Y-250000000D02*
X141000000Y-230000000D01*
X127750000Y-230000000D02*
X141000000Y-230000000D01*
X127750000Y-230000000D02*
X127750000Y-239500000D01*
X101000000Y-239500000D02*
X127750000Y-239500000D01*
X101000000Y-230000000D02*
X101000000Y-239500000D01*
X87000000Y-230000000D02*
X101000000Y-230000000D01*
X87000000Y-250000000D02*
X87000000Y-230000000D01*
X0Y-250000000D02*
X87000000Y-250000000D01*
X335000000Y-73000000D02*
X335000000Y-60000000D01*
X25000000Y-60000000D02*
X335000000Y-60000000D01*
X0Y-73000000D02*
X25000000Y-73000000D01*
X0Y-250000000D02*
X0Y-73000000D01*
M02*
