M48
;DRILL file {KiCad (2017-12-06 revision 4e70e37f0)-master} date Wed Dec  6 11:37:09 2017
;FORMAT={-:-/ absolute / metric / decimal}
FMAT,2
METRIC,TZ
T1C0.300
T2C0.400
T3C0.800
T4C1.092
T5C1.194
T6C3.048
%
G90
G05
M71
T1
X6.9Y-200.05
X8.5Y-74.
X8.5Y-84.
X8.5Y-89.
X8.5Y-94.
X8.5Y-104.
X8.5Y-109.
X8.5Y-114.
X8.5Y-119.
X8.5Y-124.
X8.5Y-129.
X8.5Y-134.
X8.5Y-139.
X8.5Y-144.
X8.5Y-149.
X8.5Y-154.
X8.5Y-159.
X8.5Y-164.
X8.5Y-169.
X9.Y-175.6
X9.5Y-92.75
X9.6Y-174.
X10.1Y-177.5
X10.4Y-176.
X10.5Y-208.5
X10.5Y-216.75
X10.5Y-223.
X10.5Y-228.
X10.5Y-233.
X10.5Y-238.
X10.5Y-243.
X10.5Y-247.5
X10.6Y-179.6
X11.Y-93.
X11.444Y-181.39
X11.46Y-177.66
X12.2Y-179.6
X12.7Y-200.05
X12.75Y-92.75
X12.75Y-94.
X13.Y-105.5
X13.Y-181.4
X13.75Y-95.
X14.Y-147.
X15.25Y-84.5
X15.25Y-85.5
X15.25Y-123.75
X15.25Y-125.
X15.75Y-82.75
X16.Y-122.25
X16.5Y-105.5
X16.75Y-102.75
X16.75Y-103.75
X17.Y-122.25
X17.Y-200.05
X17.25Y-128.5
X17.25Y-130.
X18.Y-106.
X18.Y-111.
X18.Y-116.
X18.25Y-122.25
X18.75Y-150.25
X18.75Y-153.25
X18.937Y-80.993
X18.95Y-137.6
X18.95Y-141.25
X18.95Y-144.5
X19.Y-82.5
X19.5Y-216.75
X19.5Y-222.25
X20.5Y-81.
X20.5Y-82.5
X20.5Y-247.5
X20.75Y-128.5
X20.75Y-130.
X20.75Y-136.5
X20.75Y-140.5
X20.75Y-145.5
X20.75Y-148.25
X20.75Y-166.25
X20.9Y-222.3
X21.Y-94.75
X21.Y-96.75
X21.Y-100.75
X21.Y-226.5
X21.5Y-171.25
X22.Y-200.05
X22.5Y-160.25
X22.5Y-162.75
X22.5Y-169.75
X22.5Y-172.5
X22.75Y-90.75
X22.75Y-94.25
X22.75Y-130.25
X22.75Y-133.75
X23.5Y-161.5
X24.25Y-89.
X24.25Y-128.25
X24.5Y-155.
X24.5Y-156.25
X24.5Y-183.5
X24.5Y-185.25
X24.75Y-142.
X25.5Y-228.5
X25.75Y-130.25
X25.75Y-133.75
X25.75Y-155.
X25.75Y-156.25
X26.Y-146.6
X26.Y-148.4
X26.Y-183.5
X26.Y-185.25
X26.5Y-222.2
X26.5Y-227.4
X27.Y-155.
X27.Y-156.25
X27.Y-200.05
X27.25Y-157.5
X27.5Y-183.5
X27.5Y-185.25
X28.25Y-63.5
X28.25Y-68.5
X29.25Y-148.75
X29.4Y-164.
X29.4Y-169.
X29.4Y-173.25
X29.4Y-178.7
X29.4Y-189.
X29.4Y-193.75
X29.5Y-153.25
X30.Y-76.
X30.Y-81.
X30.Y-86.
X30.Y-91.
X30.Y-96.
X30.Y-101.
X30.Y-106.
X30.Y-111.
X30.Y-116.
X30.Y-121.
X30.Y-126.
X30.Y-131.
X30.Y-136.
X30.Y-141.
X30.Y-146.
X30.5Y-93.
X30.5Y-247.5
X31.Y-153.25
X31.1Y-164.
X31.1Y-169.
X31.1Y-173.25
X31.1Y-178.7
X31.1Y-189.
X31.1Y-193.75
X31.2Y-207.75
X31.2Y-214.
X31.2Y-220.75
X31.25Y-148.75
X31.25Y-157.5
X32.Y-93.
X32.Y-200.05
X32.25Y-158.5
X32.25Y-159.75
X32.25Y-197.5
X32.5Y-171.75
X33.25Y-169.25
X33.5Y-93.
X33.5Y-158.5
X33.5Y-159.75
X33.5Y-173.25
X33.75Y-196.5
X34.25Y-104.25
X34.25Y-166.75
X34.25Y-168.25
X34.25Y-170.25
X34.5Y-181.25
X34.75Y-158.5
X34.75Y-159.75
X35.75Y-104.25
X35.75Y-146.6
X35.75Y-148.4
X35.75Y-220.75
X35.75Y-225.
X36.Y-180.
X36.Y-181.5
X36.75Y-93.5
X36.75Y-150.5
X36.75Y-151.75
X36.75Y-153.
X37.Y-198.3
X37.Y-200.05
X37.25Y-145.5
X37.25Y-166.75
X37.25Y-180.
X37.25Y-181.5
X37.5Y-85.
X37.5Y-124.
X37.5Y-125.
X37.75Y-82.75
X37.75Y-104.5
X37.75Y-105.5
X38.Y-150.5
X38.Y-151.75
X38.Y-153.
X38.5Y-180.
X38.5Y-181.5
X38.5Y-225.
X39.Y-122.25
X39.Y-160.5
X39.25Y-101.75
X39.25Y-102.75
X39.75Y-180.
X39.75Y-181.5
X40.Y-159.25
X40.Y-161.75
X40.5Y-122.25
X40.5Y-247.5
X40.75Y-103.75
X40.937Y-80.993
X41.Y-82.5
X41.Y-148.25
X41.Y-160.5
X41.1Y-136.5
X41.1Y-140.5
X41.1Y-145.5
X41.25Y-63.5
X41.25Y-68.5
X42.Y-198.3
X42.Y-200.05
X42.5Y-81.
X42.5Y-82.5
X42.5Y-224.75
X42.5Y-229.75
X42.9Y-136.5
X42.9Y-140.5
X42.9Y-145.5
X43.Y-205.
X43.5Y-94.75
X43.5Y-96.75
X43.5Y-100.75
X43.5Y-102.75
X43.5Y-225.75
X43.75Y-114.75
X43.75Y-116.75
X44.75Y-130.5
X44.75Y-133.5
X45.Y-90.75
X45.Y-94.25
X45.Y-110.5
X45.Y-114.
X46.Y-208.5
X46.Y-225.75
X46.Y-228.75
X46.Y-230.5
X46.25Y-89.
X46.25Y-108.75
X46.25Y-128.25
X47.Y-198.3
X47.Y-200.05
X47.5Y-110.5
X47.5Y-114.
X47.5Y-130.25
X47.5Y-134.
X48.5Y-225.75
X48.5Y-228.75
X49.75Y-224.75
X49.75Y-229.75
X50.5Y-247.5
X51.5Y-74.
X51.5Y-84.
X51.5Y-89.
X51.5Y-94.
X51.5Y-104.
X51.5Y-109.
X51.5Y-114.
X51.5Y-119.
X51.5Y-124.
X51.5Y-129.
X51.5Y-134.
X51.5Y-139.
X51.5Y-144.
X51.5Y-149.
X51.5Y-154.
X51.5Y-159.
X51.5Y-164.
X51.5Y-169.
X52.Y-198.3
X52.Y-200.05
X52.5Y-92.75
X54.Y-93.
X54.25Y-63.5
X54.25Y-68.5
X55.75Y-92.75
X55.75Y-94.
X56.Y-105.5
X56.75Y-95.
X57.Y-147.
X57.Y-198.3
X57.Y-200.05
X58.25Y-84.5
X58.25Y-85.5
X58.25Y-123.75
X58.25Y-125.
X58.75Y-82.75
X59.Y-122.25
X59.5Y-105.5
X59.75Y-102.75
X59.75Y-103.75
X60.Y-122.25
X60.Y-208.5
X60.25Y-128.5
X60.25Y-130.
X60.297Y-209.263
X60.5Y-247.5
X60.75Y-210.25
X61.Y-106.
X61.Y-111.
X61.Y-116.
X61.25Y-122.25
X61.7Y-211.4
X61.75Y-150.25
X61.75Y-153.25
X61.9Y-177.9
X61.937Y-80.993
X61.95Y-137.6
X61.95Y-141.25
X61.95Y-144.5
X62.Y-82.5
X62.Y-198.3
X62.Y-200.05
X63.5Y-81.
X63.5Y-82.5
X63.7Y-213.3
X63.75Y-128.5
X63.75Y-130.
X63.75Y-136.5
X63.75Y-140.5
X63.75Y-145.5
X63.75Y-148.25
X63.75Y-166.25
X64.Y-94.75
X64.Y-96.75
X64.Y-100.75
X64.5Y-171.25
X64.5Y-214.7
X65.4Y-216.1
X65.5Y-160.25
X65.5Y-162.75
X65.5Y-169.75
X65.5Y-172.5
X65.75Y-90.75
X65.75Y-94.25
X65.75Y-130.25
X65.75Y-133.75
X66.3Y-217.9
X66.35Y-63.5
X66.35Y-68.5
X66.5Y-161.5
X67.Y-198.3
X67.Y-200.05
X67.25Y-89.
X67.25Y-128.25
X67.5Y-155.
X67.5Y-156.25
X67.5Y-183.5
X67.5Y-185.25
X67.75Y-142.
X67.75Y-206.5
X68.5Y-205.75
X68.75Y-130.25
X68.75Y-133.75
X68.75Y-155.
X68.75Y-156.25
X69.Y-146.6
X69.Y-148.4
X69.Y-183.5
X69.Y-185.25
X69.25Y-205.
X70.Y-155.
X70.Y-156.25
X70.25Y-157.5
X70.25Y-216.75
X70.5Y-183.5
X70.5Y-185.25
X70.5Y-247.5
X71.5Y-217.
X72.Y-198.3
X72.Y-200.05
X72.25Y-148.75
X72.4Y-164.
X72.4Y-169.
X72.4Y-173.25
X72.4Y-178.65
X72.4Y-189.
X72.4Y-193.75
X72.5Y-153.25
X73.Y-76.
X73.Y-81.
X73.Y-86.
X73.Y-91.
X73.Y-96.
X73.Y-101.
X73.Y-106.
X73.Y-111.
X73.Y-116.
X73.Y-121.
X73.Y-126.
X73.Y-131.
X73.Y-136.
X73.Y-141.
X73.Y-146.
X73.Y-217.5
X73.5Y-93.
X73.75Y-207.5
X73.75Y-211.5
X73.75Y-215.
X74.Y-153.25
X74.1Y-164.
X74.1Y-169.
X74.1Y-173.25
X74.1Y-178.65
X74.1Y-189.
X74.1Y-193.75
X74.25Y-148.75
X74.25Y-157.5
X74.25Y-218.25
X75.Y-93.
X75.Y-177.9
X75.25Y-158.5
X75.25Y-159.75
X75.5Y-171.75
X76.5Y-93.
X76.5Y-158.5
X76.5Y-159.75
X76.5Y-173.25
X77.Y-170.25
X77.Y-196.5
X77.Y-198.3
X77.Y-200.05
X77.25Y-104.25
X77.25Y-166.75
X77.25Y-168.25
X77.75Y-158.5
X77.75Y-159.75
X78.75Y-104.25
X78.75Y-146.6
X78.75Y-148.4
X78.75Y-207.5
X78.75Y-211.5
X78.75Y-215.
X79.Y-180.
X79.Y-181.5
X79.35Y-63.5
X79.35Y-68.5
X79.75Y-93.5
X79.75Y-150.5
X79.75Y-151.75
X79.75Y-153.
X80.25Y-145.5
X80.25Y-166.75
X80.25Y-180.
X80.25Y-181.5
X80.5Y-85.
X80.5Y-124.
X80.5Y-247.5
X80.5Y-125.
X80.75Y-82.75
X80.75Y-104.5
X80.75Y-105.5
X81.Y-150.5
X81.Y-151.75
X81.Y-153.
X81.5Y-180.
X81.5Y-181.5
X82.Y-122.25
X82.Y-160.5
X82.Y-196.5
X82.Y-198.3
X82.Y-200.05
X82.25Y-101.75
X82.25Y-102.75
X82.75Y-180.
X82.75Y-181.5
X83.Y-159.25
X83.Y-161.75
X83.5Y-122.25
X83.75Y-103.75
X83.75Y-207.5
X83.75Y-211.5
X83.75Y-215.
X83.937Y-80.993
X84.Y-82.5
X84.Y-148.25
X84.Y-160.5
X84.1Y-136.5
X84.1Y-140.5
X84.1Y-145.5
X85.5Y-81.
X85.5Y-82.5
X85.9Y-136.5
X85.9Y-140.5
X85.9Y-145.5
X86.5Y-94.75
X86.5Y-96.75
X86.5Y-100.75
X86.5Y-102.75
X86.75Y-114.75
X86.75Y-116.75
X87.Y-196.5
X87.Y-198.3
X87.Y-200.05
X87.75Y-130.5
X87.75Y-133.5
X88.Y-90.75
X88.Y-94.25
X88.Y-110.5
X88.Y-114.
X88.75Y-207.5
X88.75Y-211.5
X88.75Y-215.
X89.25Y-89.
X89.25Y-108.75
X89.25Y-128.25
X90.5Y-110.5
X90.5Y-114.
X90.5Y-130.25
X90.5Y-134.
X92.Y-196.5
X92.Y-198.3
X92.Y-200.05
X92.35Y-63.5
X92.35Y-68.5
X92.4Y-222.126
X93.75Y-207.5
X93.75Y-211.5
X93.75Y-215.
X94.5Y-74.
X94.5Y-84.
X94.5Y-89.
X94.5Y-94.
X94.5Y-104.
X94.5Y-109.
X94.5Y-114.
X94.5Y-119.
X94.5Y-124.
X94.5Y-129.
X94.5Y-134.
X94.5Y-139.
X94.5Y-144.
X94.5Y-149.
X94.5Y-154.
X94.5Y-159.
X94.5Y-164.
X94.5Y-169.
X95.5Y-92.75
X97.Y-93.
X97.Y-196.5
X97.Y-198.3
X97.Y-200.05
X98.75Y-92.75
X98.75Y-94.
X98.75Y-207.5
X98.75Y-211.5
X98.75Y-215.
X99.Y-105.5
X99.75Y-95.
X100.Y-147.
X101.25Y-84.5
X101.25Y-85.5
X101.25Y-123.75
X101.25Y-125.
X101.75Y-82.75
X102.Y-122.25
X102.Y-196.5
X102.Y-198.3
X102.Y-200.05
X102.5Y-105.5
X102.75Y-102.75
X102.75Y-103.75
X103.Y-122.25
X103.25Y-128.5
X103.25Y-130.
X103.25Y-219.25
X103.75Y-207.5
X103.75Y-211.5
X103.75Y-215.
X104.Y-106.
X104.Y-111.
X104.Y-116.
X104.25Y-122.25
X104.45Y-63.5
X104.45Y-68.5
X104.75Y-150.25
X104.75Y-153.25
X104.75Y-221.
X104.937Y-80.993
X104.95Y-137.6
X104.95Y-141.25
X104.95Y-144.5
X105.Y-82.5
X106.Y-177.25
X106.25Y-219.25
X106.5Y-81.
X106.5Y-82.5
X106.75Y-128.5
X106.75Y-130.
X106.75Y-136.5
X106.75Y-140.5
X106.75Y-145.5
X106.75Y-148.25
X106.75Y-166.25
X107.Y-94.75
X107.Y-96.75
X107.Y-100.75
X107.Y-196.5
X107.Y-198.3
X107.Y-200.05
X107.5Y-171.25
X108.5Y-160.25
X108.5Y-162.75
X108.5Y-169.75
X108.5Y-172.5
X108.75Y-90.75
X108.75Y-94.25
X108.75Y-130.25
X108.75Y-133.75
X108.75Y-207.5
X108.75Y-211.5
X108.75Y-215.
X109.5Y-161.5
X110.25Y-89.
X110.25Y-128.25
X110.5Y-155.
X110.5Y-156.25
X110.5Y-183.5
X110.5Y-185.25
X110.75Y-142.
X111.75Y-130.25
X111.75Y-133.75
X111.75Y-155.
X111.75Y-156.25
X112.Y-146.6
X112.Y-148.4
X112.Y-183.5
X112.Y-185.25
X112.Y-196.5
X112.Y-198.3
X112.Y-200.05
X113.Y-155.
X113.Y-156.25
X113.25Y-157.5
X113.5Y-183.5
X113.5Y-185.25
X113.75Y-207.5
X113.75Y-211.5
X113.75Y-215.
X115.25Y-148.75
X115.4Y-164.
X115.4Y-169.
X115.4Y-173.25
X115.4Y-178.5
X115.4Y-189.
X115.4Y-194.
X115.5Y-153.25
X115.5Y-220.75
X116.Y-76.
X116.Y-81.
X116.Y-86.
X116.Y-91.
X116.Y-96.
X116.Y-101.
X116.Y-106.
X116.Y-111.
X116.Y-116.
X116.Y-121.
X116.Y-126.
X116.Y-131.
X116.Y-136.
X116.Y-141.
X116.Y-146.
X116.5Y-93.
X116.75Y-220.75
X117.Y-153.25
X117.Y-164.
X117.Y-196.5
X117.Y-198.3
X117.Y-200.05
X117.1Y-169.
X117.1Y-173.25
X117.1Y-178.5
X117.1Y-189.
X117.1Y-193.75
X117.25Y-148.75
X117.25Y-157.75
X117.45Y-63.5
X117.45Y-68.5
X118.Y-93.
X118.Y-177.25
X118.25Y-158.5
X118.25Y-159.75
X118.5Y-171.75
X118.75Y-207.5
X118.75Y-211.5
X118.75Y-215.
X119.5Y-93.
X119.5Y-158.5
X119.5Y-159.75
X119.5Y-173.25
X120.25Y-104.25
X120.25Y-166.75
X120.25Y-168.25
X120.25Y-170.25
X120.75Y-158.5
X120.75Y-159.75
X121.75Y-104.25
X121.75Y-146.6
X121.75Y-148.4
X122.Y-180.
X122.Y-181.5
X122.Y-194.75
X122.Y-196.5
X122.Y-198.3
X122.Y-200.05
X122.5Y-226.5
X122.75Y-93.5
X122.75Y-150.5
X122.75Y-151.75
X122.75Y-153.
X123.25Y-145.5
X123.25Y-166.75
X123.25Y-180.
X123.25Y-181.5
X123.5Y-85.
X123.5Y-124.
X123.5Y-125.
X123.75Y-82.75
X123.75Y-104.5
X123.75Y-105.5
X123.75Y-207.5
X123.75Y-211.5
X123.75Y-215.
X124.Y-150.5
X124.Y-151.75
X124.Y-153.
X124.5Y-180.
X124.5Y-181.5
X125.Y-122.25
X125.Y-160.5
X125.25Y-101.75
X125.25Y-102.75
X125.75Y-180.
X125.75Y-181.5
X126.Y-159.25
X126.Y-161.75
X126.5Y-122.25
X126.75Y-103.75
X126.937Y-80.993
X127.Y-82.5
X127.Y-148.25
X127.Y-160.5
X127.Y-194.75
X127.Y-196.5
X127.Y-198.3
X127.Y-200.05
X127.1Y-136.5
X127.1Y-140.5
X127.1Y-145.5
X127.773Y-194.
X128.5Y-81.
X128.5Y-82.5
X128.75Y-207.5
X128.75Y-211.5
X128.75Y-215.
X128.9Y-136.5
X128.9Y-140.5
X128.9Y-145.5
X129.5Y-94.75
X129.5Y-96.75
X129.5Y-100.75
X129.5Y-102.75
X129.75Y-114.75
X129.75Y-116.75
X129.75Y-204.
X130.Y-194.
X130.45Y-63.5
X130.45Y-68.5
X130.5Y-133.5
X130.75Y-130.5
X131.Y-90.75
X131.Y-94.25
X131.Y-110.5
X131.Y-114.
X131.Y-220.25
X131.75Y-165.25
X132.Y-194.75
X132.Y-196.5
X132.Y-198.3
X132.Y-200.05
X132.25Y-89.
X132.25Y-108.75
X132.25Y-128.25
X133.5Y-110.5
X133.5Y-114.
X133.5Y-130.25
X133.5Y-134.
X133.75Y-207.5
X133.75Y-211.5
X133.75Y-215.
X136.Y-220.25
X137.Y-194.75
X137.Y-196.5
X137.Y-198.3
X137.Y-200.05
X137.5Y-74.
X137.5Y-84.
X137.5Y-89.
X137.5Y-94.
X137.5Y-104.
X137.5Y-109.
X137.5Y-114.
X137.5Y-119.
X137.5Y-124.
X137.5Y-129.
X137.5Y-134.
X137.5Y-139.
X137.5Y-144.
X137.5Y-149.
X137.5Y-154.
X137.5Y-159.
X137.5Y-164.
X137.5Y-169.
X138.5Y-92.75
X138.75Y-207.5
X138.75Y-211.5
X138.75Y-215.
X140.Y-93.
X141.Y-220.25
X141.75Y-92.75
X141.75Y-94.
X142.Y-105.5
X142.Y-194.75
X142.Y-196.5
X142.Y-198.3
X142.Y-200.05
X142.55Y-63.5
X142.55Y-68.5
X142.75Y-95.
X143.Y-147.
X143.75Y-207.5
X143.75Y-211.5
X143.75Y-215.
X144.25Y-84.5
X144.25Y-85.5
X144.25Y-123.75
X144.25Y-125.
X144.75Y-82.75
X145.Y-122.25
X145.5Y-105.5
X145.75Y-102.75
X145.75Y-103.75
X146.Y-122.25
X146.Y-220.25
X146.25Y-128.5
X146.25Y-130.
X146.5Y-236.5
X147.Y-106.
X147.Y-111.
X147.Y-116.
X147.Y-194.75
X147.Y-196.5
X147.Y-198.3
X147.Y-200.05
X147.25Y-122.25
X147.75Y-150.25
X147.75Y-153.25
X147.937Y-80.993
X147.95Y-137.6
X147.95Y-141.25
X147.95Y-144.5
X148.Y-82.5
X148.75Y-207.5
X148.75Y-211.5
X148.75Y-215.
X149.5Y-81.
X149.5Y-82.5
X149.5Y-176.75
X149.75Y-128.5
X149.75Y-130.
X149.75Y-136.5
X149.75Y-140.5
X149.75Y-145.5
X149.75Y-148.25
X149.75Y-166.25
X150.Y-94.75
X150.Y-96.75
X150.Y-100.75
X150.5Y-171.25
X151.Y-220.25
X151.5Y-160.25
X151.5Y-162.75
X151.5Y-169.75
X151.5Y-172.5
X151.5Y-236.5
X151.75Y-90.75
X151.75Y-94.25
X151.75Y-130.25
X151.75Y-133.75
X152.Y-194.75
X152.Y-196.5
X152.Y-198.3
X152.Y-200.05
X152.5Y-161.5
X153.25Y-89.
X153.25Y-128.25
X153.5Y-155.
X153.5Y-156.25
X153.5Y-183.5
X153.5Y-185.25
X153.75Y-142.
X153.75Y-207.5
X153.75Y-211.5
X153.75Y-215.
X154.75Y-130.25
X154.75Y-133.75
X154.75Y-155.
X154.75Y-156.25
X155.Y-146.6
X155.Y-148.4
X155.Y-183.5
X155.Y-185.25
X155.55Y-63.5
X155.55Y-68.5
X156.Y-155.
X156.Y-156.25
X156.Y-220.25
X156.25Y-157.5
X156.5Y-183.5
X156.5Y-185.25
X156.5Y-236.5
X157.Y-194.75
X157.Y-196.5
X157.Y-200.05
X158.Y-198.5
X158.25Y-148.75
X158.4Y-164.
X158.4Y-169.
X158.4Y-173.25
X158.4Y-178.5
X158.4Y-189.
X158.5Y-153.25
X158.75Y-207.5
X158.75Y-211.5
X158.75Y-215.
X159.Y-76.
X159.Y-81.
X159.Y-86.
X159.Y-91.
X159.Y-96.
X159.Y-101.
X159.Y-106.
X159.Y-111.
X159.Y-116.
X159.Y-121.
X159.Y-126.
X159.Y-131.
X159.Y-136.
X159.Y-141.
X159.Y-146.
X159.25Y-202.25
X159.5Y-93.
X160.Y-153.25
X160.Y-194.
X160.1Y-164.
X160.1Y-169.
X160.1Y-173.25
X160.1Y-178.5
X160.1Y-189.
X160.15Y-157.65
X160.25Y-148.75
X160.5Y-201.
X161.Y-93.
X161.Y-176.75
X161.25Y-158.5
X161.25Y-159.75
X161.5Y-171.75
X161.5Y-193.
X162.Y-194.75
X162.Y-196.5
X162.Y-205.
X162.5Y-93.
X162.5Y-158.5
X162.5Y-159.75
X162.5Y-173.25
X163.Y-170.25
X163.Y-199.25
X163.25Y-104.25
X163.25Y-166.75
X163.25Y-168.25
X163.25Y-203.75
X163.35Y-232.6
X163.5Y-238.75
X163.75Y-158.5
X163.75Y-159.75
X163.75Y-208.5
X164.5Y-198.25
X164.75Y-104.25
X164.75Y-146.6
X164.75Y-148.4
X165.Y-180.
X165.Y-181.5
X165.15Y-211.5
X165.15Y-215.25
X165.15Y-220.25
X165.15Y-225.25
X165.15Y-231.
X165.15Y-236.5
X165.15Y-241.25
X165.75Y-93.5
X165.75Y-150.5
X165.75Y-151.75
X165.75Y-153.
X166.Y-202.25
X166.25Y-145.5
X166.25Y-166.75
X166.25Y-180.
X166.25Y-181.5
X166.5Y-85.
X166.5Y-124.
X166.5Y-125.
X166.75Y-82.75
X166.75Y-104.5
X166.75Y-105.5
X166.75Y-236.5
X166.85Y-207.5
X166.85Y-211.5
X166.85Y-215.25
X166.85Y-220.25
X166.85Y-225.25
X166.85Y-231.
X167.Y-150.5
X167.Y-151.75
X167.Y-153.
X167.Y-241.25
X167.5Y-180.
X167.5Y-181.5
X167.5Y-201.25
X167.6Y-232.6
X167.75Y-238.75
X168.Y-122.25
X168.Y-160.5
X168.25Y-101.75
X168.25Y-102.75
X168.25Y-193.
X168.25Y-197.25
X168.25Y-208.5
X168.55Y-63.5
X168.55Y-68.5
X168.75Y-180.
X168.75Y-181.5
X168.75Y-205.
X169.Y-159.25
X169.Y-161.75
X169.4Y-207.5
X169.4Y-211.5
X169.4Y-215.25
X169.4Y-220.25
X169.4Y-225.25
X169.4Y-231.
X169.4Y-236.5
X169.4Y-241.25
X169.5Y-122.25
X169.75Y-103.75
X169.75Y-196.25
X169.937Y-80.993
X170.Y-82.5
X170.Y-148.25
X170.Y-160.5
X170.1Y-136.5
X170.1Y-140.5
X170.1Y-145.5
X170.25Y-204.
X171.05Y-231.05
X171.1Y-207.5
X171.1Y-211.5
X171.1Y-215.25
X171.1Y-220.25
X171.1Y-225.25
X171.1Y-236.5
X171.1Y-241.25
X171.25Y-200.25
X171.5Y-81.
X171.5Y-82.5
X171.75Y-195.
X171.75Y-238.75
X171.8Y-232.6
X171.9Y-136.5
X171.9Y-140.5
X171.9Y-145.5
X172.25Y-208.5
X172.5Y-94.75
X172.5Y-96.75
X172.5Y-100.75
X172.5Y-102.75
X172.75Y-114.75
X172.75Y-116.75
X172.75Y-199.25
X173.25Y-194.
X173.4Y-204.
X173.4Y-207.5
X173.4Y-211.5
X173.4Y-215.25
X173.4Y-220.25
X173.4Y-225.25
X173.4Y-236.5
X173.4Y-241.25
X173.45Y-231.
X173.5Y-133.5
X173.75Y-130.5
X174.Y-90.75
X174.Y-94.25
X174.Y-110.5
X174.Y-114.
X174.75Y-198.
X174.75Y-201.25
X175.1Y-204.
X175.1Y-207.5
X175.1Y-211.5
X175.1Y-215.25
X175.1Y-220.25
X175.1Y-225.25
X175.1Y-231.
X175.1Y-236.5
X175.25Y-89.
X175.25Y-108.75
X175.25Y-128.25
X175.35Y-241.25
X175.9Y-232.6
X176.Y-238.75
X176.25Y-197.
X176.5Y-110.5
X176.5Y-114.
X176.5Y-130.25
X176.5Y-134.
X176.5Y-208.5
X177.Y-136.
X177.Y-200.25
X177.65Y-204.
X177.65Y-207.5
X177.65Y-211.5
X177.65Y-215.25
X177.65Y-220.25
X177.65Y-225.25
X177.65Y-236.5
X177.65Y-241.25
X177.7Y-175.7
X177.7Y-231.
X177.73Y-183.908
X178.25Y-199.
X179.213Y-204.
X179.335Y-207.5
X179.335Y-211.5
X179.335Y-215.25
X179.335Y-220.25
X179.35Y-225.25
X179.35Y-231.
X179.35Y-236.5
X179.35Y-241.25
X179.5Y-205.75
X179.9Y-221.5
X180.Y-238.75
X180.1Y-232.6
X180.5Y-74.
X180.5Y-84.
X180.5Y-89.
X180.5Y-94.
X180.5Y-104.
X180.5Y-109.
X180.5Y-114.
X180.5Y-119.
X180.5Y-124.
X180.5Y-129.
X180.5Y-134.
X180.5Y-139.
X180.5Y-144.
X180.5Y-149.
X180.5Y-154.
X180.5Y-159.
X180.5Y-164.
X180.5Y-169.
X181.5Y-92.75
X181.5Y-209.
X181.65Y-204.
X181.65Y-211.5
X181.65Y-215.25
X181.65Y-220.25
X181.65Y-225.25
X181.65Y-236.5
X181.7Y-231.
X181.75Y-200.75
X181.75Y-207.5
X181.9Y-241.25
X182.5Y-197.5
X183.Y-93.
X183.25Y-200.75
X183.25Y-204.
X183.25Y-207.5
X183.35Y-211.5
X183.35Y-215.25
X183.35Y-220.25
X183.35Y-225.25
X183.35Y-231.
X183.35Y-236.5
X183.5Y-241.25
X184.1Y-232.6
X184.25Y-238.75
X184.75Y-92.75
X184.75Y-94.
X184.75Y-208.5
X185.Y-105.5
X185.75Y-95.
X185.75Y-197.45
X185.9Y-207.5
X185.9Y-211.5
X185.9Y-215.25
X185.9Y-220.25
X185.9Y-225.25
X185.9Y-236.5
X185.9Y-241.25
X185.95Y-231.
X186.Y-147.
X186.Y-201.2
X186.Y-204.
X186.25Y-194.
X187.25Y-84.5
X187.25Y-85.5
X187.25Y-123.75
X187.25Y-125.
X187.6Y-204.
X187.6Y-207.5
X187.6Y-211.5
X187.6Y-215.25
X187.6Y-220.25
X187.6Y-225.25
X187.6Y-231.
X187.6Y-236.5
X187.75Y-82.75
X187.75Y-241.25
X188.Y-122.25
X188.3Y-232.6
X188.5Y-105.5
X188.5Y-193.
X188.5Y-194.75
X188.5Y-238.75
X188.75Y-102.75
X188.75Y-103.75
X189.Y-122.25
X189.Y-198.2
X189.Y-208.5
X189.25Y-128.5
X189.25Y-130.
X190.Y-106.
X190.Y-111.
X190.Y-116.
X190.15Y-207.5
X190.15Y-211.5
X190.15Y-215.25
X190.15Y-220.25
X190.15Y-225.25
X190.15Y-236.5
X190.15Y-241.25
X190.2Y-231.
X190.25Y-122.25
X190.5Y-199.2
X190.75Y-150.25
X190.75Y-153.25
X190.937Y-80.993
X190.95Y-137.6
X190.95Y-141.25
X190.95Y-144.5
X191.Y-63.5
X191.Y-68.5
X191.Y-82.5
X191.654Y-195.654
X191.712Y-203.127
X191.85Y-207.5
X191.85Y-211.5
X191.85Y-215.25
X191.85Y-220.25
X191.85Y-225.25
X191.85Y-231.
X191.85Y-236.5
X191.85Y-241.25
X192.5Y-81.
X192.5Y-82.5
X192.6Y-232.6
X192.75Y-128.5
X192.75Y-130.
X192.75Y-136.5
X192.75Y-140.5
X192.75Y-145.5
X192.75Y-148.25
X192.75Y-166.25
X192.75Y-176.25
X192.75Y-238.75
X193.Y-94.75
X193.Y-96.75
X193.Y-100.75
X193.Y-204.124
X193.25Y-193.
X193.25Y-194.75
X193.25Y-196.45
X193.25Y-208.5
X193.5Y-171.25
X194.4Y-211.5
X194.4Y-215.25
X194.4Y-220.25
X194.4Y-225.25
X194.4Y-241.25
X194.45Y-231.
X194.5Y-160.25
X194.5Y-162.75
X194.5Y-169.75
X194.5Y-172.5
X194.5Y-236.5
X194.75Y-90.75
X194.75Y-94.25
X194.75Y-130.25
X194.75Y-133.75
X194.75Y-199.95
X195.5Y-161.5
X196.Y-220.25
X196.1Y-211.5
X196.1Y-215.25
X196.1Y-225.25
X196.1Y-231.
X196.1Y-236.5
X196.1Y-241.25
X196.25Y-89.
X196.25Y-128.25
X196.25Y-200.95
X196.3Y-205.9
X196.5Y-155.
X196.5Y-156.25
X196.5Y-183.5
X196.5Y-185.25
X196.75Y-142.
X197.25Y-207.2
X197.5Y-193.
X197.5Y-194.75
X197.5Y-197.2
X197.75Y-130.25
X197.75Y-133.75
X197.75Y-155.
X197.75Y-156.25
X198.Y-146.6
X198.Y-148.4
X198.Y-183.5
X198.Y-185.25
X199.Y-155.
X199.Y-156.25
X199.Y-198.3
X199.Y-203.1
X199.25Y-157.5
X199.5Y-183.5
X199.5Y-185.25
X200.Y-211.5
X200.Y-215.25
X200.Y-220.25
X200.Y-236.5
X200.4Y-204.024
X201.Y-194.75
X201.Y-196.5
X201.25Y-148.75
X201.4Y-164.
X201.4Y-169.
X201.4Y-173.25
X201.4Y-178.5
X201.4Y-187.2
X201.4Y-191.75
X201.5Y-153.25
X201.75Y-200.35
X202.Y-76.
X202.Y-81.
X202.Y-86.
X202.Y-91.
X202.Y-96.
X202.Y-101.
X202.Y-106.
X202.Y-111.
X202.Y-116.
X202.Y-121.
X202.Y-126.
X202.Y-131.
X202.Y-136.
X202.Y-141.
X202.Y-146.
X202.5Y-93.
X203.Y-153.25
X203.Y-201.45
X203.1Y-164.
X203.1Y-169.
X203.1Y-173.25
X203.1Y-178.5
X203.1Y-187.2
X203.1Y-191.75
X203.15Y-157.65
X203.25Y-148.75
X204.Y-63.5
X204.Y-68.5
X204.Y-93.
X204.Y-176.1
X204.25Y-158.5
X204.25Y-159.75
X204.5Y-171.75
X205.Y-211.5
X205.Y-215.25
X205.Y-220.25
X205.Y-236.5
X205.5Y-93.
X205.5Y-158.5
X205.5Y-159.75
X205.5Y-173.25
X206.Y-194.75
X206.Y-196.5
X206.Y-198.3
X206.Y-200.05
X206.25Y-104.25
X206.25Y-166.75
X206.25Y-168.25
X206.25Y-170.25
X206.75Y-158.5
X206.75Y-159.75
X207.75Y-104.25
X207.75Y-146.6
X207.75Y-148.4
X208.Y-180.
X208.Y-181.5
X208.75Y-93.5
X208.75Y-150.5
X208.75Y-151.75
X208.75Y-153.
X209.25Y-145.5
X209.25Y-166.75
X209.25Y-180.
X209.25Y-181.5
X209.5Y-125.
X209.5Y-85.
X209.5Y-124.
X209.75Y-82.75
X209.75Y-104.5
X209.75Y-105.5
X210.Y-150.5
X210.Y-151.75
X210.Y-153.
X210.Y-211.5
X210.Y-215.25
X210.Y-220.25
X210.Y-236.5
X210.5Y-180.
X210.5Y-181.5
X211.Y-122.25
X211.Y-160.5
X211.Y-194.75
X211.Y-196.5
X211.Y-198.3
X211.Y-200.05
X211.25Y-101.75
X211.25Y-102.75
X211.75Y-180.
X211.75Y-181.5
X212.Y-159.25
X212.Y-161.75
X212.5Y-122.25
X212.75Y-103.75
X212.937Y-80.993
X213.Y-82.5
X213.Y-148.25
X213.Y-160.5
X213.1Y-136.5
X213.1Y-140.5
X213.1Y-145.5
X214.5Y-81.
X214.5Y-82.5
X214.9Y-136.5
X214.9Y-140.5
X214.9Y-145.5
X215.Y-211.5
X215.Y-215.25
X215.Y-220.25
X215.5Y-94.75
X215.5Y-96.75
X215.5Y-100.75
X215.5Y-102.75
X215.75Y-114.75
X215.75Y-116.75
X216.Y-194.75
X216.Y-196.5
X216.Y-198.3
X216.Y-200.05
X216.75Y-130.5
X216.75Y-133.5
X217.Y-63.5
X217.Y-68.5
X217.Y-90.75
X217.Y-94.25
X217.Y-110.5
X217.Y-114.
X218.25Y-89.
X218.25Y-108.75
X218.25Y-128.25
X219.5Y-110.5
X219.5Y-114.
X219.5Y-130.25
X219.5Y-134.
X220.Y-211.5
X220.Y-215.25
X220.Y-220.25
X221.Y-194.75
X221.Y-196.5
X221.Y-198.3
X221.Y-200.05
X223.5Y-74.
X223.5Y-84.
X223.5Y-89.
X223.5Y-94.
X223.5Y-104.
X223.5Y-109.
X223.5Y-114.
X223.5Y-119.
X223.5Y-124.
X223.5Y-129.
X223.5Y-134.
X223.5Y-139.
X223.5Y-144.
X223.5Y-149.
X223.5Y-154.
X223.5Y-159.
X223.5Y-164.
X223.5Y-169.
X224.5Y-92.75
X225.Y-211.5
X225.Y-215.25
X225.Y-220.25
X226.Y-93.
X226.Y-194.75
X226.Y-196.5
X226.Y-198.3
X226.Y-200.05
X227.75Y-92.75
X227.75Y-94.
X228.Y-105.5
X228.75Y-95.
X229.Y-147.
X229.1Y-63.5
X229.1Y-68.5
X230.Y-211.5
X230.Y-215.25
X230.Y-220.25
X230.25Y-84.5
X230.25Y-85.5
X230.25Y-123.75
X230.25Y-125.
X230.75Y-82.75
X231.Y-122.25
X231.Y-194.75
X231.Y-196.5
X231.Y-198.3
X231.Y-200.05
X231.5Y-105.5
X231.75Y-102.75
X231.75Y-103.75
X232.Y-122.25
X232.25Y-128.5
X232.25Y-130.
X233.Y-106.
X233.Y-111.
X233.Y-116.
X233.25Y-122.25
X233.75Y-150.25
X233.75Y-153.25
X233.937Y-80.993
X233.95Y-137.6
X233.95Y-141.25
X233.95Y-144.5
X234.Y-82.5
X235.Y-173.95
X235.Y-211.5
X235.Y-215.25
X235.Y-220.25
X235.5Y-81.
X235.5Y-82.5
X235.75Y-128.5
X235.75Y-130.
X235.75Y-136.5
X235.75Y-140.5
X235.75Y-145.5
X235.75Y-148.25
X235.75Y-166.25
X236.Y-94.75
X236.Y-96.75
X236.Y-100.75
X236.Y-194.75
X236.Y-196.5
X236.Y-198.3
X236.Y-200.05
X236.5Y-171.25
X237.25Y-218.5
X237.5Y-160.25
X237.5Y-162.75
X237.5Y-169.75
X237.5Y-172.5
X237.75Y-90.75
X237.75Y-94.25
X237.75Y-130.25
X237.75Y-133.75
X238.5Y-161.5
X238.75Y-220.25
X239.25Y-89.
X239.25Y-128.25
X239.5Y-155.
X239.5Y-156.25
X239.5Y-183.5
X239.5Y-185.25
X239.75Y-142.
X240.25Y-218.5
X240.75Y-130.25
X240.75Y-133.75
X240.75Y-155.
X240.75Y-156.25
X241.Y-146.6
X241.Y-148.4
X241.Y-183.5
X241.Y-185.25
X241.Y-194.75
X241.Y-196.5
X241.Y-198.3
X241.Y-200.05
X242.Y-155.
X242.Y-156.25
X242.1Y-63.5
X242.1Y-68.5
X242.25Y-157.5
X242.5Y-183.5
X242.5Y-185.25
X244.25Y-148.75
X244.25Y-192.2
X244.4Y-164.
X244.4Y-169.
X244.4Y-173.25
X244.4Y-178.5
X244.4Y-189.
X244.5Y-153.25
X244.5Y-208.5
X244.5Y-212.
X245.Y-76.
X245.Y-81.
X245.Y-86.
X245.Y-91.
X245.Y-96.
X245.Y-101.
X245.Y-106.
X245.Y-111.
X245.Y-116.
X245.Y-121.
X245.Y-126.
X245.Y-131.
X245.Y-136.
X245.Y-141.
X245.Y-146.
X245.5Y-93.
X245.75Y-193.2
X246.Y-153.25
X246.Y-196.5
X246.Y-198.3
X246.Y-200.05
X246.1Y-164.
X246.1Y-169.
X246.1Y-173.25
X246.1Y-178.5
X246.1Y-189.
X246.15Y-157.65
X246.25Y-148.75
X246.25Y-220.25
X247.Y-93.
X247.Y-173.95
X247.25Y-158.5
X247.25Y-159.75
X247.5Y-171.75
X248.5Y-93.
X248.5Y-158.5
X248.5Y-159.75
X248.5Y-173.25
X249.Y-170.25
X249.25Y-104.25
X249.25Y-166.75
X249.25Y-168.25
X249.25Y-218.5
X249.75Y-158.5
X249.75Y-159.75
X250.75Y-104.25
X250.75Y-146.6
X250.75Y-148.4
X250.75Y-220.25
X251.Y-180.
X251.Y-181.5
X251.Y-196.5
X251.Y-198.3
X251.Y-200.05
X251.75Y-93.5
X251.75Y-150.5
X251.75Y-151.75
X251.75Y-153.
X252.Y-203.5
X252.Y-205.75
X252.25Y-145.5
X252.25Y-166.75
X252.25Y-180.
X252.25Y-181.5
X252.25Y-218.5
X252.5Y-105.5
X252.5Y-85.
X252.5Y-104.5
X252.5Y-124.
X252.5Y-125.
X252.75Y-82.75
X253.Y-150.5
X253.Y-151.75
X253.Y-153.
X253.5Y-180.
X253.5Y-181.5
X254.Y-122.25
X254.Y-160.5
X254.25Y-101.75
X254.25Y-102.75
X254.75Y-180.
X254.75Y-181.5
X255.Y-159.25
X255.Y-161.75
X255.1Y-63.5
X255.1Y-68.5
X255.5Y-122.25
X255.75Y-103.75
X255.937Y-80.993
X256.Y-82.5
X256.Y-148.25
X256.Y-160.5
X256.Y-196.5
X256.Y-198.3
X256.Y-200.05
X256.1Y-136.5
X256.1Y-140.5
X256.1Y-145.5
X257.5Y-81.
X257.5Y-82.5
X257.9Y-136.5
X257.9Y-140.5
X257.9Y-145.5
X258.5Y-94.75
X258.5Y-96.75
X258.5Y-100.75
X258.5Y-102.75
X258.75Y-114.75
X258.75Y-116.75
X259.75Y-130.5
X259.75Y-133.5
X260.Y-90.75
X260.Y-94.25
X260.Y-110.5
X260.Y-114.
X261.Y-196.5
X261.Y-198.3
X261.Y-200.05
X261.25Y-89.
X261.25Y-108.75
X261.25Y-128.25
X261.25Y-215.25
X261.25Y-220.25
X262.5Y-110.5
X262.5Y-114.
X262.5Y-130.25
X262.5Y-134.
X262.75Y-215.25
X262.75Y-220.25
X265.75Y-224.
X266.Y-196.5
X266.Y-198.3
X266.Y-200.05
X266.5Y-74.
X266.5Y-84.
X266.5Y-89.
X266.5Y-94.
X266.5Y-104.
X266.5Y-109.
X266.5Y-114.
X266.5Y-119.
X266.5Y-124.
X266.5Y-129.
X266.5Y-134.
X266.5Y-139.
X266.5Y-144.
X266.5Y-149.
X266.5Y-154.
X266.5Y-159.
X266.5Y-164.
X266.5Y-169.
X266.75Y-223.
X266.75Y-225.
X267.2Y-63.5
X267.2Y-68.5
X267.5Y-92.75
X269.Y-93.
X270.75Y-92.75
X270.75Y-94.
X271.Y-105.5
X271.Y-196.5
X271.Y-198.3
X271.Y-200.05
X271.75Y-95.
X272.Y-147.
X273.25Y-84.5
X273.25Y-85.5
X273.25Y-123.75
X273.25Y-125.
X273.75Y-82.75
X274.Y-122.25
X274.5Y-105.5
X274.75Y-102.75
X274.75Y-103.75
X275.Y-122.25
X275.25Y-128.5
X275.25Y-130.
X276.Y-106.
X276.Y-111.
X276.Y-116.
X276.Y-196.5
X276.Y-198.3
X276.Y-200.05
X276.25Y-122.25
X276.75Y-150.25
X276.75Y-153.25
X276.937Y-80.993
X276.95Y-137.6
X276.95Y-141.25
X276.95Y-144.5
X277.Y-82.5
X278.Y-174.4
X278.5Y-81.
X278.5Y-82.5
X278.75Y-128.5
X278.75Y-130.
X278.75Y-136.5
X278.75Y-140.5
X278.75Y-145.5
X278.75Y-148.25
X278.75Y-166.25
X279.Y-94.75
X279.Y-96.75
X279.Y-100.75
X279.5Y-171.25
X279.75Y-238.
X279.75Y-243.
X279.75Y-248.
X279.8Y-218.6
X280.Y-221.75
X280.2Y-63.5
X280.2Y-68.5
X280.5Y-160.25
X280.5Y-162.75
X280.5Y-169.75
X280.5Y-172.5
X280.75Y-90.75
X280.75Y-94.25
X280.75Y-130.25
X280.75Y-133.75
X281.Y-196.5
X281.Y-198.3
X281.Y-200.05
X281.5Y-161.5
X281.75Y-214.5
X282.25Y-89.
X282.25Y-128.25
X282.5Y-155.
X282.5Y-156.25
X282.5Y-183.5
X282.5Y-185.25
X282.5Y-227.5
X282.75Y-142.
X283.Y-220.25
X283.75Y-130.25
X283.75Y-133.75
X283.75Y-155.
X283.75Y-156.25
X284.Y-146.6
X284.Y-148.4
X284.Y-183.5
X284.Y-185.25
X285.Y-155.
X285.Y-156.25
X285.25Y-157.5
X285.5Y-183.5
X285.5Y-185.25
X286.Y-198.3
X286.Y-200.05
X287.25Y-148.75
X287.25Y-192.2
X287.3Y-164.
X287.3Y-169.
X287.3Y-173.75
X287.3Y-178.5
X287.3Y-189.
X287.5Y-153.25
X288.Y-76.
X288.Y-81.
X288.Y-86.
X288.Y-91.
X288.Y-96.
X288.Y-101.
X288.Y-106.
X288.Y-111.
X288.Y-116.
X288.Y-121.
X288.Y-126.
X288.Y-131.
X288.Y-136.
X288.Y-141.
X288.Y-146.
X288.5Y-93.
X288.75Y-193.2
X289.Y-153.25
X289.1Y-164.
X289.1Y-169.
X289.1Y-173.75
X289.1Y-178.5
X289.1Y-189.
X289.15Y-157.65
X289.25Y-148.75
X289.75Y-238.
X289.75Y-243.
X289.75Y-248.
X290.Y-93.
X290.1Y-174.4
X290.25Y-158.5
X290.25Y-159.75
X290.5Y-171.75
X291.Y-198.3
X291.Y-200.05
X291.5Y-93.
X291.5Y-158.5
X291.5Y-159.75
X291.5Y-173.25
X292.Y-170.25
X292.25Y-104.25
X292.25Y-166.75
X292.25Y-168.25
X292.25Y-217.75
X292.5Y-227.5
X292.75Y-158.5
X292.75Y-159.75
X293.2Y-63.5
X293.2Y-68.5
X293.75Y-104.25
X293.75Y-146.6
X293.75Y-148.4
X293.75Y-180.
X293.75Y-181.5
X294.75Y-93.5
X294.75Y-150.5
X294.75Y-151.75
X294.75Y-153.
X295.Y-180.
X295.Y-181.5
X295.25Y-145.5
X295.25Y-166.75
X295.5Y-85.
X295.5Y-124.
X295.5Y-125.
X295.75Y-82.75
X295.75Y-104.5
X295.75Y-105.5
X296.Y-150.5
X296.Y-151.75
X296.Y-153.
X296.Y-198.3
X296.Y-200.05
X296.25Y-180.
X296.25Y-181.5
X297.Y-122.25
X297.Y-160.5
X297.25Y-101.75
X297.25Y-102.75
X297.5Y-180.
X297.5Y-181.5
X297.5Y-220.
X298.Y-159.25
X298.Y-161.75
X298.5Y-122.25
X298.75Y-103.75
X298.75Y-212.75
X298.937Y-80.993
X299.Y-82.5
X299.Y-148.25
X299.Y-160.5
X299.1Y-136.5
X299.1Y-140.5
X299.1Y-145.5
X299.75Y-238.
X299.75Y-243.
X299.75Y-248.
X300.5Y-81.
X300.5Y-82.5
X300.9Y-136.5
X300.9Y-140.5
X300.9Y-145.5
X301.Y-198.3
X301.Y-200.05
X301.5Y-94.75
X301.5Y-96.75
X301.5Y-100.75
X301.5Y-102.75
X301.75Y-114.75
X301.75Y-116.75
X302.5Y-229.25
X302.75Y-130.5
X302.75Y-133.5
X303.Y-90.75
X303.Y-94.25
X303.Y-110.5
X303.Y-114.
X304.25Y-89.
X304.25Y-108.75
X304.25Y-128.25
X305.3Y-63.5
X305.3Y-68.5
X305.5Y-110.5
X305.5Y-114.
X305.5Y-130.25
X305.5Y-134.
X306.Y-206.5
X306.Y-208.5
X306.Y-210.5
X307.5Y-220.
X308.Y-206.5
X308.Y-208.5
X308.Y-210.5
X309.Y-212.75
X309.5Y-74.
X309.5Y-84.
X309.5Y-89.
X309.5Y-94.
X309.5Y-104.
X309.5Y-109.
X309.5Y-114.
X309.5Y-119.
X309.5Y-124.
X309.5Y-129.
X309.5Y-134.
X309.5Y-139.
X309.5Y-144.
X309.5Y-149.
X309.5Y-154.
X309.5Y-159.
X309.5Y-164.
X309.5Y-169.
X309.75Y-238.
X309.75Y-243.
X309.75Y-248.
X310.5Y-92.75
X311.Y-198.3
X311.Y-200.05
X311.75Y-217.75
X312.Y-93.
X313.75Y-92.75
X313.75Y-94.
X314.Y-105.5
X314.25Y-217.75
X314.75Y-95.
X315.Y-147.
X315.25Y-217.
X316.Y-198.3
X316.Y-200.05
X316.25Y-84.5
X316.25Y-85.5
X316.25Y-123.75
X316.25Y-125.
X316.25Y-217.75
X316.75Y-82.75
X317.Y-122.25
X317.25Y-211.25
X317.5Y-105.5
X317.75Y-102.75
X317.75Y-103.75
X318.Y-122.25
X318.25Y-128.5
X318.25Y-130.
X318.3Y-63.5
X318.3Y-68.5
X318.75Y-212.75
X319.Y-106.
X319.Y-111.
X319.Y-116.
X319.25Y-122.25
X319.75Y-150.25
X319.75Y-153.25
X319.75Y-213.75
X319.75Y-238.
X319.75Y-243.
X319.75Y-248.
X319.937Y-80.993
X319.95Y-137.6
X319.95Y-141.25
X319.95Y-144.5
X320.Y-82.5
X320.75Y-81.75
X320.75Y-212.75
X321.Y-175.
X321.Y-198.3
X321.Y-200.05
X321.5Y-81.
X321.5Y-82.5
X321.75Y-128.5
X321.75Y-130.
X321.75Y-136.5
X321.75Y-140.5
X321.75Y-145.5
X321.75Y-148.25
X321.75Y-166.25
X322.Y-94.75
X322.Y-96.75
X322.Y-100.75
X322.5Y-171.25
X323.5Y-160.25
X323.5Y-162.75
X323.5Y-169.75
X323.5Y-172.5
X323.75Y-90.75
X323.75Y-94.25
X323.75Y-130.25
X323.75Y-133.75
X324.5Y-161.5
X324.5Y-205.75
X324.5Y-212.75
X324.5Y-219.25
X325.Y-197.7
X325.25Y-89.
X325.25Y-128.25
X325.5Y-155.
X325.5Y-156.25
X325.5Y-183.5
X325.5Y-185.25
X325.75Y-142.
X326.25Y-198.7
X326.75Y-130.25
X326.75Y-133.75
X326.75Y-155.
X326.75Y-156.25
X327.Y-146.6
X327.Y-148.4
X327.Y-183.5
X327.Y-185.25
X328.Y-155.
X328.Y-156.25
X328.25Y-157.5
X328.5Y-183.5
X328.5Y-185.25
X329.75Y-238.
X329.75Y-243.
X329.75Y-248.
X330.25Y-148.75
X330.4Y-164.
X330.4Y-169.
X330.4Y-174.
X330.4Y-178.5
X330.4Y-184.
X330.4Y-189.
X330.4Y-192.1
X330.5Y-153.25
X331.Y-76.
X331.Y-81.
X331.Y-86.
X331.Y-91.
X331.Y-96.
X331.Y-101.
X331.Y-106.
X331.Y-111.
X331.Y-116.
X331.Y-121.
X331.Y-126.
X331.Y-131.
X331.Y-136.
X331.Y-141.
X331.Y-146.
X331.3Y-63.5
X331.3Y-68.5
X331.5Y-93.
X331.75Y-193.2
X332.Y-153.25
X332.1Y-164.
X332.1Y-169.
X332.1Y-174.
X332.1Y-178.5
X332.1Y-184.
X332.1Y-189.
X332.15Y-157.65
X332.25Y-148.75
X332.25Y-205.75
X332.25Y-212.75
X332.25Y-219.25
X333.Y-93.
X333.Y-175.
X333.25Y-158.5
X333.25Y-159.75
X333.5Y-171.75
X334.5Y-93.
X334.5Y-158.5
X334.5Y-159.75
X334.5Y-173.25
X335.25Y-104.25
X335.25Y-166.75
X335.25Y-168.25
X335.25Y-170.25
X335.75Y-158.5
X335.75Y-159.75
X336.75Y-104.25
X336.75Y-146.6
X336.75Y-148.4
X337.Y-180.
X337.Y-181.5
X337.75Y-93.5
X337.75Y-150.5
X337.75Y-151.75
X337.75Y-153.
X337.75Y-206.5
X337.75Y-208.75
X337.75Y-211.25
X338.25Y-145.5
X338.25Y-166.75
X338.25Y-180.
X338.25Y-181.5
X338.5Y-85.
X338.5Y-124.
X338.5Y-125.
X338.75Y-82.75
X338.75Y-104.5
X338.75Y-105.5
X339.Y-150.5
X339.Y-151.75
X339.Y-153.
X339.5Y-180.
X339.5Y-181.5
X339.75Y-206.5
X339.75Y-208.75
X339.75Y-211.25
X339.75Y-238.
X339.75Y-243.
X339.75Y-248.
X340.Y-122.25
X340.Y-160.5
X340.25Y-101.75
X340.25Y-102.75
X340.75Y-180.
X340.75Y-181.5
X341.Y-159.25
X341.Y-161.75
X341.5Y-122.25
X341.75Y-103.75
X341.75Y-206.5
X341.75Y-208.75
X341.75Y-211.25
X341.937Y-80.993
X342.Y-82.5
X342.Y-148.25
X342.Y-160.5
X342.1Y-136.5
X342.1Y-140.5
X342.1Y-145.5
X342.75Y-81.75
X343.5Y-81.
X343.5Y-82.5
X343.9Y-136.5
X343.9Y-140.5
X343.9Y-145.5
X344.5Y-94.75
X344.5Y-96.75
X344.5Y-100.75
X344.5Y-102.75
X344.75Y-114.75
X344.75Y-116.75
X345.75Y-130.5
X345.75Y-133.5
X346.Y-90.75
X346.Y-94.25
X346.Y-110.5
X346.Y-114.
X347.25Y-89.
X347.25Y-108.75
X347.25Y-128.25
X348.5Y-110.5
X348.5Y-114.
X348.5Y-130.25
X348.5Y-134.
X349.75Y-248.
X352.5Y-74.
X352.5Y-84.
X352.5Y-89.
X352.5Y-94.
X352.5Y-99.
X352.5Y-104.
X352.5Y-109.
X352.5Y-114.
X352.5Y-119.
X352.5Y-124.
X352.5Y-129.
X352.5Y-134.
X352.5Y-139.
X352.5Y-144.
X352.5Y-149.
X352.5Y-154.
X352.5Y-159.
X352.5Y-164.
X352.5Y-169.
X352.5Y-174.
X352.5Y-179.
X352.5Y-184.
X352.5Y-189.
X352.5Y-194.
X352.5Y-199.
X352.5Y-204.
X352.5Y-209.
X352.5Y-214.
X352.5Y-219.
X352.5Y-224.
X352.5Y-229.
X352.5Y-234.
X352.5Y-239.
T2
X17.25Y-89.
X17.25Y-90.5
X19.75Y-81.75
X20.75Y-89.
X20.75Y-90.5
X39.25Y-89.
X39.25Y-90.5
X39.25Y-109.
X39.25Y-110.5
X39.25Y-128.5
X39.25Y-130.
X41.75Y-81.75
X42.25Y-214.
X42.4Y-235.
X42.75Y-89.
X42.75Y-90.5
X42.75Y-109.
X42.75Y-110.5
X42.75Y-128.5
X42.75Y-130.
X43.2Y-211.6
X43.251Y-222.126
X44.25Y-217.25
X44.25Y-220.
X45.Y-232.4
X47.25Y-212.25
X48.25Y-215.
X55.25Y-228.75
X55.25Y-230.5
X55.25Y-232.25
X55.25Y-234.
X60.25Y-89.
X60.25Y-90.5
X62.75Y-81.75
X63.75Y-89.
X63.75Y-90.5
X82.25Y-89.
X82.25Y-90.5
X82.25Y-109.
X82.25Y-110.5
X82.25Y-128.5
X82.25Y-130.
X84.75Y-81.75
X85.75Y-89.
X85.75Y-90.5
X85.75Y-109.
X85.75Y-110.5
X85.75Y-128.5
X85.75Y-130.
X103.Y-225.
X103.Y-227.
X103.Y-228.75
X103.25Y-89.
X103.25Y-90.5
X104.75Y-225.
X105.75Y-81.75
X106.75Y-89.
X106.75Y-90.5
X120.1Y-219.
X125.25Y-89.
X125.25Y-90.5
X125.25Y-109.
X125.25Y-110.5
X125.25Y-128.5
X125.25Y-130.
X127.75Y-81.75
X128.75Y-89.
X128.75Y-90.5
X128.75Y-109.
X128.75Y-110.5
X128.75Y-128.5
X128.75Y-130.
X146.25Y-89.
X146.25Y-90.5
X148.75Y-81.75
X149.75Y-89.
X149.75Y-90.5
X168.25Y-89.
X168.25Y-90.5
X168.25Y-109.
X168.25Y-110.5
X168.25Y-128.5
X168.25Y-130.
X170.75Y-81.75
X171.75Y-89.
X171.75Y-90.5
X171.75Y-109.
X171.75Y-110.5
X171.75Y-128.5
X171.75Y-130.
X180.73Y-181.008
X189.25Y-89.
X189.25Y-90.5
X189.255Y-181.458
X191.75Y-81.75
X192.75Y-89.
X192.75Y-90.5
X211.25Y-89.
X211.25Y-90.5
X211.25Y-109.
X211.25Y-110.5
X211.25Y-128.5
X211.25Y-130.
X213.75Y-81.75
X214.75Y-89.
X214.75Y-90.5
X214.75Y-109.
X214.75Y-110.5
X214.75Y-128.5
X214.75Y-130.
X232.25Y-89.
X232.25Y-90.5
X234.75Y-81.75
X235.75Y-89.
X235.75Y-90.5
X236.25Y-223.75
X236.25Y-227.75
X238.75Y-223.75
X247.75Y-223.75
X247.75Y-227.75
X250.75Y-223.75
X254.25Y-89.
X254.25Y-90.5
X254.25Y-109.
X254.25Y-110.5
X254.25Y-128.5
X254.25Y-130.
X256.75Y-81.75
X257.75Y-89.
X257.75Y-90.5
X257.75Y-109.
X257.75Y-110.5
X257.75Y-128.5
X257.75Y-130.
X275.25Y-89.
X275.25Y-90.5
X277.75Y-81.75
X278.25Y-222.
X278.75Y-89.
X278.75Y-90.5
X297.25Y-89.
X297.25Y-90.5
X297.25Y-109.
X297.25Y-110.5
X297.25Y-128.5
X297.25Y-130.
X299.75Y-81.75
X300.75Y-89.
X300.75Y-90.5
X300.75Y-109.
X300.75Y-110.5
X300.75Y-128.5
X300.75Y-130.
X318.25Y-89.
X318.25Y-90.5
X321.75Y-89.
X321.75Y-90.5
X340.25Y-89.
X340.25Y-90.5
X340.25Y-109.
X340.25Y-110.5
X340.25Y-128.5
X340.25Y-130.
X343.75Y-89.
X343.75Y-90.5
X343.75Y-109.
X343.75Y-110.5
X343.75Y-128.5
X343.75Y-130.
T3
X26.5Y-233.25
X26.5Y-236.25
X145.71Y-60.96
X145.71Y-66.04
X148.25Y-63.5
X150.79Y-60.96
X150.79Y-66.04
X84.71Y-60.96
X84.71Y-66.04
X87.25Y-63.5
X89.79Y-60.96
X89.79Y-66.04
X61.25Y-120.25
X323.25Y-156.25
X286.75Y-96.75
X65.25Y-156.25
X319.25Y-120.25
X151.25Y-156.25
X22.25Y-156.25
X309.25Y-96.75
X223.25Y-96.75
X28.75Y-96.75
X243.75Y-96.75
X329.75Y-96.75
X137.25Y-96.75
X251.25Y-158.25
X294.25Y-158.25
X104.25Y-120.25
X51.25Y-96.75
X193.96Y-60.96
X193.96Y-66.04
X196.5Y-63.5
X199.04Y-60.96
X199.04Y-66.04
X190.25Y-120.25
X270.21Y-60.96
X270.21Y-66.04
X272.75Y-63.5
X275.29Y-60.96
X275.29Y-66.04
X276.25Y-120.25
X323.46Y-60.96
X323.46Y-66.04
X326.Y-63.5
X328.54Y-60.96
X328.54Y-66.04
X237.25Y-156.25
X165.25Y-158.25
X69.46Y-60.96
X69.46Y-66.04
X72.Y-63.5
X74.54Y-60.96
X74.54Y-66.04
X194.25Y-156.25
X114.75Y-96.75
X31.46Y-60.96
X31.46Y-66.04
X34.Y-63.5
X36.54Y-60.96
X36.54Y-66.04
X231.96Y-60.96
X231.96Y-66.04
X234.5Y-63.5
X237.04Y-60.96
X237.04Y-66.04
X71.75Y-96.75
X247.21Y-60.96
X247.21Y-66.04
X249.75Y-63.5
X252.29Y-60.96
X252.29Y-66.04
X200.75Y-96.75
X308.21Y-60.96
X308.21Y-66.04
X310.75Y-63.5
X313.29Y-60.96
X313.29Y-66.04
X147.25Y-120.25
X122.25Y-158.25
X108.25Y-156.25
X122.96Y-60.96
X122.96Y-66.04
X125.5Y-63.5
X128.04Y-60.96
X128.04Y-66.04
X337.25Y-158.25
X209.21Y-60.96
X209.21Y-66.04
X211.75Y-63.5
X214.29Y-60.96
X214.29Y-66.04
X18.25Y-120.25
X46.71Y-60.96
X46.71Y-66.04
X49.25Y-63.5
X51.79Y-60.96
X51.79Y-66.04
X180.35Y-96.75
X160.96Y-60.96
X160.96Y-66.04
X163.5Y-63.5
X166.04Y-60.96
X166.04Y-66.04
X208.25Y-158.25
X233.25Y-120.25
X285.46Y-60.96
X285.46Y-66.04
X288.Y-63.5
X290.54Y-60.96
X290.54Y-66.04
X94.25Y-96.75
X157.75Y-96.75
X79.25Y-158.25
X280.25Y-156.25
X266.25Y-96.75
X107.71Y-60.96
X107.71Y-66.04
X110.25Y-63.5
X112.79Y-60.96
X112.79Y-66.04
X36.25Y-158.25
X8.25Y-96.75
T4
X178.73Y-63.73
X178.73Y-66.27
X181.27Y-63.73
X181.27Y-66.27
T5
X163.383Y-242.808
X164.768Y-245.652
X166.152Y-242.808
X167.536Y-245.652
X168.921Y-242.808
X170.305Y-245.652
X171.689Y-242.808
X173.073Y-245.652
X174.458Y-242.808
X175.842Y-245.652
X177.226Y-242.808
X178.611Y-245.652
X179.995Y-242.808
X181.379Y-245.652
X182.764Y-242.808
X184.148Y-245.652
X185.532Y-242.808
X186.916Y-245.652
X188.301Y-242.808
X189.685Y-245.652
X191.069Y-242.808
X192.454Y-245.652
X193.838Y-242.808
X195.222Y-245.652
X196.607Y-242.808
T6
X7.12Y-243.65
X156.475Y-244.23
X352.72Y-243.65
X352.72Y-79.566
X7.28Y-79.566
X203.515Y-244.23
T0
M30
