G04 #@! TF.GenerationSoftware,KiCad,Pcbnew,(2017-12-06 revision 4e70e37f0)-master*
G04 #@! TF.CreationDate,2017-12-06T11:37:05-08:00*
G04 #@! TF.ProjectId,8CH_Amplifier,3843485F416D706C69666965722E6B69,rev?*
G04 #@! TF.SameCoordinates,Original*
G04 #@! TF.FileFunction,Soldermask,Top*
G04 #@! TF.FilePolarity,Negative*
%FSLAX46Y46*%
G04 Gerber Fmt 4.6, Leading zero omitted, Abs format (unit mm)*
G04 Created by KiCad (PCBNEW (2017-12-06 revision 4e70e37f0)-master) date Wed Dec  6 11:37:05 2017*
%MOMM*%
%LPD*%
G01*
G04 APERTURE LIST*
%ADD10R,1.300000X0.900000*%
%ADD11R,1.200000X1.150000*%
%ADD12R,1.150000X1.200000*%
%ADD13R,1.900000X2.900000*%
%ADD14R,1.540000X2.430000*%
%ADD15C,4.895800*%
%ADD16C,4.210000*%
%ADD17R,1.924000X1.924000*%
%ADD18C,1.924000*%
%ADD19C,1.700000*%
%ADD20R,2.700000X1.250000*%
%ADD21R,0.900000X1.300000*%
%ADD22R,1.700000X2.000000*%
%ADD23R,2.400000X2.000000*%
%ADD24R,2.000000X1.700000*%
%ADD25R,2.000000X2.400000*%
%ADD26R,0.750000X1.050000*%
%ADD27R,1.200000X1.400000*%
%ADD28R,1.000000X1.950000*%
%ADD29R,1.575000X1.575000*%
%ADD30R,1.400000X2.000000*%
%ADD31R,0.850000X1.850000*%
%ADD32C,1.900000*%
%ADD33R,3.400000X2.000000*%
%ADD34R,1.250000X2.700000*%
%ADD35R,1.300000X1.200000*%
%ADD36R,1.150000X0.800000*%
%ADD37R,5.080000X10.160000*%
%ADD38R,1.400000X3.600000*%
%ADD39R,1.530000X2.840000*%
%ADD40R,1.687500X1.975000*%
%ADD41R,1.100000X0.650000*%
%ADD42R,0.650000X1.100000*%
%ADD43R,1.850000X0.850000*%
%ADD44R,1.900000X2.300000*%
%ADD45R,1.900000X2.600000*%
%ADD46R,3.460000X6.500000*%
%ADD47R,1.200100X1.200100*%
%ADD48R,1.230000X1.030000*%
%ADD49R,0.850000X1.900000*%
%ADD50C,1.000000*%
%ADD51C,1.200000*%
%ADD52C,0.200000*%
G04 APERTURE END LIST*
D10*
X90900000Y-221250000D03*
X90900000Y-222750000D03*
X93700000Y-223550000D03*
X93700000Y-222050000D03*
D11*
X56250000Y-228600000D03*
X57750000Y-228600000D03*
D12*
X26550000Y-210600000D03*
X26550000Y-209100000D03*
D11*
X56250000Y-230350000D03*
X57750000Y-230350000D03*
D12*
X278250000Y-219500000D03*
X278250000Y-221000000D03*
D11*
X56250000Y-232100000D03*
X57750000Y-232100000D03*
D12*
X177000000Y-138500000D03*
X177000000Y-137000000D03*
D11*
X56250000Y-233850000D03*
X57750000Y-233850000D03*
D12*
X131750000Y-167750000D03*
X131750000Y-166250000D03*
D11*
X249350000Y-169250000D03*
X250850000Y-169250000D03*
D13*
X108250000Y-219125000D03*
X108250000Y-227375000D03*
X104750000Y-219125000D03*
X104750000Y-227375000D03*
X242250000Y-218375000D03*
X242250000Y-226625000D03*
X238750000Y-218375000D03*
X238750000Y-226625000D03*
X254250000Y-218375000D03*
X254250000Y-226625000D03*
X250750000Y-218375000D03*
X250750000Y-226625000D03*
D14*
X298996040Y-208500000D03*
X296596040Y-208500000D03*
X312700000Y-230750000D03*
X310300000Y-230750000D03*
D15*
X7280000Y-79566000D03*
X352720000Y-79566000D03*
X7120000Y-243650000D03*
X352720000Y-243650000D03*
D16*
X156474600Y-244230000D03*
X203515400Y-244230000D03*
D17*
X196606600Y-242807600D03*
D18*
X193838000Y-242807600D03*
X191069400Y-242807600D03*
X188300800Y-242807600D03*
X185532200Y-242807600D03*
X182763600Y-242807600D03*
X179995000Y-242807600D03*
X177226400Y-242807600D03*
X174457800Y-242807600D03*
X171689200Y-242807600D03*
X168920600Y-242807600D03*
X166152000Y-242807600D03*
X163383400Y-242807600D03*
X195222300Y-245652400D03*
X192453700Y-245652400D03*
X189685100Y-245652400D03*
X186916500Y-245652400D03*
X184147900Y-245652400D03*
X181379300Y-245652400D03*
X178610700Y-245652400D03*
X175842100Y-245652400D03*
X173073500Y-245652400D03*
X170304900Y-245652400D03*
X167536300Y-245652400D03*
X164767700Y-245652400D03*
D19*
X110250000Y-63500000D03*
X107710000Y-60960000D03*
X112790000Y-60960000D03*
X112790000Y-66040000D03*
X107710000Y-66040000D03*
X72000000Y-63500000D03*
X69460000Y-60960000D03*
X74540000Y-60960000D03*
X74540000Y-66040000D03*
X69460000Y-66040000D03*
X87250000Y-63500000D03*
X84710000Y-60960000D03*
X89790000Y-60960000D03*
X89790000Y-66040000D03*
X84710000Y-66040000D03*
X125500000Y-63500000D03*
X122960000Y-60960000D03*
X128040000Y-60960000D03*
X128040000Y-66040000D03*
X122960000Y-66040000D03*
X148250000Y-63500000D03*
X145710000Y-60960000D03*
X150790000Y-60960000D03*
X150790000Y-66040000D03*
X145710000Y-66040000D03*
X163500000Y-63500000D03*
X160960000Y-60960000D03*
X166040000Y-60960000D03*
X166040000Y-66040000D03*
X160960000Y-66040000D03*
X211750000Y-63500000D03*
X209210000Y-60960000D03*
X214290000Y-60960000D03*
X214290000Y-66040000D03*
X209210000Y-66040000D03*
X234500000Y-63500000D03*
X231960000Y-60960000D03*
X237040000Y-60960000D03*
X237040000Y-66040000D03*
X231960000Y-66040000D03*
X249750000Y-63500000D03*
X247210000Y-60960000D03*
X252290000Y-60960000D03*
X252290000Y-66040000D03*
X247210000Y-66040000D03*
X272750000Y-63500000D03*
X270210000Y-60960000D03*
X275290000Y-60960000D03*
X275290000Y-66040000D03*
X270210000Y-66040000D03*
X288000000Y-63500000D03*
X285460000Y-60960000D03*
X290540000Y-60960000D03*
X290540000Y-66040000D03*
X285460000Y-66040000D03*
X310750000Y-63500000D03*
X308210000Y-60960000D03*
X313290000Y-60960000D03*
X313290000Y-66040000D03*
X308210000Y-66040000D03*
X326000000Y-63500000D03*
X323460000Y-60960000D03*
X328540000Y-60960000D03*
X328540000Y-66040000D03*
X323460000Y-66040000D03*
X196500000Y-63500000D03*
X193960000Y-60960000D03*
X199040000Y-60960000D03*
X199040000Y-66040000D03*
X193960000Y-66040000D03*
X34000000Y-63500000D03*
X31460000Y-60960000D03*
X36540000Y-60960000D03*
X36540000Y-66040000D03*
X31460000Y-66040000D03*
X49250000Y-63500000D03*
X46710000Y-60960000D03*
X51790000Y-60960000D03*
X51790000Y-66040000D03*
X46710000Y-66040000D03*
D20*
X11000000Y-95100000D03*
X11000000Y-93900000D03*
X15000000Y-104600000D03*
X15000000Y-103400000D03*
X58000000Y-103400000D03*
X58000000Y-104600000D03*
X54000000Y-93900000D03*
X54000000Y-95100000D03*
X101000000Y-103400000D03*
X101000000Y-104600000D03*
X97000000Y-93900000D03*
X97000000Y-95100000D03*
X144000000Y-103400000D03*
X144000000Y-104600000D03*
X140000000Y-93900000D03*
X140000000Y-95100000D03*
X187000000Y-103400000D03*
X187000000Y-104600000D03*
X183000000Y-93900000D03*
X183000000Y-95100000D03*
X230000000Y-103400000D03*
X230000000Y-104600000D03*
X226000000Y-93900000D03*
X226000000Y-95100000D03*
X273000000Y-103400000D03*
X273000000Y-104600000D03*
X269000000Y-93900000D03*
X269000000Y-95100000D03*
X312000000Y-93900000D03*
X312000000Y-95100000D03*
X316000000Y-103400000D03*
X316000000Y-104600000D03*
X336750000Y-102150000D03*
X336750000Y-103350000D03*
X333000000Y-93900000D03*
X333000000Y-95100000D03*
X32000000Y-93900000D03*
X32000000Y-95100000D03*
X35750000Y-103350000D03*
X35750000Y-102150000D03*
X78750000Y-103350000D03*
X78750000Y-102150000D03*
X75000000Y-93900000D03*
X75000000Y-95100000D03*
X204000000Y-93900000D03*
X204000000Y-95100000D03*
X164750000Y-103350000D03*
X164750000Y-102150000D03*
X161000000Y-93900000D03*
X161000000Y-95100000D03*
X207750000Y-103350000D03*
X207750000Y-102150000D03*
X290000000Y-93900000D03*
X290000000Y-95100000D03*
X293750000Y-103350000D03*
X293750000Y-102150000D03*
X250750000Y-103350000D03*
X250750000Y-102150000D03*
X247000000Y-95100000D03*
X247000000Y-93900000D03*
X118000000Y-93900000D03*
X118000000Y-95100000D03*
X121750000Y-103350000D03*
X121750000Y-102150000D03*
D11*
X34300000Y-169250000D03*
X35800000Y-169250000D03*
D12*
X67250000Y-86500000D03*
X67250000Y-88000000D03*
D11*
X64500000Y-95750000D03*
X63000000Y-95750000D03*
X61250000Y-133750000D03*
X59750000Y-133750000D03*
D12*
X51500000Y-100250000D03*
X51500000Y-98750000D03*
D11*
X63000000Y-100250000D03*
X61500000Y-100250000D03*
D12*
X72250000Y-98750000D03*
X72250000Y-100250000D03*
X75500000Y-103750000D03*
X75500000Y-105250000D03*
D11*
X81750000Y-95750000D03*
X83250000Y-95750000D03*
X83250000Y-118750000D03*
X81750000Y-118750000D03*
X83250000Y-138250000D03*
X81750000Y-138250000D03*
X81750000Y-135250000D03*
X83250000Y-135250000D03*
X20000000Y-100250000D03*
X18500000Y-100250000D03*
D12*
X8500000Y-100250000D03*
X8500000Y-98750000D03*
D11*
X18250000Y-133750000D03*
X16750000Y-133750000D03*
X23500000Y-163750000D03*
X25000000Y-163750000D03*
X255250000Y-138250000D03*
X253750000Y-138250000D03*
X255250000Y-118750000D03*
X253750000Y-118750000D03*
X253750000Y-95750000D03*
X255250000Y-95750000D03*
D12*
X247500000Y-103750000D03*
X247500000Y-105250000D03*
D11*
X255250000Y-100250000D03*
X256750000Y-100250000D03*
X301250000Y-115750000D03*
X299750000Y-115750000D03*
X296750000Y-135250000D03*
X298250000Y-135250000D03*
X298250000Y-138250000D03*
X296750000Y-138250000D03*
X35000000Y-162500000D03*
X36500000Y-162500000D03*
D12*
X287250000Y-98750000D03*
X287250000Y-100250000D03*
D11*
X276250000Y-133750000D03*
X274750000Y-133750000D03*
X279500000Y-95750000D03*
X278000000Y-95750000D03*
D12*
X282250000Y-86500000D03*
X282250000Y-88000000D03*
D11*
X298250000Y-118750000D03*
X296750000Y-118750000D03*
D12*
X290500000Y-103750000D03*
X290500000Y-105250000D03*
D11*
X296750000Y-95750000D03*
X298250000Y-95750000D03*
X126250000Y-138250000D03*
X124750000Y-138250000D03*
X129250000Y-115750000D03*
X127750000Y-115750000D03*
X126250000Y-100250000D03*
X127750000Y-100250000D03*
X121000000Y-162500000D03*
X122500000Y-162500000D03*
X109500000Y-163750000D03*
X111000000Y-163750000D03*
X149000000Y-100250000D03*
X147500000Y-100250000D03*
X124750000Y-135250000D03*
X126250000Y-135250000D03*
X83250000Y-100250000D03*
X84750000Y-100250000D03*
D12*
X110250000Y-86500000D03*
X110250000Y-88000000D03*
D11*
X78000000Y-162500000D03*
X79500000Y-162500000D03*
X107500000Y-95750000D03*
X106000000Y-95750000D03*
X104250000Y-133750000D03*
X102750000Y-133750000D03*
X86250000Y-115750000D03*
X84750000Y-115750000D03*
D12*
X94500000Y-100250000D03*
X94500000Y-98750000D03*
D11*
X106000000Y-100250000D03*
X104500000Y-100250000D03*
X66500000Y-163750000D03*
X68000000Y-163750000D03*
D12*
X137500000Y-100250000D03*
X137500000Y-98750000D03*
D11*
X21500000Y-95750000D03*
X20000000Y-95750000D03*
D12*
X24250000Y-86500000D03*
X24250000Y-88000000D03*
X29250000Y-98750000D03*
X29250000Y-100250000D03*
X32500000Y-103750000D03*
X32500000Y-105250000D03*
D11*
X38750000Y-95750000D03*
X40250000Y-95750000D03*
X40250000Y-118750000D03*
X38750000Y-118750000D03*
X126250000Y-118750000D03*
X124750000Y-118750000D03*
X124750000Y-95750000D03*
X126250000Y-95750000D03*
D12*
X118500000Y-103750000D03*
X118500000Y-105250000D03*
X115250000Y-98750000D03*
X115250000Y-100250000D03*
D11*
X40250000Y-138250000D03*
X38750000Y-138250000D03*
X40250000Y-100250000D03*
X41750000Y-100250000D03*
X43250000Y-115750000D03*
X41750000Y-115750000D03*
X38750000Y-135250000D03*
X40250000Y-135250000D03*
D12*
X223500000Y-100250000D03*
X223500000Y-98750000D03*
D11*
X167750000Y-135250000D03*
X169250000Y-135250000D03*
X169250000Y-138250000D03*
X167750000Y-138250000D03*
X169250000Y-118750000D03*
X167750000Y-118750000D03*
X167750000Y-95750000D03*
X169250000Y-95750000D03*
D12*
X161500000Y-103750000D03*
X161500000Y-105250000D03*
X158250000Y-98750000D03*
X158250000Y-100250000D03*
D11*
X190250000Y-133750000D03*
X188750000Y-133750000D03*
X193500000Y-95750000D03*
X192000000Y-95750000D03*
D12*
X196250000Y-86500000D03*
X196250000Y-88000000D03*
X244250000Y-98750000D03*
X244250000Y-100250000D03*
D11*
X147250000Y-133750000D03*
X145750000Y-133750000D03*
X150500000Y-95750000D03*
X149000000Y-95750000D03*
D12*
X153250000Y-86500000D03*
X153250000Y-88000000D03*
D11*
X210750000Y-135250000D03*
X212250000Y-135250000D03*
X212250000Y-138250000D03*
X210750000Y-138250000D03*
X212250000Y-118750000D03*
X210750000Y-118750000D03*
X210750000Y-95750000D03*
X212250000Y-95750000D03*
D12*
X204500000Y-103750000D03*
X204500000Y-105250000D03*
X201250000Y-98750000D03*
X201250000Y-100250000D03*
D11*
X215250000Y-115750000D03*
X213750000Y-115750000D03*
X212250000Y-100250000D03*
X213750000Y-100250000D03*
X195500000Y-163750000D03*
X197000000Y-163750000D03*
D12*
X239250000Y-86500000D03*
X239250000Y-88000000D03*
D11*
X207000000Y-162500000D03*
X208500000Y-162500000D03*
X233250000Y-133750000D03*
X231750000Y-133750000D03*
X236500000Y-95750000D03*
X235000000Y-95750000D03*
X235000000Y-100250000D03*
X233500000Y-100250000D03*
X324500000Y-163750000D03*
X326000000Y-163750000D03*
X336000000Y-162500000D03*
X337500000Y-162500000D03*
D12*
X330250000Y-98750000D03*
X330250000Y-100250000D03*
D11*
X344250000Y-115750000D03*
X342750000Y-115750000D03*
X339750000Y-135250000D03*
X341250000Y-135250000D03*
X341250000Y-138250000D03*
X339750000Y-138250000D03*
X341250000Y-118750000D03*
X339750000Y-118750000D03*
X339750000Y-95750000D03*
X341250000Y-95750000D03*
D12*
X333500000Y-103750000D03*
X333500000Y-105250000D03*
D11*
X341250000Y-100250000D03*
X342750000Y-100250000D03*
D12*
X266500000Y-100250000D03*
X266500000Y-98750000D03*
D11*
X278000000Y-100250000D03*
X276500000Y-100250000D03*
X238500000Y-163750000D03*
X240000000Y-163750000D03*
X250000000Y-162500000D03*
X251500000Y-162500000D03*
X298250000Y-100250000D03*
X299750000Y-100250000D03*
X172250000Y-115750000D03*
X170750000Y-115750000D03*
X169250000Y-100250000D03*
X170750000Y-100250000D03*
X164000000Y-162500000D03*
X165500000Y-162500000D03*
X152500000Y-163750000D03*
X154000000Y-163750000D03*
X192000000Y-100250000D03*
X190500000Y-100250000D03*
X258250000Y-115750000D03*
X256750000Y-115750000D03*
D12*
X180500000Y-100250000D03*
X180500000Y-98750000D03*
D11*
X319250000Y-133750000D03*
X317750000Y-133750000D03*
X293000000Y-162500000D03*
X294500000Y-162500000D03*
X281500000Y-163750000D03*
X283000000Y-163750000D03*
X321000000Y-100250000D03*
X319500000Y-100250000D03*
D12*
X309500000Y-100250000D03*
X309500000Y-98750000D03*
D11*
X253750000Y-135250000D03*
X255250000Y-135250000D03*
X322500000Y-95750000D03*
X321000000Y-95750000D03*
D12*
X325250000Y-86500000D03*
X325250000Y-88000000D03*
D11*
X274750000Y-94250000D03*
X276250000Y-94250000D03*
D12*
X282250000Y-125750000D03*
X282250000Y-127250000D03*
D11*
X293750000Y-139750000D03*
X295250000Y-139750000D03*
X298250000Y-120250000D03*
X299750000Y-120250000D03*
X273250000Y-140250000D03*
X274750000Y-140250000D03*
D12*
X269500000Y-105250000D03*
X269500000Y-103750000D03*
D11*
X58250000Y-140250000D03*
X59750000Y-140250000D03*
X59750000Y-94250000D03*
X61250000Y-94250000D03*
D12*
X304250000Y-127250000D03*
X304250000Y-125750000D03*
X347250000Y-107750000D03*
X347250000Y-106250000D03*
D11*
X258250000Y-95750000D03*
X256750000Y-95750000D03*
D12*
X261250000Y-88000000D03*
X261250000Y-86500000D03*
D11*
X253750000Y-115750000D03*
X255250000Y-115750000D03*
D12*
X261250000Y-107750000D03*
X261250000Y-106250000D03*
D11*
X301250000Y-95750000D03*
X299750000Y-95750000D03*
D12*
X89250000Y-127250000D03*
X89250000Y-125750000D03*
D11*
X250750000Y-139750000D03*
X252250000Y-139750000D03*
D12*
X132250000Y-127250000D03*
X132250000Y-125750000D03*
X239250000Y-125750000D03*
X239250000Y-127250000D03*
D11*
X255250000Y-120250000D03*
X256750000Y-120250000D03*
D12*
X304250000Y-88000000D03*
X304250000Y-86500000D03*
D11*
X296750000Y-115750000D03*
X298250000Y-115750000D03*
D12*
X304250000Y-107750000D03*
X304250000Y-106250000D03*
X261250000Y-127250000D03*
X261250000Y-125750000D03*
X110250000Y-125750000D03*
X110250000Y-127250000D03*
D11*
X102750000Y-94250000D03*
X104250000Y-94250000D03*
D12*
X97500000Y-105250000D03*
X97500000Y-103750000D03*
D11*
X101250000Y-140250000D03*
X102750000Y-140250000D03*
X341250000Y-120250000D03*
X342750000Y-120250000D03*
X77350000Y-169250000D03*
X78850000Y-169250000D03*
X86250000Y-95750000D03*
X84750000Y-95750000D03*
X83250000Y-120250000D03*
X84750000Y-120250000D03*
X121750000Y-139750000D03*
X123250000Y-139750000D03*
D12*
X89250000Y-88000000D03*
X89250000Y-86500000D03*
D11*
X81750000Y-115750000D03*
X83250000Y-115750000D03*
D12*
X89250000Y-107750000D03*
X89250000Y-106250000D03*
X67250000Y-125750000D03*
X67250000Y-127250000D03*
D11*
X78750000Y-139750000D03*
X80250000Y-139750000D03*
D12*
X54500000Y-105250000D03*
X54500000Y-103750000D03*
X153250000Y-125750000D03*
X153250000Y-127250000D03*
D11*
X145750000Y-94250000D03*
X147250000Y-94250000D03*
D12*
X140500000Y-105250000D03*
X140500000Y-103750000D03*
D11*
X144250000Y-140250000D03*
X145750000Y-140250000D03*
X120350000Y-169250000D03*
X121850000Y-169250000D03*
D12*
X226500000Y-105250000D03*
X226500000Y-103750000D03*
D11*
X129250000Y-95750000D03*
X127750000Y-95750000D03*
D12*
X132250000Y-88000000D03*
X132250000Y-86500000D03*
D11*
X124750000Y-115750000D03*
X126250000Y-115750000D03*
D12*
X132250000Y-107750000D03*
X132250000Y-106250000D03*
D11*
X126250000Y-120250000D03*
X127750000Y-120250000D03*
X163350000Y-169250000D03*
X164850000Y-169250000D03*
X187250000Y-140250000D03*
X188750000Y-140250000D03*
D12*
X183500000Y-105250000D03*
X183500000Y-103750000D03*
D11*
X188750000Y-94250000D03*
X190250000Y-94250000D03*
D12*
X196250000Y-125750000D03*
X196250000Y-127250000D03*
D11*
X231750000Y-94250000D03*
X233250000Y-94250000D03*
X215250000Y-95750000D03*
X213750000Y-95750000D03*
X207750000Y-139750000D03*
X209250000Y-139750000D03*
D12*
X218250000Y-127250000D03*
X218250000Y-125750000D03*
D11*
X206350000Y-169250000D03*
X207850000Y-169250000D03*
X212250000Y-120250000D03*
X213750000Y-120250000D03*
D12*
X218250000Y-107750000D03*
X218250000Y-106250000D03*
D11*
X210750000Y-115750000D03*
X212250000Y-115750000D03*
D12*
X218250000Y-88000000D03*
X218250000Y-86500000D03*
D11*
X230250000Y-140250000D03*
X231750000Y-140250000D03*
X292350000Y-169250000D03*
X293850000Y-169250000D03*
D12*
X312500000Y-105250000D03*
X312500000Y-103750000D03*
D11*
X316250000Y-140250000D03*
X317750000Y-140250000D03*
X335350000Y-169250000D03*
X336850000Y-169250000D03*
D12*
X347250000Y-127250000D03*
X347250000Y-125750000D03*
D11*
X344250000Y-95750000D03*
X342750000Y-95750000D03*
D12*
X347250000Y-88000000D03*
X347250000Y-86500000D03*
D11*
X339750000Y-115750000D03*
X341250000Y-115750000D03*
X172250000Y-95750000D03*
X170750000Y-95750000D03*
D12*
X175250000Y-88000000D03*
X175250000Y-86500000D03*
X175250000Y-107750000D03*
X175250000Y-106250000D03*
D11*
X169250000Y-120250000D03*
X170750000Y-120250000D03*
D12*
X175250000Y-127250000D03*
X175250000Y-125750000D03*
D11*
X164750000Y-139750000D03*
X166250000Y-139750000D03*
X317750000Y-94250000D03*
X319250000Y-94250000D03*
D12*
X325250000Y-125750000D03*
X325250000Y-127250000D03*
D11*
X336750000Y-139750000D03*
X338250000Y-139750000D03*
X167750000Y-115750000D03*
X169250000Y-115750000D03*
D12*
X24250000Y-125750000D03*
X24250000Y-127250000D03*
D11*
X46000000Y-212250000D03*
X44500000Y-212250000D03*
D12*
X41000000Y-214000000D03*
X41000000Y-212500000D03*
X49500000Y-214750000D03*
X49500000Y-213250000D03*
X46250000Y-107750000D03*
X46250000Y-106250000D03*
D11*
X43250000Y-95750000D03*
X41750000Y-95750000D03*
X38750000Y-115750000D03*
X40250000Y-115750000D03*
D12*
X46250000Y-88000000D03*
X46250000Y-86500000D03*
X11500000Y-105250000D03*
X11500000Y-103750000D03*
D11*
X16750000Y-94250000D03*
X18250000Y-94250000D03*
X164500000Y-235550000D03*
X166000000Y-235550000D03*
X40250000Y-120250000D03*
X41750000Y-120250000D03*
X35750000Y-139750000D03*
X37250000Y-139750000D03*
D12*
X46250000Y-127250000D03*
X46250000Y-125750000D03*
D11*
X15250000Y-140250000D03*
X16750000Y-140250000D03*
X168750000Y-235550000D03*
X170250000Y-235550000D03*
X172750000Y-235550000D03*
X174250000Y-235550000D03*
X177000000Y-235550000D03*
X178500000Y-235550000D03*
X181000000Y-235550000D03*
X182500000Y-235550000D03*
X185250000Y-235550000D03*
X186750000Y-235550000D03*
X189500000Y-235550000D03*
X191000000Y-235550000D03*
X193750000Y-235550000D03*
X195250000Y-235550000D03*
D12*
X44250000Y-221250000D03*
X44250000Y-222750000D03*
X19500000Y-225450000D03*
X19500000Y-223950000D03*
D10*
X151750000Y-88000000D03*
X151750000Y-86500000D03*
D21*
X125000000Y-100250000D03*
X123500000Y-100250000D03*
D10*
X127750000Y-98750000D03*
X127750000Y-97250000D03*
X127750000Y-118750000D03*
X127750000Y-117250000D03*
D21*
X122500000Y-163999999D03*
X121000000Y-163999999D03*
X147250000Y-98750000D03*
X145750000Y-98750000D03*
X168000000Y-100250000D03*
X166500000Y-100250000D03*
X119750000Y-164000000D03*
X118250000Y-164000000D03*
X111000000Y-165250000D03*
X109500000Y-165250000D03*
X108250000Y-163750000D03*
X106750000Y-163750000D03*
X108250000Y-165250000D03*
X106750000Y-165250000D03*
X119750000Y-162500000D03*
X118250000Y-162500000D03*
D10*
X84750000Y-98750000D03*
X84750000Y-97250000D03*
X84750000Y-118750000D03*
X84750000Y-117250000D03*
X170750000Y-98750000D03*
X170750000Y-97250000D03*
X170750000Y-118750000D03*
X170750000Y-117250000D03*
D21*
X165500000Y-163999999D03*
X164000000Y-163999999D03*
X162750000Y-162500000D03*
X161250000Y-162500000D03*
X162750000Y-164000000D03*
X161250000Y-164000000D03*
X151250000Y-163750000D03*
X149750000Y-163750000D03*
X151250000Y-165250000D03*
X149750000Y-165250000D03*
D10*
X148750000Y-124750000D03*
X148750000Y-123250000D03*
D21*
X154000000Y-165250000D03*
X152500000Y-165250000D03*
X18250000Y-98750000D03*
X16750000Y-98750000D03*
D10*
X22750000Y-88000000D03*
X22750000Y-86500000D03*
X19750000Y-124750000D03*
X19750000Y-123250000D03*
D21*
X39000000Y-100250000D03*
X37500000Y-100250000D03*
X22250000Y-165250000D03*
X20750000Y-165250000D03*
D10*
X41750000Y-118750000D03*
X41750000Y-117250000D03*
D21*
X36500000Y-163999999D03*
X35000000Y-163999999D03*
X33750000Y-162500000D03*
X32250000Y-162500000D03*
X33750000Y-164000000D03*
X32250000Y-164000000D03*
X25000000Y-165250000D03*
X23500000Y-165250000D03*
X22250000Y-163750000D03*
X20750000Y-163750000D03*
D10*
X41750000Y-98750000D03*
X41750000Y-97250000D03*
X237750000Y-88000000D03*
X237750000Y-86500000D03*
X191750000Y-124750000D03*
X191750000Y-123250000D03*
X194750000Y-88000000D03*
X194750000Y-86500000D03*
D21*
X190250000Y-98750000D03*
X188750000Y-98750000D03*
X194250000Y-165250000D03*
X192750000Y-165250000D03*
X194250000Y-163750000D03*
X192750000Y-163750000D03*
X197000000Y-165250000D03*
X195500000Y-165250000D03*
X205750000Y-164000000D03*
X204250000Y-164000000D03*
X205750000Y-162500000D03*
X204250000Y-162500000D03*
X208500000Y-164000000D03*
X207000000Y-164000000D03*
X233250000Y-98750000D03*
X231750000Y-98750000D03*
D10*
X213750000Y-118750000D03*
X213750000Y-117250000D03*
X213750000Y-98750000D03*
X213750000Y-97250000D03*
D21*
X211000000Y-100250000D03*
X209500000Y-100250000D03*
X334750000Y-162500000D03*
X333250000Y-162500000D03*
X326000000Y-165250000D03*
X324500000Y-165250000D03*
X323250000Y-163750000D03*
X321750000Y-163750000D03*
X323250000Y-165250000D03*
X321750000Y-165250000D03*
X276250000Y-98750000D03*
X274750000Y-98750000D03*
X237250000Y-165250000D03*
X235750000Y-165250000D03*
D10*
X280750000Y-88000000D03*
X280750000Y-86500000D03*
D21*
X337500000Y-163999999D03*
X336000000Y-163999999D03*
X334750000Y-164000000D03*
X333250000Y-164000000D03*
D10*
X342750000Y-98750000D03*
X342750000Y-97250000D03*
X342750000Y-118750000D03*
X342750000Y-117250000D03*
X299750000Y-98750000D03*
X299750000Y-97250000D03*
D21*
X297000000Y-100250000D03*
X295500000Y-100250000D03*
D10*
X277750000Y-124750000D03*
X277750000Y-123250000D03*
D21*
X254000000Y-100250000D03*
X252500000Y-100250000D03*
D10*
X256750000Y-118750000D03*
X256750000Y-117250000D03*
D21*
X251500000Y-163999999D03*
X250000000Y-163999999D03*
X248750000Y-162500000D03*
X247250000Y-162500000D03*
X248750000Y-164000000D03*
X247250000Y-164000000D03*
X240000000Y-165250000D03*
X238500000Y-165250000D03*
X237250000Y-163750000D03*
X235750000Y-163750000D03*
D10*
X256750000Y-98750000D03*
X256750000Y-97250000D03*
D21*
X79500000Y-163999999D03*
X78000000Y-163999999D03*
X76750000Y-162500000D03*
X75250000Y-162500000D03*
X76750000Y-164000000D03*
X75250000Y-164000000D03*
X68000000Y-165250000D03*
X66500000Y-165250000D03*
X65250000Y-165250000D03*
X63750000Y-165250000D03*
D10*
X323750000Y-88000000D03*
X323750000Y-86500000D03*
D21*
X65250000Y-163750000D03*
X63750000Y-163750000D03*
X82000000Y-100250000D03*
X80500000Y-100250000D03*
D10*
X65750000Y-88000000D03*
X65750000Y-86500000D03*
X62750000Y-124750000D03*
X62750000Y-123250000D03*
X234750000Y-124750000D03*
X234750000Y-123250000D03*
X108750000Y-88000000D03*
X108750000Y-86500000D03*
X105750000Y-124750000D03*
X105750000Y-123250000D03*
D21*
X104250000Y-98750000D03*
X102750000Y-98750000D03*
X294500000Y-163999999D03*
X293000000Y-163999999D03*
X291750000Y-162500000D03*
X290250000Y-162500000D03*
X291750000Y-164000000D03*
X290250000Y-164000000D03*
X283000000Y-165250000D03*
X281500000Y-165250000D03*
X280250000Y-165250000D03*
X278750000Y-165250000D03*
X319250000Y-98750000D03*
X317750000Y-98750000D03*
X61250000Y-98750000D03*
X59750000Y-98750000D03*
D10*
X320750000Y-124750000D03*
X320750000Y-123250000D03*
X299750000Y-118750000D03*
X299750000Y-117250000D03*
D21*
X280250000Y-163750000D03*
X278750000Y-163750000D03*
X340000000Y-100250000D03*
X338500000Y-100250000D03*
X172250000Y-101750000D03*
X170750000Y-101750000D03*
X167750000Y-97250000D03*
X169250000Y-97250000D03*
X169250000Y-94250000D03*
X167750000Y-94250000D03*
D10*
X173500000Y-86500000D03*
X173500000Y-88000000D03*
X173750000Y-106250000D03*
X173750000Y-107750000D03*
D21*
X169250000Y-114250000D03*
X167750000Y-114250000D03*
X190250000Y-95750000D03*
X188750000Y-95750000D03*
X212250000Y-94250000D03*
X210750000Y-94250000D03*
X210750000Y-97250000D03*
X212250000Y-97250000D03*
X215250000Y-101750000D03*
X213750000Y-101750000D03*
X163750000Y-176750000D03*
X165250000Y-176750000D03*
D10*
X216500000Y-86500000D03*
X216500000Y-88000000D03*
D21*
X61250000Y-138500000D03*
X59750000Y-138500000D03*
D10*
X128000000Y-135250000D03*
X128000000Y-133750000D03*
D21*
X193500000Y-101750000D03*
X192000000Y-101750000D03*
D10*
X192000000Y-98750000D03*
X192000000Y-97250000D03*
D21*
X188750000Y-97250000D03*
X190250000Y-97250000D03*
D10*
X194750000Y-127250000D03*
X194750000Y-125750000D03*
D21*
X190250000Y-135250000D03*
X188750000Y-135250000D03*
X190250000Y-138500000D03*
X188750000Y-138500000D03*
D10*
X191750000Y-135250000D03*
X191750000Y-133750000D03*
X182000000Y-103750000D03*
X182000000Y-105250000D03*
D21*
X191500000Y-148000000D03*
X190000000Y-148000000D03*
X186000000Y-148000000D03*
X187500000Y-148000000D03*
X190250000Y-136750000D03*
X188750000Y-136750000D03*
X189000000Y-100250000D03*
X187500000Y-100250000D03*
X212250000Y-114250000D03*
X210750000Y-114250000D03*
D10*
X127750000Y-104750000D03*
X127750000Y-103250000D03*
D21*
X126250000Y-114250000D03*
X124750000Y-114250000D03*
D10*
X130750000Y-106250000D03*
X130750000Y-107750000D03*
D21*
X129250000Y-101750000D03*
X127750000Y-101750000D03*
X124750000Y-97250000D03*
X126250000Y-97250000D03*
X126250000Y-94250000D03*
X124750000Y-94250000D03*
D10*
X130500000Y-86500000D03*
X130500000Y-88000000D03*
D21*
X126250000Y-117250000D03*
X124750000Y-117250000D03*
X118250000Y-144500000D03*
X119750000Y-144500000D03*
D10*
X105750000Y-85000000D03*
X105750000Y-83500000D03*
D21*
X231750000Y-97250000D03*
X233250000Y-97250000D03*
D10*
X216750000Y-106250000D03*
X216750000Y-107750000D03*
X203000000Y-103750000D03*
X203000000Y-105250000D03*
X213750000Y-104750000D03*
X213750000Y-103250000D03*
D21*
X212250000Y-117250000D03*
X210750000Y-117250000D03*
X212250000Y-98750000D03*
X210750000Y-98750000D03*
X215250000Y-121750000D03*
X213750000Y-121750000D03*
D10*
X213750000Y-124750000D03*
X213750000Y-123250000D03*
X216750000Y-127250000D03*
X216750000Y-125750000D03*
D21*
X212250000Y-133750000D03*
X210750000Y-133750000D03*
X210750000Y-136750000D03*
X212250000Y-136750000D03*
X210750000Y-139750000D03*
X212250000Y-139750000D03*
D10*
X214000000Y-135250000D03*
X214000000Y-133750000D03*
D21*
X204250000Y-142000000D03*
X205750000Y-142000000D03*
X204250000Y-144500000D03*
X205750000Y-144500000D03*
D10*
X191750000Y-85000000D03*
X191750000Y-83500000D03*
X170750000Y-104750000D03*
X170750000Y-103250000D03*
D21*
X75250000Y-144500000D03*
X76750000Y-144500000D03*
X75250000Y-142000000D03*
X76750000Y-142000000D03*
D10*
X108750000Y-127250000D03*
X108750000Y-125750000D03*
D21*
X100000000Y-148000000D03*
X101500000Y-148000000D03*
X105500000Y-148000000D03*
X104000000Y-148000000D03*
D10*
X96000000Y-103750000D03*
X96000000Y-105250000D03*
X105750000Y-135250000D03*
X105750000Y-133750000D03*
D21*
X104250000Y-138500000D03*
X102750000Y-138500000D03*
X103000000Y-100250000D03*
X101500000Y-100250000D03*
X104250000Y-135250000D03*
X102750000Y-135250000D03*
X118250000Y-142000000D03*
X119750000Y-142000000D03*
D10*
X87500000Y-86500000D03*
X87500000Y-88000000D03*
D21*
X83250000Y-94250000D03*
X81750000Y-94250000D03*
X81750000Y-97250000D03*
X83250000Y-97250000D03*
X104250000Y-136750000D03*
X102750000Y-136750000D03*
X104250000Y-95750000D03*
X102750000Y-95750000D03*
X107500000Y-101750000D03*
X106000000Y-101750000D03*
D10*
X106000000Y-98750000D03*
X106000000Y-97250000D03*
D21*
X102750000Y-97250000D03*
X104250000Y-97250000D03*
X86250000Y-101750000D03*
X84750000Y-101750000D03*
X120750000Y-177250000D03*
X122250000Y-177250000D03*
X81750000Y-139750000D03*
X83250000Y-139750000D03*
X81750000Y-136750000D03*
X83250000Y-136750000D03*
X83250000Y-117250000D03*
X81750000Y-117250000D03*
D10*
X74000000Y-103750000D03*
X74000000Y-105250000D03*
D21*
X83250000Y-133750000D03*
X81750000Y-133750000D03*
D10*
X87750000Y-127250000D03*
X87750000Y-125750000D03*
X84750000Y-124750000D03*
X84750000Y-123250000D03*
D21*
X86250000Y-121750000D03*
X84750000Y-121750000D03*
X83250000Y-98750000D03*
X81750000Y-98750000D03*
D10*
X84750000Y-104750000D03*
X84750000Y-103250000D03*
D21*
X83250000Y-114250000D03*
X81750000Y-114250000D03*
D10*
X62750000Y-85000000D03*
X62750000Y-83500000D03*
X85000000Y-135250000D03*
X85000000Y-133750000D03*
D21*
X61250000Y-95750000D03*
X59750000Y-95750000D03*
X60000000Y-100250000D03*
X58500000Y-100250000D03*
X64500000Y-101750000D03*
X63000000Y-101750000D03*
D10*
X63000000Y-98750000D03*
X63000000Y-97250000D03*
D21*
X59750000Y-97250000D03*
X61250000Y-97250000D03*
X61250000Y-136750000D03*
X59750000Y-136750000D03*
D10*
X65750000Y-127250000D03*
X65750000Y-125750000D03*
D21*
X61250000Y-135250000D03*
X59750000Y-135250000D03*
D10*
X62750000Y-135250000D03*
X62750000Y-133750000D03*
X53000000Y-103750000D03*
X53000000Y-105250000D03*
D21*
X62500000Y-148000000D03*
X61000000Y-148000000D03*
X57000000Y-148000000D03*
X58500000Y-148000000D03*
D10*
X87750000Y-106250000D03*
X87750000Y-107750000D03*
D21*
X77750000Y-178000000D03*
X79250000Y-178000000D03*
X229000000Y-148000000D03*
X230500000Y-148000000D03*
X234500000Y-148000000D03*
X233000000Y-148000000D03*
D10*
X225000000Y-103750000D03*
X225000000Y-105250000D03*
D21*
X335750000Y-175000000D03*
X337250000Y-175000000D03*
X255250000Y-94250000D03*
X253750000Y-94250000D03*
D10*
X256750000Y-124750000D03*
X256750000Y-123250000D03*
D21*
X258250000Y-121750000D03*
X256750000Y-121750000D03*
D10*
X259500000Y-86500000D03*
X259500000Y-88000000D03*
X259750000Y-127250000D03*
X259750000Y-125750000D03*
D21*
X255250000Y-98750000D03*
X253750000Y-98750000D03*
X253750000Y-97250000D03*
X255250000Y-97250000D03*
X258250000Y-101750000D03*
X256750000Y-101750000D03*
D10*
X259750000Y-106250000D03*
X259750000Y-107750000D03*
D21*
X255250000Y-114250000D03*
X253750000Y-114250000D03*
D10*
X256750000Y-104750000D03*
X256750000Y-103250000D03*
D21*
X255250000Y-117250000D03*
X253750000Y-117250000D03*
X341250000Y-94250000D03*
X339750000Y-94250000D03*
X341250000Y-133750000D03*
X339750000Y-133750000D03*
D10*
X345500000Y-86500000D03*
X345500000Y-88000000D03*
D21*
X233250000Y-138500000D03*
X231750000Y-138500000D03*
X339750000Y-97250000D03*
X341250000Y-97250000D03*
D10*
X345750000Y-127250000D03*
X345750000Y-125750000D03*
X345750000Y-106250000D03*
X345750000Y-107750000D03*
D21*
X341250000Y-114250000D03*
X339750000Y-114250000D03*
D10*
X342750000Y-104750000D03*
X342750000Y-103250000D03*
D21*
X341250000Y-117250000D03*
X339750000Y-117250000D03*
X341250000Y-98750000D03*
X339750000Y-98750000D03*
X344250000Y-121750000D03*
X342750000Y-121750000D03*
D10*
X342750000Y-124750000D03*
X342750000Y-123250000D03*
D21*
X344250000Y-101750000D03*
X342750000Y-101750000D03*
X276250000Y-136750000D03*
X274750000Y-136750000D03*
X274750000Y-97250000D03*
X276250000Y-97250000D03*
D10*
X278000000Y-98750000D03*
X278000000Y-97250000D03*
D21*
X279500000Y-101750000D03*
X278000000Y-101750000D03*
D10*
X289000000Y-103750000D03*
X289000000Y-105250000D03*
D21*
X296750000Y-139750000D03*
X298250000Y-139750000D03*
D10*
X300000000Y-135250000D03*
X300000000Y-133750000D03*
D21*
X276250000Y-95750000D03*
X274750000Y-95750000D03*
X290250000Y-142000000D03*
X291750000Y-142000000D03*
X277500000Y-148000000D03*
X276000000Y-148000000D03*
X276250000Y-138500000D03*
X274750000Y-138500000D03*
X272000000Y-148000000D03*
X273500000Y-148000000D03*
X275000000Y-100250000D03*
X273500000Y-100250000D03*
D10*
X268000000Y-103750000D03*
X268000000Y-105250000D03*
X277750000Y-135250000D03*
X277750000Y-133750000D03*
D21*
X290250000Y-144500000D03*
X291750000Y-144500000D03*
D10*
X280750000Y-127250000D03*
X280750000Y-125750000D03*
X277750000Y-85000000D03*
X277750000Y-83500000D03*
D21*
X276250000Y-135250000D03*
X274750000Y-135250000D03*
X249750000Y-174750000D03*
X251250000Y-174750000D03*
D10*
X234750000Y-135250000D03*
X234750000Y-133750000D03*
D21*
X232000000Y-100250000D03*
X230500000Y-100250000D03*
X233250000Y-135250000D03*
X231750000Y-135250000D03*
D10*
X237750000Y-127250000D03*
X237750000Y-125750000D03*
D21*
X233250000Y-136750000D03*
X231750000Y-136750000D03*
D10*
X235000000Y-98750000D03*
X235000000Y-97250000D03*
D21*
X236500000Y-101750000D03*
X235000000Y-101750000D03*
X255250000Y-133750000D03*
X253750000Y-133750000D03*
D10*
X246000000Y-103750000D03*
X246000000Y-105250000D03*
D21*
X253750000Y-136750000D03*
X255250000Y-136750000D03*
X253750000Y-139750000D03*
X255250000Y-139750000D03*
D10*
X257000000Y-135250000D03*
X257000000Y-133750000D03*
D21*
X247250000Y-142000000D03*
X248750000Y-142000000D03*
X247250000Y-144500000D03*
X248750000Y-144500000D03*
D10*
X234750000Y-85000000D03*
X234750000Y-83500000D03*
D21*
X296750000Y-136750000D03*
X298250000Y-136750000D03*
X233250000Y-95750000D03*
X231750000Y-95750000D03*
X143000000Y-148000000D03*
X144500000Y-148000000D03*
X148500000Y-148000000D03*
X147000000Y-148000000D03*
D10*
X139000000Y-103750000D03*
X139000000Y-105250000D03*
X148750000Y-135250000D03*
X148750000Y-133750000D03*
D21*
X147250000Y-138500000D03*
X145750000Y-138500000D03*
X146000000Y-100250000D03*
X144500000Y-100250000D03*
X147250000Y-135250000D03*
X145750000Y-135250000D03*
X147250000Y-136750000D03*
X145750000Y-136750000D03*
X145750000Y-97250000D03*
X147250000Y-97250000D03*
D10*
X149000000Y-98750000D03*
X149000000Y-97250000D03*
D21*
X150500000Y-101750000D03*
X149000000Y-101750000D03*
X322500000Y-101750000D03*
X321000000Y-101750000D03*
D10*
X321000000Y-98750000D03*
X321000000Y-97250000D03*
D21*
X317750000Y-97250000D03*
X319250000Y-97250000D03*
X319250000Y-136750000D03*
X317750000Y-136750000D03*
D10*
X323750000Y-127250000D03*
X323750000Y-125750000D03*
D21*
X319250000Y-135250000D03*
X317750000Y-135250000D03*
X319250000Y-138500000D03*
X317750000Y-138500000D03*
D10*
X320750000Y-135250000D03*
X320750000Y-133750000D03*
X311000000Y-103750000D03*
X311000000Y-105250000D03*
D21*
X320500000Y-148000000D03*
X319000000Y-148000000D03*
X315000000Y-148000000D03*
X316500000Y-148000000D03*
X319250000Y-95750000D03*
X317750000Y-95750000D03*
X147250000Y-95750000D03*
X145750000Y-95750000D03*
X318000000Y-100250000D03*
X316500000Y-100250000D03*
X124750000Y-136750000D03*
X126250000Y-136750000D03*
D10*
X117000000Y-103750000D03*
X117000000Y-105250000D03*
D21*
X126250000Y-133750000D03*
X124750000Y-133750000D03*
D10*
X130750000Y-127250000D03*
X130750000Y-125750000D03*
X127750000Y-124750000D03*
X127750000Y-123250000D03*
D21*
X129250000Y-121750000D03*
X127750000Y-121750000D03*
X126250000Y-98750000D03*
X124750000Y-98750000D03*
X167750000Y-139750000D03*
X169250000Y-139750000D03*
D10*
X148750000Y-85000000D03*
X148750000Y-83500000D03*
X151750000Y-127250000D03*
X151750000Y-125750000D03*
D21*
X169250000Y-117250000D03*
X167750000Y-117250000D03*
X169250000Y-98750000D03*
X167750000Y-98750000D03*
X172250000Y-121750000D03*
X170750000Y-121750000D03*
D10*
X170750000Y-124750000D03*
X170750000Y-123250000D03*
D21*
X169250000Y-133750000D03*
X167750000Y-133750000D03*
D10*
X160000000Y-103750000D03*
X160000000Y-105250000D03*
D21*
X167750000Y-136750000D03*
X169250000Y-136750000D03*
D10*
X171000000Y-135250000D03*
X171000000Y-133750000D03*
D21*
X161250000Y-142000000D03*
X162750000Y-142000000D03*
X161250000Y-144500000D03*
X162750000Y-144500000D03*
D10*
X173750000Y-127250000D03*
X173750000Y-125750000D03*
X332000000Y-103750000D03*
X332000000Y-105250000D03*
X302500000Y-86500000D03*
X302500000Y-88000000D03*
D21*
X292750000Y-175000000D03*
X294250000Y-175000000D03*
X124750000Y-139750000D03*
X126250000Y-139750000D03*
X339750000Y-139750000D03*
X341250000Y-139750000D03*
D10*
X343000000Y-135250000D03*
X343000000Y-133750000D03*
D21*
X333250000Y-142000000D03*
X334750000Y-142000000D03*
X333250000Y-144500000D03*
X334750000Y-144500000D03*
X206750000Y-176250000D03*
X208250000Y-176250000D03*
X339750000Y-136750000D03*
X341250000Y-136750000D03*
D10*
X320750000Y-85000000D03*
X320750000Y-83500000D03*
D21*
X301250000Y-101750000D03*
X299750000Y-101750000D03*
D10*
X302750000Y-106250000D03*
X302750000Y-107750000D03*
D21*
X298250000Y-114250000D03*
X296750000Y-114250000D03*
D10*
X299750000Y-104750000D03*
X299750000Y-103250000D03*
D21*
X298250000Y-117250000D03*
X296750000Y-117250000D03*
X298250000Y-98750000D03*
X296750000Y-98750000D03*
X301250000Y-121750000D03*
X299750000Y-121750000D03*
D10*
X299750000Y-124750000D03*
X299750000Y-123250000D03*
X302750000Y-127250000D03*
X302750000Y-125750000D03*
D21*
X298250000Y-133750000D03*
X296750000Y-133750000D03*
X296750000Y-97250000D03*
X298250000Y-97250000D03*
X298250000Y-94250000D03*
X296750000Y-94250000D03*
X182500000Y-238750000D03*
X181000000Y-238750000D03*
X186750000Y-238750000D03*
X185250000Y-238750000D03*
D10*
X213750000Y-85000000D03*
X213750000Y-83500000D03*
X84750000Y-85000000D03*
X84750000Y-83500000D03*
D21*
X178500000Y-238750000D03*
X177000000Y-238750000D03*
D10*
X41750000Y-85000000D03*
X41750000Y-83500000D03*
D21*
X170250000Y-238750000D03*
X168750000Y-238750000D03*
X174250000Y-238750000D03*
X172750000Y-238750000D03*
X166000000Y-238750000D03*
X164500000Y-238750000D03*
D10*
X256750000Y-85000000D03*
X256750000Y-83500000D03*
X342750000Y-85000000D03*
X342750000Y-83500000D03*
D21*
X191000000Y-238750000D03*
X189500000Y-238750000D03*
D10*
X127750000Y-85000000D03*
X127750000Y-83500000D03*
X170750000Y-85000000D03*
X170750000Y-83500000D03*
D21*
X195250000Y-238750000D03*
X193750000Y-238750000D03*
D10*
X299750000Y-85000000D03*
X299750000Y-83500000D03*
X10000000Y-103750000D03*
X10000000Y-105250000D03*
X186330000Y-179958480D03*
X186330000Y-181458480D03*
X182830000Y-181458480D03*
X182830000Y-179958480D03*
X184530000Y-179958480D03*
X184530000Y-181458480D03*
X188130000Y-179958480D03*
X188130000Y-181458480D03*
D21*
X17000000Y-100250000D03*
X15500000Y-100250000D03*
D10*
X22750000Y-127250000D03*
X22750000Y-125750000D03*
X41000000Y-209500000D03*
X41000000Y-211000000D03*
X290500000Y-205000000D03*
X290500000Y-206500000D03*
X297250000Y-227500000D03*
X297250000Y-229000000D03*
D21*
X252010004Y-204663477D03*
X253510004Y-204663477D03*
D10*
X307750000Y-227500000D03*
X307750000Y-229000000D03*
X319750000Y-212750000D03*
X319750000Y-211250000D03*
X315250000Y-217750000D03*
X315250000Y-219250000D03*
D21*
X60750000Y-240000000D03*
X59250000Y-240000000D03*
X60750000Y-238250000D03*
X59250000Y-238250000D03*
X60750000Y-236500000D03*
X59250000Y-236500000D03*
X266750000Y-224000000D03*
X268250000Y-224000000D03*
D10*
X287000000Y-205000000D03*
X287000000Y-206500000D03*
X49500000Y-210250000D03*
X49500000Y-211750000D03*
X165000000Y-210000000D03*
X165000000Y-208500000D03*
X169250000Y-210000000D03*
X169250000Y-208500000D03*
X173250000Y-210000000D03*
X173250000Y-208500000D03*
X177500000Y-210000000D03*
X177500000Y-208500000D03*
X181500000Y-210000000D03*
X181500000Y-208500000D03*
X185750000Y-210000000D03*
X185750000Y-208500000D03*
D21*
X59250000Y-229500000D03*
X60750000Y-229500000D03*
X59250000Y-231250000D03*
X60750000Y-231250000D03*
X59250000Y-233000000D03*
X60750000Y-233000000D03*
X60750000Y-234750000D03*
X59250000Y-234750000D03*
D10*
X194250000Y-210000000D03*
X194250000Y-208500000D03*
D21*
X59250000Y-227750000D03*
X60750000Y-227750000D03*
D10*
X190000000Y-210000000D03*
X190000000Y-208500000D03*
D21*
X43250000Y-121750000D03*
X41750000Y-121750000D03*
D10*
X44750000Y-106250000D03*
X44750000Y-107750000D03*
X44500000Y-86500000D03*
X44500000Y-88000000D03*
D21*
X40250000Y-117250000D03*
X38750000Y-117250000D03*
D10*
X44750000Y-127250000D03*
X44750000Y-125750000D03*
X42000000Y-135250000D03*
X42000000Y-133750000D03*
D21*
X40250000Y-98750000D03*
X38750000Y-98750000D03*
D10*
X41750000Y-124750000D03*
X41750000Y-123250000D03*
X31000000Y-103750000D03*
X31000000Y-105250000D03*
D21*
X43250000Y-101750000D03*
X41750000Y-101750000D03*
X38750000Y-139750000D03*
X40250000Y-139750000D03*
X32250000Y-142000000D03*
X33750000Y-142000000D03*
X32250000Y-144500000D03*
X33750000Y-144500000D03*
D10*
X19750000Y-85000000D03*
X19750000Y-83500000D03*
X41750000Y-104750000D03*
X41750000Y-103250000D03*
X19750000Y-135250000D03*
X19750000Y-133750000D03*
X20000000Y-98750000D03*
X20000000Y-97250000D03*
D21*
X38750000Y-136750000D03*
X40250000Y-136750000D03*
X38750000Y-97250000D03*
X40250000Y-97250000D03*
X40250000Y-133750000D03*
X38750000Y-133750000D03*
X40250000Y-114250000D03*
X38750000Y-114250000D03*
X40250000Y-94250000D03*
X38750000Y-94250000D03*
X18250000Y-135250000D03*
X16750000Y-135250000D03*
X14000000Y-148000000D03*
X15500000Y-148000000D03*
X163200000Y-227150000D03*
X164700000Y-227150000D03*
X163050000Y-229950000D03*
X164550000Y-229950000D03*
X19500000Y-148000000D03*
X18000000Y-148000000D03*
X18250000Y-138500000D03*
X16750000Y-138500000D03*
X18250000Y-136750000D03*
X16750000Y-136750000D03*
X18250000Y-95750000D03*
X16750000Y-95750000D03*
X16750000Y-97250000D03*
X18250000Y-97250000D03*
X21500000Y-101750000D03*
X20000000Y-101750000D03*
X167250000Y-229950000D03*
X168750000Y-229950000D03*
X167458895Y-227150000D03*
X168958895Y-227150000D03*
X171250000Y-229950000D03*
X172750000Y-229950000D03*
X171450000Y-227150000D03*
X172950000Y-227150000D03*
X175550000Y-229950000D03*
X177050000Y-229950000D03*
X175550000Y-227150000D03*
X177050000Y-227150000D03*
X179550000Y-229950000D03*
X181050000Y-229950000D03*
X179550000Y-227250000D03*
X181050000Y-227250000D03*
X183750000Y-229950000D03*
X185250000Y-229950000D03*
X183950000Y-227200000D03*
X185450000Y-227200000D03*
X188050000Y-229950000D03*
X189550000Y-229950000D03*
X188200000Y-227150000D03*
X189700000Y-227150000D03*
X192350000Y-229950000D03*
X193850000Y-229950000D03*
X192550000Y-227150000D03*
X194050000Y-227150000D03*
X34750000Y-178500000D03*
X36250000Y-178500000D03*
D10*
X27200000Y-229550000D03*
X27200000Y-231050000D03*
X27200000Y-226650000D03*
X27200000Y-228150000D03*
X27200000Y-225350000D03*
X27200000Y-223850000D03*
D22*
X144500000Y-145700000D03*
D23*
X145750000Y-142800000D03*
D22*
X147000000Y-145700000D03*
X233000000Y-145700000D03*
D23*
X231750000Y-142800000D03*
D22*
X230500000Y-145700000D03*
X316500000Y-145700000D03*
D23*
X317750000Y-142800000D03*
D22*
X319000000Y-145700000D03*
X273500000Y-145700000D03*
D23*
X274750000Y-142800000D03*
D22*
X276000000Y-145700000D03*
X190000000Y-145700000D03*
D23*
X188750000Y-142800000D03*
D22*
X187500000Y-145700000D03*
X15500000Y-145700000D03*
D23*
X16750000Y-142800000D03*
D22*
X18000000Y-145700000D03*
X61000000Y-145700000D03*
D23*
X59750000Y-142800000D03*
D22*
X58500000Y-145700000D03*
X104000000Y-145700000D03*
D23*
X102750000Y-142800000D03*
D22*
X101500000Y-145700000D03*
D24*
X121800000Y-142000000D03*
D25*
X124700000Y-143250000D03*
D24*
X121800000Y-144500000D03*
X164800000Y-144500000D03*
D25*
X167700000Y-143250000D03*
D24*
X164800000Y-142000000D03*
X207800000Y-142000000D03*
D25*
X210700000Y-143250000D03*
D24*
X207800000Y-144500000D03*
X78800000Y-144500000D03*
D25*
X81700000Y-143250000D03*
D24*
X78800000Y-142000000D03*
X35800000Y-142000000D03*
D25*
X38700000Y-143250000D03*
D24*
X35800000Y-144500000D03*
X250800000Y-144500000D03*
D25*
X253700000Y-143250000D03*
D24*
X250800000Y-142000000D03*
X293800000Y-142000000D03*
D25*
X296700000Y-143250000D03*
D24*
X293800000Y-144500000D03*
X336800000Y-144500000D03*
D25*
X339700000Y-143250000D03*
D24*
X336800000Y-142000000D03*
D26*
X36400000Y-165700000D03*
X35750000Y-165700000D03*
X35100000Y-165700000D03*
X35100000Y-167800000D03*
X35750000Y-167800000D03*
X36400000Y-167800000D03*
D27*
X35350000Y-166750000D03*
X36150000Y-166750000D03*
X122150000Y-166750000D03*
X121350000Y-166750000D03*
D26*
X122400000Y-167800000D03*
X121750000Y-167800000D03*
X121100000Y-167800000D03*
X121100000Y-165700000D03*
X121750000Y-165700000D03*
X122400000Y-165700000D03*
D27*
X337150000Y-166750000D03*
X336350000Y-166750000D03*
D26*
X337400000Y-167800000D03*
X336750000Y-167800000D03*
X336100000Y-167800000D03*
X336100000Y-165700000D03*
X336750000Y-165700000D03*
X337400000Y-165700000D03*
X165400000Y-165700000D03*
X164750000Y-165700000D03*
X164100000Y-165700000D03*
X164100000Y-167800000D03*
X164750000Y-167800000D03*
X165400000Y-167800000D03*
D27*
X164350000Y-166750000D03*
X165150000Y-166750000D03*
X79150000Y-166750000D03*
X78350000Y-166750000D03*
D26*
X79400000Y-167800000D03*
X78750000Y-167800000D03*
X78100000Y-167800000D03*
X78100000Y-165700000D03*
X78750000Y-165700000D03*
X79400000Y-165700000D03*
D27*
X294150000Y-166750000D03*
X293350000Y-166750000D03*
D26*
X294400000Y-167800000D03*
X293750000Y-167800000D03*
X293100000Y-167800000D03*
X293100000Y-165700000D03*
X293750000Y-165700000D03*
X294400000Y-165700000D03*
X208400000Y-165700000D03*
X207750000Y-165700000D03*
X207100000Y-165700000D03*
X207100000Y-167800000D03*
X207750000Y-167800000D03*
X208400000Y-167800000D03*
D27*
X207350000Y-166750000D03*
X208150000Y-166750000D03*
X251150000Y-166750000D03*
X250350000Y-166750000D03*
D26*
X251400000Y-167800000D03*
X250750000Y-167800000D03*
X250100000Y-167800000D03*
X250100000Y-165700000D03*
X250750000Y-165700000D03*
X251400000Y-165700000D03*
X197150000Y-166950000D03*
X196500000Y-166950000D03*
X195850000Y-166950000D03*
X195850000Y-169050000D03*
X196500000Y-169050000D03*
X197150000Y-169050000D03*
D27*
X196100000Y-168000000D03*
X196900000Y-168000000D03*
X67900000Y-168000000D03*
X67100000Y-168000000D03*
D26*
X68150000Y-169050000D03*
X67500000Y-169050000D03*
X66850000Y-169050000D03*
X66850000Y-166950000D03*
X67500000Y-166950000D03*
X68150000Y-166950000D03*
X111150000Y-166950000D03*
X110500000Y-166950000D03*
X109850000Y-166950000D03*
X109850000Y-169050000D03*
X110500000Y-169050000D03*
X111150000Y-169050000D03*
D27*
X110100000Y-168000000D03*
X110900000Y-168000000D03*
X239900000Y-168000000D03*
X239100000Y-168000000D03*
D26*
X240150000Y-169050000D03*
X239500000Y-169050000D03*
X238850000Y-169050000D03*
X238850000Y-166950000D03*
X239500000Y-166950000D03*
X240150000Y-166950000D03*
X154150000Y-166950000D03*
X153500000Y-166950000D03*
X152850000Y-166950000D03*
X152850000Y-169050000D03*
X153500000Y-169050000D03*
X154150000Y-169050000D03*
D27*
X153100000Y-168000000D03*
X153900000Y-168000000D03*
X282900000Y-168000000D03*
X282100000Y-168000000D03*
D26*
X283150000Y-169050000D03*
X282500000Y-169050000D03*
X281850000Y-169050000D03*
X281850000Y-166950000D03*
X282500000Y-166950000D03*
X283150000Y-166950000D03*
X326150000Y-166950000D03*
X325500000Y-166950000D03*
X324850000Y-166950000D03*
X324850000Y-169050000D03*
X325500000Y-169050000D03*
X326150000Y-169050000D03*
D27*
X325100000Y-168000000D03*
X325900000Y-168000000D03*
X24900000Y-168000000D03*
X24100000Y-168000000D03*
D26*
X25150000Y-169050000D03*
X24500000Y-169050000D03*
X23850000Y-169050000D03*
X23850000Y-166950000D03*
X24500000Y-166950000D03*
X25150000Y-166950000D03*
D28*
X38945000Y-92450000D03*
X40215000Y-92450000D03*
X41485000Y-92450000D03*
X42755000Y-92450000D03*
X42755000Y-87050000D03*
X41485000Y-87050000D03*
X40215000Y-87050000D03*
X38945000Y-87050000D03*
D29*
X41437500Y-89162500D03*
X40262500Y-89162500D03*
X41437500Y-90337500D03*
X40262500Y-90337500D03*
D30*
X197600000Y-171200000D03*
X194600000Y-171200000D03*
X22500000Y-171250000D03*
X25500000Y-171250000D03*
X166000000Y-160500000D03*
X169000000Y-160500000D03*
X40000000Y-160500000D03*
X37000000Y-160500000D03*
X154600000Y-171200000D03*
X151600000Y-171200000D03*
X33750000Y-171800000D03*
X36750000Y-171800000D03*
X165700000Y-171800000D03*
X162700000Y-171800000D03*
X237500000Y-161500000D03*
X240500000Y-161500000D03*
X251700000Y-171800000D03*
X248700000Y-171800000D03*
X212000000Y-160500000D03*
X209000000Y-160500000D03*
X252000000Y-160500000D03*
X255000000Y-160500000D03*
X65500000Y-161500000D03*
X68500000Y-161500000D03*
X240600000Y-171200000D03*
X237600000Y-171200000D03*
X291700000Y-171800000D03*
X294700000Y-171800000D03*
X208700000Y-171800000D03*
X205700000Y-171800000D03*
X194500000Y-161500000D03*
X197500000Y-161500000D03*
X25500000Y-161500000D03*
X22500000Y-161500000D03*
X108500000Y-161500000D03*
X111500000Y-161500000D03*
X80000000Y-160500000D03*
X83000000Y-160500000D03*
X270000000Y-224000000D03*
X273000000Y-224000000D03*
X295000000Y-160500000D03*
X298000000Y-160500000D03*
X65600000Y-171200000D03*
X68600000Y-171200000D03*
X283600000Y-171200000D03*
X280600000Y-171200000D03*
X323500000Y-161500000D03*
X326500000Y-161500000D03*
X326600000Y-171200000D03*
X323600000Y-171200000D03*
X76700000Y-171800000D03*
X79700000Y-171800000D03*
X338000000Y-160500000D03*
X341000000Y-160500000D03*
X334700000Y-171800000D03*
X337700000Y-171800000D03*
X283500000Y-161500000D03*
X280500000Y-161500000D03*
X126000000Y-160500000D03*
X123000000Y-160500000D03*
X258260004Y-204663478D03*
X255260004Y-204663478D03*
X108600000Y-171200000D03*
X111600000Y-171200000D03*
X122700000Y-171800000D03*
X119700000Y-171800000D03*
X151500000Y-161500000D03*
X154500000Y-161500000D03*
D31*
X117025000Y-97300000D03*
X117675000Y-97300000D03*
X118325000Y-97300000D03*
X118975000Y-97300000D03*
X118975000Y-101700000D03*
X118325000Y-101700000D03*
X117675000Y-101700000D03*
X117025000Y-101700000D03*
X332025000Y-101700000D03*
X332675000Y-101700000D03*
X333325000Y-101700000D03*
X333975000Y-101700000D03*
X333975000Y-97300000D03*
X333325000Y-97300000D03*
X332675000Y-97300000D03*
X332025000Y-97300000D03*
X74025000Y-97300000D03*
X74675000Y-97300000D03*
X75325000Y-97300000D03*
X75975000Y-97300000D03*
X75975000Y-101700000D03*
X75325000Y-101700000D03*
X74675000Y-101700000D03*
X74025000Y-101700000D03*
X96275000Y-97300000D03*
X96925000Y-97300000D03*
X97575000Y-97300000D03*
X98225000Y-97300000D03*
X98225000Y-101700000D03*
X97575000Y-101700000D03*
X96925000Y-101700000D03*
X96275000Y-101700000D03*
X289025000Y-97300000D03*
X289675000Y-97300000D03*
X290325000Y-97300000D03*
X290975000Y-97300000D03*
X290975000Y-101700000D03*
X290325000Y-101700000D03*
X289675000Y-101700000D03*
X289025000Y-101700000D03*
X268275000Y-101700000D03*
X268925000Y-101700000D03*
X269575000Y-101700000D03*
X270225000Y-101700000D03*
X270225000Y-97300000D03*
X269575000Y-97300000D03*
X268925000Y-97300000D03*
X268275000Y-97300000D03*
X53275000Y-97300000D03*
X53925000Y-97300000D03*
X54575000Y-97300000D03*
X55225000Y-97300000D03*
X55225000Y-101700000D03*
X54575000Y-101700000D03*
X53925000Y-101700000D03*
X53275000Y-101700000D03*
X31025000Y-101700000D03*
X31675000Y-101700000D03*
X32325000Y-101700000D03*
X32975000Y-101700000D03*
X32975000Y-97300000D03*
X32325000Y-97300000D03*
X31675000Y-97300000D03*
X31025000Y-97300000D03*
X160025000Y-97300000D03*
X160675000Y-97300000D03*
X161325000Y-97300000D03*
X161975000Y-97300000D03*
X161975000Y-101700000D03*
X161325000Y-101700000D03*
X160675000Y-101700000D03*
X160025000Y-101700000D03*
X225275000Y-101700000D03*
X225925000Y-101700000D03*
X226575000Y-101700000D03*
X227225000Y-101700000D03*
X227225000Y-97300000D03*
X226575000Y-97300000D03*
X225925000Y-97300000D03*
X225275000Y-97300000D03*
X311275000Y-97300000D03*
X311925000Y-97300000D03*
X312575000Y-97300000D03*
X313225000Y-97300000D03*
X313225000Y-101700000D03*
X312575000Y-101700000D03*
X311925000Y-101700000D03*
X311275000Y-101700000D03*
X246025000Y-101700000D03*
X246675000Y-101700000D03*
X247325000Y-101700000D03*
X247975000Y-101700000D03*
X247975000Y-97300000D03*
X247325000Y-97300000D03*
X246675000Y-97300000D03*
X246025000Y-97300000D03*
X10275000Y-101700000D03*
X10925000Y-101700000D03*
X11575000Y-101700000D03*
X12225000Y-101700000D03*
X12225000Y-97300000D03*
X11575000Y-97300000D03*
X10925000Y-97300000D03*
X10275000Y-97300000D03*
X139275000Y-97300000D03*
X139925000Y-97300000D03*
X140575000Y-97300000D03*
X141225000Y-97300000D03*
X141225000Y-101700000D03*
X140575000Y-101700000D03*
X139925000Y-101700000D03*
X139275000Y-101700000D03*
X182275000Y-101700000D03*
X182925000Y-101700000D03*
X183575000Y-101700000D03*
X184225000Y-101700000D03*
X184225000Y-97300000D03*
X183575000Y-97300000D03*
X182925000Y-97300000D03*
X182275000Y-97300000D03*
X203025000Y-97300000D03*
X203675000Y-97300000D03*
X204325000Y-97300000D03*
X204975000Y-97300000D03*
X204975000Y-101700000D03*
X204325000Y-101700000D03*
X203675000Y-101700000D03*
X203025000Y-101700000D03*
D32*
X309250000Y-96750000D03*
X94250000Y-96750000D03*
X180350000Y-96750000D03*
X329750000Y-96750000D03*
X28750000Y-96750000D03*
X286750000Y-96750000D03*
X51250000Y-96750000D03*
X8250000Y-96750000D03*
X200750000Y-96750000D03*
X137250000Y-96750000D03*
X266250000Y-96750000D03*
X71750000Y-96750000D03*
X243750000Y-96750000D03*
X157750000Y-96750000D03*
X114750000Y-96750000D03*
X223250000Y-96750000D03*
X233250000Y-120250000D03*
X276250000Y-120250000D03*
X319250000Y-120250000D03*
X18250000Y-120250000D03*
X190250000Y-120250000D03*
X61250000Y-120250000D03*
X147250000Y-120250000D03*
X104250000Y-120250000D03*
D33*
X276800000Y-151750000D03*
X281200000Y-151750000D03*
X238200000Y-151750000D03*
X233800000Y-151750000D03*
X247450000Y-151750000D03*
X243050000Y-151750000D03*
X109200000Y-151750000D03*
X104800000Y-151750000D03*
X118450000Y-151750000D03*
X114050000Y-151750000D03*
X324200000Y-151750000D03*
X319800000Y-151750000D03*
X333450000Y-151750000D03*
X329050000Y-151750000D03*
X195200000Y-151750000D03*
X190800000Y-151750000D03*
X204450000Y-151750000D03*
X200050000Y-151750000D03*
X157050000Y-151750000D03*
X161450000Y-151750000D03*
X147800000Y-151750000D03*
X152200000Y-151750000D03*
X66200000Y-151750000D03*
X61800000Y-151750000D03*
X75450000Y-151750000D03*
X71050000Y-151750000D03*
X286050000Y-151750000D03*
X290450000Y-151750000D03*
D29*
X298412500Y-110337500D03*
X299587500Y-110337500D03*
X298412500Y-109162500D03*
X299587500Y-109162500D03*
D28*
X297095000Y-107050000D03*
X298365000Y-107050000D03*
X299635000Y-107050000D03*
X300905000Y-107050000D03*
X300905000Y-112450000D03*
X299635000Y-112450000D03*
X298365000Y-112450000D03*
X297095000Y-112450000D03*
D29*
X276412500Y-90337500D03*
X277587500Y-90337500D03*
X276412500Y-89162500D03*
X277587500Y-89162500D03*
D28*
X275095000Y-87050000D03*
X276365000Y-87050000D03*
X277635000Y-87050000D03*
X278905000Y-87050000D03*
X278905000Y-92450000D03*
X277635000Y-92450000D03*
X276365000Y-92450000D03*
X275095000Y-92450000D03*
X275095000Y-131950000D03*
X276365000Y-131950000D03*
X277635000Y-131950000D03*
X278905000Y-131950000D03*
X278905000Y-126550000D03*
X277635000Y-126550000D03*
X276365000Y-126550000D03*
X275095000Y-126550000D03*
D29*
X277587500Y-128662500D03*
X276412500Y-128662500D03*
X277587500Y-129837500D03*
X276412500Y-129837500D03*
X169412500Y-110337500D03*
X170587500Y-110337500D03*
X169412500Y-109162500D03*
X170587500Y-109162500D03*
D28*
X168095000Y-107050000D03*
X169365000Y-107050000D03*
X170635000Y-107050000D03*
X171905000Y-107050000D03*
X171905000Y-112450000D03*
X170635000Y-112450000D03*
X169365000Y-112450000D03*
X168095000Y-112450000D03*
X167945000Y-92450000D03*
X169215000Y-92450000D03*
X170485000Y-92450000D03*
X171755000Y-92450000D03*
X171755000Y-87050000D03*
X170485000Y-87050000D03*
X169215000Y-87050000D03*
X167945000Y-87050000D03*
D29*
X170437500Y-89162500D03*
X169262500Y-89162500D03*
X170437500Y-90337500D03*
X169262500Y-90337500D03*
X255262500Y-90337500D03*
X256437500Y-90337500D03*
X255262500Y-89162500D03*
X256437500Y-89162500D03*
D28*
X253945000Y-87050000D03*
X255215000Y-87050000D03*
X256485000Y-87050000D03*
X257755000Y-87050000D03*
X257755000Y-92450000D03*
X256485000Y-92450000D03*
X255215000Y-92450000D03*
X253945000Y-92450000D03*
X254095000Y-112450000D03*
X255365000Y-112450000D03*
X256635000Y-112450000D03*
X257905000Y-112450000D03*
X257905000Y-107050000D03*
X256635000Y-107050000D03*
X255365000Y-107050000D03*
X254095000Y-107050000D03*
D29*
X256587500Y-109162500D03*
X255412500Y-109162500D03*
X256587500Y-110337500D03*
X255412500Y-110337500D03*
X298412500Y-129837500D03*
X299587500Y-129837500D03*
X298412500Y-128662500D03*
X299587500Y-128662500D03*
D28*
X297095000Y-126550000D03*
X298365000Y-126550000D03*
X299635000Y-126550000D03*
X300905000Y-126550000D03*
X300905000Y-131950000D03*
X299635000Y-131950000D03*
X298365000Y-131950000D03*
X297095000Y-131950000D03*
X296945000Y-92450000D03*
X298215000Y-92450000D03*
X299485000Y-92450000D03*
X300755000Y-92450000D03*
X300755000Y-87050000D03*
X299485000Y-87050000D03*
X298215000Y-87050000D03*
X296945000Y-87050000D03*
D29*
X299437500Y-89162500D03*
X298262500Y-89162500D03*
X299437500Y-90337500D03*
X298262500Y-90337500D03*
X319412500Y-129837500D03*
X320587500Y-129837500D03*
X319412500Y-128662500D03*
X320587500Y-128662500D03*
D28*
X318095000Y-126550000D03*
X319365000Y-126550000D03*
X320635000Y-126550000D03*
X321905000Y-126550000D03*
X321905000Y-131950000D03*
X320635000Y-131950000D03*
X319365000Y-131950000D03*
X318095000Y-131950000D03*
X318095000Y-92450000D03*
X319365000Y-92450000D03*
X320635000Y-92450000D03*
X321905000Y-92450000D03*
X321905000Y-87050000D03*
X320635000Y-87050000D03*
X319365000Y-87050000D03*
X318095000Y-87050000D03*
D29*
X320587500Y-89162500D03*
X319412500Y-89162500D03*
X320587500Y-90337500D03*
X319412500Y-90337500D03*
X341412500Y-129837500D03*
X342587500Y-129837500D03*
X341412500Y-128662500D03*
X342587500Y-128662500D03*
D28*
X340095000Y-126550000D03*
X341365000Y-126550000D03*
X342635000Y-126550000D03*
X343905000Y-126550000D03*
X343905000Y-131950000D03*
X342635000Y-131950000D03*
X341365000Y-131950000D03*
X340095000Y-131950000D03*
X340095000Y-112450000D03*
X341365000Y-112450000D03*
X342635000Y-112450000D03*
X343905000Y-112450000D03*
X343905000Y-107050000D03*
X342635000Y-107050000D03*
X341365000Y-107050000D03*
X340095000Y-107050000D03*
D29*
X342587500Y-109162500D03*
X341412500Y-109162500D03*
X342587500Y-110337500D03*
X341412500Y-110337500D03*
X341262500Y-90337500D03*
X342437500Y-90337500D03*
X341262500Y-89162500D03*
X342437500Y-89162500D03*
D28*
X339945000Y-87050000D03*
X341215000Y-87050000D03*
X342485000Y-87050000D03*
X343755000Y-87050000D03*
X343755000Y-92450000D03*
X342485000Y-92450000D03*
X341215000Y-92450000D03*
X339945000Y-92450000D03*
X168095000Y-131950000D03*
X169365000Y-131950000D03*
X170635000Y-131950000D03*
X171905000Y-131950000D03*
X171905000Y-126550000D03*
X170635000Y-126550000D03*
X169365000Y-126550000D03*
X168095000Y-126550000D03*
D29*
X170587500Y-128662500D03*
X169412500Y-128662500D03*
X170587500Y-129837500D03*
X169412500Y-129837500D03*
X147412500Y-90337500D03*
X148587500Y-90337500D03*
X147412500Y-89162500D03*
X148587500Y-89162500D03*
D28*
X146095000Y-87050000D03*
X147365000Y-87050000D03*
X148635000Y-87050000D03*
X149905000Y-87050000D03*
X149905000Y-92450000D03*
X148635000Y-92450000D03*
X147365000Y-92450000D03*
X146095000Y-92450000D03*
X146095000Y-131950000D03*
X147365000Y-131950000D03*
X148635000Y-131950000D03*
X149905000Y-131950000D03*
X149905000Y-126550000D03*
X148635000Y-126550000D03*
X147365000Y-126550000D03*
X146095000Y-126550000D03*
D29*
X148587500Y-128662500D03*
X147412500Y-128662500D03*
X148587500Y-129837500D03*
X147412500Y-129837500D03*
X233412500Y-90337500D03*
X234587500Y-90337500D03*
X233412500Y-89162500D03*
X234587500Y-89162500D03*
D28*
X232095000Y-87050000D03*
X233365000Y-87050000D03*
X234635000Y-87050000D03*
X235905000Y-87050000D03*
X235905000Y-92450000D03*
X234635000Y-92450000D03*
X233365000Y-92450000D03*
X232095000Y-92450000D03*
X254095000Y-131950000D03*
X255365000Y-131950000D03*
X256635000Y-131950000D03*
X257905000Y-131950000D03*
X257905000Y-126550000D03*
X256635000Y-126550000D03*
X255365000Y-126550000D03*
X254095000Y-126550000D03*
D29*
X256587500Y-128662500D03*
X255412500Y-128662500D03*
X256587500Y-129837500D03*
X255412500Y-129837500D03*
X83262500Y-90337500D03*
X84437500Y-90337500D03*
X83262500Y-89162500D03*
X84437500Y-89162500D03*
D28*
X81945000Y-87050000D03*
X83215000Y-87050000D03*
X84485000Y-87050000D03*
X85755000Y-87050000D03*
X85755000Y-92450000D03*
X84485000Y-92450000D03*
X83215000Y-92450000D03*
X81945000Y-92450000D03*
X124945000Y-92450000D03*
X126215000Y-92450000D03*
X127485000Y-92450000D03*
X128755000Y-92450000D03*
X128755000Y-87050000D03*
X127485000Y-87050000D03*
X126215000Y-87050000D03*
X124945000Y-87050000D03*
D29*
X127437500Y-89162500D03*
X126262500Y-89162500D03*
X127437500Y-90337500D03*
X126262500Y-90337500D03*
X126412500Y-110337500D03*
X127587500Y-110337500D03*
X126412500Y-109162500D03*
X127587500Y-109162500D03*
D28*
X125095000Y-107050000D03*
X126365000Y-107050000D03*
X127635000Y-107050000D03*
X128905000Y-107050000D03*
X128905000Y-112450000D03*
X127635000Y-112450000D03*
X126365000Y-112450000D03*
X125095000Y-112450000D03*
X125095000Y-131950000D03*
X126365000Y-131950000D03*
X127635000Y-131950000D03*
X128905000Y-131950000D03*
X128905000Y-126550000D03*
X127635000Y-126550000D03*
X126365000Y-126550000D03*
X125095000Y-126550000D03*
D29*
X127587500Y-128662500D03*
X126412500Y-128662500D03*
X127587500Y-129837500D03*
X126412500Y-129837500D03*
X61412500Y-129837500D03*
X62587500Y-129837500D03*
X61412500Y-128662500D03*
X62587500Y-128662500D03*
D28*
X60095000Y-126550000D03*
X61365000Y-126550000D03*
X62635000Y-126550000D03*
X63905000Y-126550000D03*
X63905000Y-131950000D03*
X62635000Y-131950000D03*
X61365000Y-131950000D03*
X60095000Y-131950000D03*
X103095000Y-92450000D03*
X104365000Y-92450000D03*
X105635000Y-92450000D03*
X106905000Y-92450000D03*
X106905000Y-87050000D03*
X105635000Y-87050000D03*
X104365000Y-87050000D03*
X103095000Y-87050000D03*
D29*
X105587500Y-89162500D03*
X104412500Y-89162500D03*
X105587500Y-90337500D03*
X104412500Y-90337500D03*
X104412500Y-129837500D03*
X105587500Y-129837500D03*
X104412500Y-128662500D03*
X105587500Y-128662500D03*
D28*
X103095000Y-126550000D03*
X104365000Y-126550000D03*
X105635000Y-126550000D03*
X106905000Y-126550000D03*
X106905000Y-131950000D03*
X105635000Y-131950000D03*
X104365000Y-131950000D03*
X103095000Y-131950000D03*
D29*
X83412500Y-129837500D03*
X84587500Y-129837500D03*
X83412500Y-128662500D03*
X84587500Y-128662500D03*
D28*
X82095000Y-126550000D03*
X83365000Y-126550000D03*
X84635000Y-126550000D03*
X85905000Y-126550000D03*
X85905000Y-131950000D03*
X84635000Y-131950000D03*
X83365000Y-131950000D03*
X82095000Y-131950000D03*
X82095000Y-112450000D03*
X83365000Y-112450000D03*
X84635000Y-112450000D03*
X85905000Y-112450000D03*
X85905000Y-107050000D03*
X84635000Y-107050000D03*
X83365000Y-107050000D03*
X82095000Y-107050000D03*
D29*
X84587500Y-109162500D03*
X83412500Y-109162500D03*
X84587500Y-110337500D03*
X83412500Y-110337500D03*
X61412500Y-90337500D03*
X62587500Y-90337500D03*
X61412500Y-89162500D03*
X62587500Y-89162500D03*
D28*
X60095000Y-87050000D03*
X61365000Y-87050000D03*
X62635000Y-87050000D03*
X63905000Y-87050000D03*
X63905000Y-92450000D03*
X62635000Y-92450000D03*
X61365000Y-92450000D03*
X60095000Y-92450000D03*
X189095000Y-92450000D03*
X190365000Y-92450000D03*
X191635000Y-92450000D03*
X192905000Y-92450000D03*
X192905000Y-87050000D03*
X191635000Y-87050000D03*
X190365000Y-87050000D03*
X189095000Y-87050000D03*
D29*
X191587500Y-89162500D03*
X190412500Y-89162500D03*
X191587500Y-90337500D03*
X190412500Y-90337500D03*
X212412500Y-129837500D03*
X213587500Y-129837500D03*
X212412500Y-128662500D03*
X213587500Y-128662500D03*
D28*
X211095000Y-126550000D03*
X212365000Y-126550000D03*
X213635000Y-126550000D03*
X214905000Y-126550000D03*
X214905000Y-131950000D03*
X213635000Y-131950000D03*
X212365000Y-131950000D03*
X211095000Y-131950000D03*
X211095000Y-112450000D03*
X212365000Y-112450000D03*
X213635000Y-112450000D03*
X214905000Y-112450000D03*
X214905000Y-107050000D03*
X213635000Y-107050000D03*
X212365000Y-107050000D03*
X211095000Y-107050000D03*
D29*
X213587500Y-109162500D03*
X212412500Y-109162500D03*
X213587500Y-110337500D03*
X212412500Y-110337500D03*
X212262500Y-90337500D03*
X213437500Y-90337500D03*
X212262500Y-89162500D03*
X213437500Y-89162500D03*
D28*
X210945000Y-87050000D03*
X212215000Y-87050000D03*
X213485000Y-87050000D03*
X214755000Y-87050000D03*
X214755000Y-92450000D03*
X213485000Y-92450000D03*
X212215000Y-92450000D03*
X210945000Y-92450000D03*
X189095000Y-131950000D03*
X190365000Y-131950000D03*
X191635000Y-131950000D03*
X192905000Y-131950000D03*
X192905000Y-126550000D03*
X191635000Y-126550000D03*
X190365000Y-126550000D03*
X189095000Y-126550000D03*
D29*
X191587500Y-128662500D03*
X190412500Y-128662500D03*
X191587500Y-129837500D03*
X190412500Y-129837500D03*
X233412500Y-129837500D03*
X234587500Y-129837500D03*
X233412500Y-128662500D03*
X234587500Y-128662500D03*
D28*
X232095000Y-126550000D03*
X233365000Y-126550000D03*
X234635000Y-126550000D03*
X235905000Y-126550000D03*
X235905000Y-131950000D03*
X234635000Y-131950000D03*
X233365000Y-131950000D03*
X232095000Y-131950000D03*
D34*
X325100000Y-132000000D03*
X323900000Y-132000000D03*
X218100000Y-132000000D03*
X216900000Y-132000000D03*
X216900000Y-112250000D03*
X218100000Y-112250000D03*
D20*
X211000000Y-124350000D03*
X211000000Y-123150000D03*
X211250000Y-83650000D03*
X211250000Y-84850000D03*
X318000000Y-124350000D03*
X318000000Y-123150000D03*
D34*
X216900000Y-92500000D03*
X218100000Y-92500000D03*
D20*
X318250000Y-83650000D03*
X318250000Y-84850000D03*
D34*
X325100000Y-92500000D03*
X323900000Y-92500000D03*
X196100000Y-92500000D03*
X194900000Y-92500000D03*
X175100000Y-132000000D03*
X173900000Y-132000000D03*
D20*
X189250000Y-84850000D03*
X189250000Y-83650000D03*
D34*
X196100000Y-132000000D03*
X194900000Y-132000000D03*
X65900000Y-132000000D03*
X67100000Y-132000000D03*
D20*
X189000000Y-124350000D03*
X189000000Y-123150000D03*
D34*
X302900000Y-92500000D03*
X304100000Y-92500000D03*
D20*
X297250000Y-84850000D03*
X297250000Y-83650000D03*
X340000000Y-123150000D03*
X340000000Y-124350000D03*
D34*
X347100000Y-132000000D03*
X345900000Y-132000000D03*
D20*
X340250000Y-104850000D03*
X340250000Y-103650000D03*
D34*
X345900000Y-112250000D03*
X347100000Y-112250000D03*
D20*
X297250000Y-104850000D03*
X297250000Y-103650000D03*
D34*
X173900000Y-92500000D03*
X175100000Y-92500000D03*
D20*
X340250000Y-84850000D03*
X340250000Y-83650000D03*
X168250000Y-83650000D03*
X168250000Y-84850000D03*
D34*
X175100000Y-112250000D03*
X173900000Y-112250000D03*
X345900000Y-92500000D03*
X347100000Y-92500000D03*
D20*
X168250000Y-104850000D03*
X168250000Y-103650000D03*
X60000000Y-123150000D03*
X60000000Y-124350000D03*
D34*
X304100000Y-112250000D03*
X302900000Y-112250000D03*
D20*
X82250000Y-83650000D03*
X82250000Y-84850000D03*
X60250000Y-84850000D03*
X60250000Y-83650000D03*
D34*
X67100000Y-92500000D03*
X65900000Y-92500000D03*
X237900000Y-132000000D03*
X239100000Y-132000000D03*
D20*
X168000000Y-123150000D03*
X168000000Y-124350000D03*
D34*
X304100000Y-132000000D03*
X302900000Y-132000000D03*
D20*
X82000000Y-123150000D03*
X82000000Y-124350000D03*
D34*
X89100000Y-132000000D03*
X87900000Y-132000000D03*
D20*
X82250000Y-103650000D03*
X82250000Y-104850000D03*
D34*
X132100000Y-112250000D03*
X130900000Y-112250000D03*
D20*
X232000000Y-123150000D03*
X232000000Y-124350000D03*
D34*
X89100000Y-92500000D03*
X87900000Y-92500000D03*
D20*
X232250000Y-83650000D03*
X232250000Y-84850000D03*
D34*
X237900000Y-92500000D03*
X239100000Y-92500000D03*
D20*
X297000000Y-123150000D03*
X297000000Y-124350000D03*
D34*
X151900000Y-92500000D03*
X153100000Y-92500000D03*
D20*
X146250000Y-83650000D03*
X146250000Y-84850000D03*
D34*
X151900000Y-132000000D03*
X153100000Y-132000000D03*
D20*
X275000000Y-123150000D03*
X275000000Y-124350000D03*
D34*
X89100000Y-112250000D03*
X87900000Y-112250000D03*
D20*
X103000000Y-123150000D03*
X103000000Y-124350000D03*
D34*
X108900000Y-132000000D03*
X110100000Y-132000000D03*
X259900000Y-92500000D03*
X261100000Y-92500000D03*
D20*
X103250000Y-84850000D03*
X103250000Y-83650000D03*
X146000000Y-123150000D03*
X146000000Y-124350000D03*
D34*
X108900000Y-92500000D03*
X110100000Y-92500000D03*
D20*
X254000000Y-123150000D03*
X254000000Y-124350000D03*
D34*
X261100000Y-132000000D03*
X259900000Y-132000000D03*
X282100000Y-92500000D03*
X280900000Y-92500000D03*
D20*
X254250000Y-104850000D03*
X254250000Y-103650000D03*
D34*
X282100000Y-132000000D03*
X280900000Y-132000000D03*
D20*
X275250000Y-84850000D03*
X275250000Y-83650000D03*
X254250000Y-83650000D03*
X254250000Y-84850000D03*
D34*
X132100000Y-92500000D03*
X130900000Y-92500000D03*
D20*
X125000000Y-123150000D03*
X125000000Y-124350000D03*
D34*
X132100000Y-132000000D03*
X130900000Y-132000000D03*
D20*
X211250000Y-103650000D03*
X211250000Y-104850000D03*
X125250000Y-104850000D03*
X125250000Y-103650000D03*
D34*
X259900000Y-112250000D03*
X261100000Y-112250000D03*
D20*
X125250000Y-84850000D03*
X125250000Y-83650000D03*
D32*
X194250000Y-156250000D03*
X208250000Y-158250000D03*
X323250000Y-156250000D03*
X337250000Y-158250000D03*
X151250000Y-156250000D03*
X165250000Y-158250000D03*
X280250000Y-156250000D03*
X294250000Y-158250000D03*
X108250000Y-156250000D03*
X65250000Y-156250000D03*
X237250000Y-156250000D03*
X79250000Y-158250000D03*
X251250000Y-158250000D03*
X122250000Y-158250000D03*
D35*
X157250000Y-156078000D03*
X157250000Y-157978000D03*
X159250000Y-157028000D03*
X288250000Y-157028000D03*
X286250000Y-157978000D03*
X286250000Y-156078000D03*
X329250000Y-156078000D03*
X329250000Y-157978000D03*
X331250000Y-157028000D03*
X245250000Y-157028000D03*
X243250000Y-157978000D03*
X243250000Y-156078000D03*
X200250000Y-156078000D03*
X200250000Y-157978000D03*
X202250000Y-157028000D03*
X116250000Y-157028000D03*
X114250000Y-157978000D03*
X114250000Y-156078000D03*
X73250000Y-157028000D03*
X71250000Y-157978000D03*
X71250000Y-156078000D03*
D36*
X175250000Y-137150000D03*
X175250000Y-138450000D03*
X173350000Y-137800000D03*
X173350000Y-138450000D03*
X173350000Y-137150000D03*
X130100000Y-166350000D03*
X130100000Y-167650000D03*
X128200000Y-167000000D03*
X128200000Y-167650000D03*
X128200000Y-166350000D03*
D37*
X104600000Y-235000000D03*
X108560000Y-235000000D03*
X112520000Y-235000000D03*
X116480000Y-235000000D03*
X120440000Y-235000000D03*
X124400000Y-235000000D03*
X236600000Y-235000000D03*
X240560000Y-235000000D03*
X244520000Y-235000000D03*
X248480000Y-235000000D03*
X252440000Y-235000000D03*
X256400000Y-235000000D03*
D33*
X32450000Y-151750000D03*
X28050000Y-151750000D03*
X18800000Y-151750000D03*
X23200000Y-151750000D03*
D36*
X281750000Y-220900000D03*
X281750000Y-219600000D03*
X281750000Y-220250000D03*
X279850000Y-219600000D03*
X279850000Y-220900000D03*
X22850000Y-209200000D03*
X22850000Y-210500000D03*
X22850000Y-209850000D03*
X24750000Y-210500000D03*
X24750000Y-209200000D03*
D38*
X302400000Y-232000000D03*
X296200000Y-232000000D03*
X285650000Y-210500000D03*
X291850000Y-210500000D03*
D39*
X38440000Y-231600000D03*
X38440000Y-223000000D03*
X35900000Y-231600000D03*
X35900000Y-223000000D03*
X33360000Y-231600000D03*
X33360000Y-223000000D03*
D32*
X36250000Y-158250000D03*
X22250000Y-156250000D03*
D40*
X44168750Y-228037500D03*
X45456250Y-228037500D03*
X46743750Y-228037500D03*
X48031250Y-228037500D03*
X44168750Y-226462500D03*
X45456250Y-226462500D03*
X46743750Y-226462500D03*
X48031250Y-226462500D03*
D41*
X42700000Y-228750000D03*
X42700000Y-228250000D03*
X42700000Y-227750000D03*
X42700000Y-227250000D03*
X42700000Y-226750000D03*
X42700000Y-226250000D03*
X42700000Y-225750000D03*
D42*
X43350000Y-224850000D03*
X43850000Y-224850000D03*
X44350000Y-224850000D03*
X44850000Y-224850000D03*
X45350000Y-224850000D03*
X45850000Y-224850000D03*
X46350000Y-224850000D03*
X46850000Y-224850000D03*
X47350000Y-224850000D03*
X47850000Y-224850000D03*
X48350000Y-224850000D03*
X48850000Y-224850000D03*
D41*
X49500000Y-225750000D03*
X49500000Y-226250000D03*
X49500000Y-226750000D03*
X49500000Y-227250000D03*
X49500000Y-227750000D03*
X49500000Y-228250000D03*
X49500000Y-228750000D03*
D42*
X48850000Y-229650000D03*
X48350000Y-229650000D03*
X47850000Y-229650000D03*
X47350000Y-229650000D03*
X46850000Y-229650000D03*
X46350000Y-229650000D03*
X45850000Y-229650000D03*
X45350000Y-229650000D03*
X44850000Y-229650000D03*
X44350000Y-229650000D03*
X43850000Y-229650000D03*
X43350000Y-229650000D03*
D43*
X319700000Y-207525000D03*
X319700000Y-208175000D03*
X319700000Y-208825000D03*
X319700000Y-209475000D03*
X315300000Y-209475000D03*
X315300000Y-208825000D03*
X315300000Y-208175000D03*
X315300000Y-207525000D03*
X47450000Y-210475000D03*
X47450000Y-209825000D03*
X47450000Y-209175000D03*
X47450000Y-208525000D03*
X43050000Y-208525000D03*
X43050000Y-209175000D03*
X43050000Y-209825000D03*
X43050000Y-210475000D03*
X315300000Y-222975000D03*
X315300000Y-222325000D03*
X315300000Y-221675000D03*
X315300000Y-221025000D03*
X319700000Y-221025000D03*
X319700000Y-221675000D03*
X319700000Y-222325000D03*
X319700000Y-222975000D03*
D44*
X242250000Y-210250000D03*
D45*
X244450000Y-210250000D03*
D44*
X246650000Y-210250000D03*
X264200000Y-218500000D03*
D45*
X262000000Y-218500000D03*
D44*
X259800000Y-218500000D03*
X113900000Y-219000000D03*
D45*
X116100000Y-219000000D03*
D44*
X118300000Y-219000000D03*
D46*
X258315000Y-210250000D03*
X252185000Y-210250000D03*
X268185000Y-218500000D03*
X274315000Y-218500000D03*
D34*
X46100000Y-132000000D03*
X44900000Y-132000000D03*
D20*
X17250000Y-84850000D03*
X17250000Y-83650000D03*
X17000000Y-123150000D03*
X17000000Y-124350000D03*
X39250000Y-83650000D03*
X39250000Y-84850000D03*
D34*
X44900000Y-112250000D03*
X46100000Y-112250000D03*
X44900000Y-92500000D03*
X46100000Y-92500000D03*
D20*
X39000000Y-123150000D03*
X39000000Y-124350000D03*
D34*
X24100000Y-132000000D03*
X22900000Y-132000000D03*
X22900000Y-92500000D03*
X24100000Y-92500000D03*
D29*
X40412500Y-110337500D03*
X41587500Y-110337500D03*
X40412500Y-109162500D03*
X41587500Y-109162500D03*
D28*
X39095000Y-107050000D03*
X40365000Y-107050000D03*
X41635000Y-107050000D03*
X42905000Y-107050000D03*
X42905000Y-112450000D03*
X41635000Y-112450000D03*
X40365000Y-112450000D03*
X39095000Y-112450000D03*
D20*
X39250000Y-104850000D03*
X39250000Y-103650000D03*
D29*
X18412500Y-90337500D03*
X19587500Y-90337500D03*
X18412500Y-89162500D03*
X19587500Y-89162500D03*
D28*
X17095000Y-87050000D03*
X18365000Y-87050000D03*
X19635000Y-87050000D03*
X20905000Y-87050000D03*
X20905000Y-92450000D03*
X19635000Y-92450000D03*
X18365000Y-92450000D03*
X17095000Y-92450000D03*
X17095000Y-131950000D03*
X18365000Y-131950000D03*
X19635000Y-131950000D03*
X20905000Y-131950000D03*
X20905000Y-126550000D03*
X19635000Y-126550000D03*
X18365000Y-126550000D03*
X17095000Y-126550000D03*
D29*
X19587500Y-128662500D03*
X18412500Y-128662500D03*
X19587500Y-129837500D03*
X18412500Y-129837500D03*
D28*
X39095000Y-131950000D03*
X40365000Y-131950000D03*
X41635000Y-131950000D03*
X42905000Y-131950000D03*
X42905000Y-126550000D03*
X41635000Y-126550000D03*
X40365000Y-126550000D03*
X39095000Y-126550000D03*
D29*
X41587500Y-128662500D03*
X40412500Y-128662500D03*
X41587500Y-129837500D03*
X40412500Y-129837500D03*
D47*
X30248220Y-157028000D03*
X28249240Y-157978000D03*
X28249240Y-156078000D03*
D17*
X178730000Y-63730000D03*
D18*
X178730000Y-66270000D03*
X181270000Y-66270000D03*
X181270000Y-63730000D03*
D48*
X180768000Y-182002980D03*
X180768000Y-179777980D03*
D47*
X177720000Y-181888700D03*
X176770000Y-179889720D03*
X178670000Y-179889720D03*
X183628000Y-185447240D03*
X185528000Y-185447240D03*
X184578000Y-183448260D03*
D49*
X25525000Y-230200000D03*
X24875000Y-230200000D03*
X24225000Y-230200000D03*
X23575000Y-230200000D03*
X22925000Y-230200000D03*
X22275000Y-230200000D03*
X21625000Y-230200000D03*
X20975000Y-230200000D03*
X20975000Y-224300000D03*
X21625000Y-224300000D03*
X22275000Y-224300000D03*
X22925000Y-224300000D03*
X23575000Y-224300000D03*
X24225000Y-224300000D03*
X24875000Y-224300000D03*
X25525000Y-224300000D03*
D50*
X92400000Y-222126128D03*
X279800000Y-218600000D03*
X179900000Y-221500000D03*
X129750000Y-204000000D03*
X130000002Y-194000000D03*
X43000000Y-205000000D03*
D51*
X43251448Y-222126128D03*
D50*
X235000000Y-211500000D03*
X230000000Y-211500000D03*
X225000000Y-211500000D03*
X220000000Y-211500000D03*
X215000000Y-211500000D03*
X210000000Y-211500000D03*
X205000000Y-211500000D03*
X200000000Y-211500000D03*
X341750000Y-103750000D03*
X298750000Y-103750000D03*
X255750000Y-103750000D03*
X212750000Y-103750000D03*
X169750000Y-103750000D03*
X126750000Y-103750000D03*
X83750000Y-103750000D03*
X340250000Y-102750000D03*
X297250000Y-102750000D03*
X254250000Y-102750000D03*
X211250000Y-102750000D03*
X168250000Y-102750000D03*
X125250000Y-102750000D03*
X82250000Y-102750000D03*
X40750000Y-103750000D03*
X297500000Y-220000000D03*
X307500000Y-220000000D03*
X282500000Y-227500000D03*
X292500000Y-227500000D03*
X339750000Y-238000000D03*
X339750000Y-243000000D03*
X299750000Y-238000000D03*
X299750000Y-243000000D03*
X329750000Y-238000000D03*
X329750000Y-243000000D03*
X309750000Y-238000000D03*
X309750000Y-243000000D03*
X279750000Y-238000000D03*
X279750000Y-243000000D03*
X289750000Y-238000000D03*
X289750000Y-243000000D03*
X319750000Y-238000000D03*
X319750000Y-243000000D03*
X200000000Y-215250000D03*
X205000000Y-215250000D03*
X210000000Y-215250000D03*
X215000000Y-215250000D03*
X220000000Y-215250000D03*
X225000000Y-215250000D03*
X230000000Y-215250000D03*
X235000000Y-215250000D03*
X73750000Y-215000000D03*
X73750000Y-211500000D03*
X73750000Y-207500000D03*
X93750000Y-207500000D03*
X133750000Y-207500000D03*
X148750000Y-207500000D03*
X123750000Y-207500000D03*
X98750000Y-207500000D03*
X118750000Y-207500000D03*
X108750000Y-207500000D03*
X113750000Y-207500000D03*
X103750000Y-207500000D03*
X143750000Y-207500000D03*
X138750000Y-207500000D03*
X88750000Y-207500000D03*
X153750000Y-207500000D03*
X78750000Y-207500000D03*
X128750000Y-207500000D03*
X158750000Y-207500000D03*
X83750000Y-207500000D03*
X93750000Y-215000000D03*
X133750000Y-215000000D03*
X148750000Y-215000000D03*
X123750000Y-215000000D03*
X98750000Y-215000000D03*
X118750000Y-215000000D03*
X108750000Y-215000000D03*
X113750000Y-215000000D03*
X103750000Y-215000000D03*
X143750000Y-215000000D03*
X138750000Y-215000000D03*
X88750000Y-215000000D03*
X153750000Y-215000000D03*
X78750000Y-215000000D03*
X128750000Y-215000000D03*
X158750000Y-215000000D03*
X83750000Y-215000000D03*
X158750000Y-211500000D03*
X153750000Y-211500000D03*
X148750000Y-211500000D03*
X88750000Y-211500000D03*
X93750000Y-211500000D03*
X103750000Y-211500000D03*
X78750000Y-211500000D03*
X113750000Y-211500000D03*
X98750000Y-211500000D03*
X123750000Y-211500000D03*
X143750000Y-211500000D03*
X165150000Y-211500000D03*
X133750000Y-211500000D03*
X118750000Y-211500000D03*
X83750000Y-211500000D03*
X169400000Y-211500000D03*
X108750000Y-211500000D03*
X128750000Y-211500000D03*
X173400000Y-211500000D03*
X171100000Y-211500000D03*
X138750000Y-211500000D03*
X166850000Y-211500000D03*
X315250000Y-217000000D03*
X262750000Y-215250000D03*
X261250000Y-215250000D03*
X177000000Y-136000000D03*
X179212510Y-204000000D03*
X244500000Y-208500000D03*
X244500000Y-212000000D03*
X187600000Y-215250000D03*
X190150000Y-215250000D03*
X183350000Y-215250000D03*
X196100000Y-215250000D03*
X191850000Y-215250000D03*
X185900000Y-215250000D03*
X181650000Y-215250000D03*
X179334991Y-215250000D03*
X171100000Y-215250000D03*
X175100000Y-215250000D03*
X173400000Y-215250000D03*
X177650000Y-215250000D03*
X169400000Y-215250000D03*
X194400000Y-215250000D03*
X166850000Y-215250000D03*
X165150000Y-215250000D03*
X262750000Y-220250000D03*
X115500000Y-220750000D03*
X116750000Y-220750000D03*
D51*
X278250000Y-222000000D03*
X55250000Y-234000000D03*
X55250000Y-232250000D03*
X55250000Y-230500000D03*
X55250000Y-228750000D03*
D50*
X131750000Y-165250000D03*
X191653821Y-195653821D03*
X186000000Y-204000000D03*
X183250000Y-204000000D03*
X186250000Y-194000000D03*
X191712138Y-203126976D03*
X34250000Y-170250000D03*
X33250000Y-169250000D03*
X77000000Y-170250000D03*
X292000000Y-170250000D03*
X249000000Y-170250000D03*
X163000000Y-170250000D03*
X316750000Y-82750000D03*
X273750000Y-82750000D03*
X230750000Y-82750000D03*
X187750000Y-82750000D03*
X144750000Y-82750000D03*
X101750000Y-82750000D03*
X58750000Y-82750000D03*
X338750000Y-82750000D03*
X295750000Y-82750000D03*
X252750000Y-82750000D03*
X209750000Y-82750000D03*
X166750000Y-82750000D03*
X123750000Y-82750000D03*
X80750000Y-82750000D03*
X15750000Y-82750000D03*
X37750000Y-82750000D03*
X331500000Y-93000000D03*
X288500000Y-93000000D03*
X245500000Y-93000000D03*
X202500000Y-93000000D03*
X159500000Y-93000000D03*
X116500000Y-93000000D03*
X73500000Y-93000000D03*
X313750000Y-92750000D03*
X270750000Y-92750000D03*
X227750000Y-92750000D03*
X184750000Y-92750000D03*
X141750000Y-92750000D03*
X98750000Y-92750000D03*
X55750000Y-92750000D03*
X312000000Y-93000000D03*
X269000000Y-93000000D03*
X226000000Y-93000000D03*
X183000000Y-93000000D03*
X140000000Y-93000000D03*
X97000000Y-93000000D03*
X54000000Y-93000000D03*
X334500000Y-93000000D03*
X291500000Y-93000000D03*
X248500000Y-93000000D03*
X205500000Y-93000000D03*
X162500000Y-93000000D03*
X119500000Y-93000000D03*
X76500000Y-93000000D03*
X333000000Y-93000000D03*
X290000000Y-93000000D03*
X247000000Y-93000000D03*
X204000000Y-93000000D03*
X161000000Y-93000000D03*
X118000000Y-93000000D03*
X75000000Y-93000000D03*
X310500000Y-92750000D03*
X267500000Y-92750000D03*
X224500000Y-92750000D03*
X181500000Y-92750000D03*
X138500000Y-92750000D03*
X95500000Y-92750000D03*
X52500000Y-92750000D03*
X11000000Y-93000000D03*
X9500000Y-92750000D03*
X12750000Y-92750000D03*
X30500000Y-93000000D03*
X32000000Y-93000000D03*
X33500000Y-93000000D03*
X314000000Y-105500000D03*
X271000000Y-105500000D03*
X228000000Y-105500000D03*
X185000000Y-105500000D03*
X142000000Y-105500000D03*
X99000000Y-105500000D03*
X56000000Y-105500000D03*
X335250000Y-104250000D03*
X292250000Y-104250000D03*
X249250000Y-104250000D03*
X206250000Y-104250000D03*
X163250000Y-104250000D03*
X120250000Y-104250000D03*
X77250000Y-104250000D03*
X336750000Y-104250000D03*
X293750000Y-104250000D03*
X250750000Y-104250000D03*
X207750000Y-104250000D03*
X164750000Y-104250000D03*
X121750000Y-104250000D03*
X78750000Y-104250000D03*
X317500000Y-105500000D03*
X274500000Y-105500000D03*
X231500000Y-105500000D03*
X188500000Y-105500000D03*
X145500000Y-105500000D03*
X102500000Y-105500000D03*
X59500000Y-105500000D03*
X13000000Y-105500000D03*
X16500000Y-105500000D03*
X34250000Y-104250000D03*
X35750000Y-104250000D03*
X348500000Y-110500000D03*
X305500000Y-110500000D03*
X262500000Y-110500000D03*
X219500000Y-110500000D03*
X176500000Y-110500000D03*
X133500000Y-110500000D03*
X90500000Y-110500000D03*
X348500000Y-114000000D03*
X305500000Y-114000000D03*
X262500000Y-114000000D03*
X219500000Y-114000000D03*
X176500000Y-114000000D03*
X133500000Y-114000000D03*
X90500000Y-114000000D03*
X47500000Y-110500000D03*
X47500000Y-114000000D03*
X344750000Y-114750000D03*
X301750000Y-114750000D03*
X258750000Y-114750000D03*
X215750000Y-114750000D03*
X172750000Y-114750000D03*
X129750000Y-114750000D03*
X86750000Y-114750000D03*
X344750000Y-116750000D03*
X301750000Y-116750000D03*
X258750000Y-116750000D03*
X215750000Y-116750000D03*
X172750000Y-116750000D03*
X129750000Y-116750000D03*
X86750000Y-116750000D03*
X43750000Y-114750000D03*
X43750000Y-116750000D03*
X319250000Y-122250000D03*
X276250000Y-122250000D03*
X233250000Y-122250000D03*
X190250000Y-122250000D03*
X147250000Y-122250000D03*
X104250000Y-122250000D03*
X61250000Y-122250000D03*
X341500000Y-122250000D03*
X298500000Y-122250000D03*
X255500000Y-122250000D03*
X212500000Y-122250000D03*
X169500000Y-122250000D03*
X126500000Y-122250000D03*
X83500000Y-122250000D03*
X317000000Y-122250000D03*
X274000000Y-122250000D03*
X231000000Y-122250000D03*
X188000000Y-122250000D03*
X145000000Y-122250000D03*
X102000000Y-122250000D03*
X59000000Y-122250000D03*
X18250000Y-122250000D03*
X16000000Y-122250000D03*
X40500000Y-122250000D03*
X348500000Y-130250000D03*
X305500000Y-130250000D03*
X262500000Y-130250000D03*
X219500000Y-130250000D03*
X176500000Y-130250000D03*
X133500000Y-130250000D03*
X90500000Y-130250000D03*
X326750000Y-133750000D03*
X283750000Y-133750000D03*
X240750000Y-133750000D03*
X197750000Y-133750000D03*
X154750000Y-133750000D03*
X111750000Y-133750000D03*
X68750000Y-133750000D03*
X326750000Y-130250000D03*
X283750000Y-130250000D03*
X240750000Y-130250000D03*
X197750000Y-130250000D03*
X154750000Y-130250000D03*
X111750000Y-130250000D03*
X68750000Y-130250000D03*
X348500000Y-134000000D03*
X305500000Y-134000000D03*
X262500000Y-134000000D03*
X219500000Y-134000000D03*
X176500000Y-134000000D03*
X133500000Y-134000000D03*
X90500000Y-134000000D03*
X47500000Y-130250000D03*
X47500000Y-134000000D03*
X25750000Y-133750000D03*
X25750000Y-130250000D03*
X41000000Y-160500000D03*
X342000000Y-160500000D03*
X299000000Y-160500000D03*
X256000000Y-160500000D03*
X213000000Y-160500000D03*
X170000000Y-160500000D03*
X127000000Y-160500000D03*
X40000000Y-159250000D03*
X341000000Y-159250000D03*
X298000000Y-159250000D03*
X255000000Y-159250000D03*
X212000000Y-159250000D03*
X169000000Y-159250000D03*
X126000000Y-159250000D03*
X39000000Y-160500000D03*
X340000000Y-160500000D03*
X297000000Y-160500000D03*
X254000000Y-160500000D03*
X211000000Y-160500000D03*
X168000000Y-160500000D03*
X125000000Y-160500000D03*
X40000000Y-161750000D03*
X341000000Y-161750000D03*
X298000000Y-161750000D03*
X255000000Y-161750000D03*
X212000000Y-161750000D03*
X169000000Y-161750000D03*
X126000000Y-161750000D03*
X84000000Y-160500000D03*
X83000000Y-161750000D03*
X83000000Y-159250000D03*
X82000000Y-160500000D03*
X27250000Y-157500000D03*
X328250000Y-157500000D03*
X285250000Y-157500000D03*
X242250000Y-157500000D03*
X199250000Y-157500000D03*
X156250000Y-157500000D03*
X113250000Y-157500000D03*
X70250000Y-157500000D03*
X21500000Y-171250000D03*
X322500000Y-171250000D03*
X279500000Y-171250000D03*
X236500000Y-171250000D03*
X193500000Y-171250000D03*
X150500000Y-171250000D03*
X107500000Y-171250000D03*
X22500000Y-162750000D03*
X323500000Y-162750000D03*
X280500000Y-162750000D03*
X237500000Y-162750000D03*
X194500000Y-162750000D03*
X151500000Y-162750000D03*
X108500000Y-162750000D03*
X20750000Y-166250000D03*
X321750000Y-166250000D03*
X278750000Y-166250000D03*
X235750000Y-166250000D03*
X192750000Y-166250000D03*
X149750000Y-166250000D03*
X106750000Y-166250000D03*
X22500000Y-172500000D03*
X323500000Y-172500000D03*
X280500000Y-172500000D03*
X237500000Y-172500000D03*
X194500000Y-172500000D03*
X151500000Y-172500000D03*
X108500000Y-172500000D03*
X23500000Y-161500000D03*
X324500000Y-161500000D03*
X281500000Y-161500000D03*
X238500000Y-161500000D03*
X195500000Y-161500000D03*
X152500000Y-161500000D03*
X109500000Y-161500000D03*
X22500000Y-160250000D03*
X323500000Y-160250000D03*
X280500000Y-160250000D03*
X237500000Y-160250000D03*
X194500000Y-160250000D03*
X151500000Y-160250000D03*
X108500000Y-160250000D03*
X22500000Y-169750000D03*
X323500000Y-169750000D03*
X280500000Y-169750000D03*
X237500000Y-169750000D03*
X194500000Y-169750000D03*
X151500000Y-169750000D03*
X108500000Y-169750000D03*
X65500000Y-162750000D03*
X65500000Y-160250000D03*
X66500000Y-161500000D03*
X63750000Y-166250000D03*
X65500000Y-169750000D03*
X64500000Y-171250000D03*
X65500000Y-172500000D03*
X32500000Y-171750000D03*
X333500000Y-171750000D03*
X290500000Y-171750000D03*
X247500000Y-171750000D03*
X204500000Y-171750000D03*
X161500000Y-171750000D03*
X118500000Y-171750000D03*
X335250000Y-170250000D03*
X206250000Y-170250000D03*
X120250000Y-170250000D03*
X33500000Y-173250000D03*
X334500000Y-173250000D03*
X291500000Y-173250000D03*
X248500000Y-173250000D03*
X205500000Y-173250000D03*
X162500000Y-173250000D03*
X119500000Y-173250000D03*
X34250000Y-166750000D03*
X335250000Y-166750000D03*
X292250000Y-166750000D03*
X249250000Y-166750000D03*
X206250000Y-166750000D03*
X163250000Y-166750000D03*
X120250000Y-166750000D03*
X37250000Y-166750000D03*
X338250000Y-166750000D03*
X295250000Y-166750000D03*
X252250000Y-166750000D03*
X209250000Y-166750000D03*
X166250000Y-166750000D03*
X123250000Y-166750000D03*
X34250000Y-168250000D03*
X335250000Y-168250000D03*
X292250000Y-168250000D03*
X249250000Y-168250000D03*
X206250000Y-168250000D03*
X163250000Y-168250000D03*
X120250000Y-168250000D03*
X76500000Y-173250000D03*
X75500000Y-171750000D03*
X77250000Y-168250000D03*
X80250000Y-166750000D03*
X77250000Y-166750000D03*
X6900000Y-200050000D03*
X12700000Y-200050000D03*
X17000000Y-200050000D03*
X22000000Y-200050000D03*
X27000000Y-200050000D03*
X32000000Y-200050000D03*
X131000000Y-220250000D03*
X136000000Y-220250000D03*
X141000000Y-220250000D03*
X151000000Y-220250000D03*
X146000000Y-220250000D03*
X156000000Y-220250000D03*
X151500000Y-236500000D03*
X156500000Y-236500000D03*
X146500000Y-236500000D03*
X210000000Y-236500000D03*
X200000000Y-236500000D03*
X205000000Y-236500000D03*
X246250000Y-220250000D03*
X235000000Y-220250000D03*
X230000000Y-220250000D03*
X225000000Y-220250000D03*
X220000000Y-220250000D03*
X215000000Y-220250000D03*
X210000000Y-220250000D03*
X205000000Y-220250000D03*
X200000000Y-220250000D03*
X320750000Y-212750000D03*
X314250000Y-217750000D03*
X316250000Y-217750000D03*
X319750000Y-213750000D03*
X266750000Y-225000000D03*
X266750000Y-223000000D03*
X252000000Y-203500000D03*
X252000000Y-205750000D03*
X352500000Y-239000000D03*
X352500000Y-234000000D03*
X352500000Y-229000000D03*
X352500000Y-224000000D03*
X352500000Y-219000000D03*
X352500000Y-214000000D03*
X352500000Y-209000000D03*
X352500000Y-204000000D03*
X352500000Y-199000000D03*
X352500000Y-194000000D03*
X352500000Y-189000000D03*
X352500000Y-184000000D03*
X352500000Y-179000000D03*
X352500000Y-174000000D03*
X319950000Y-144500000D03*
X276950000Y-144500000D03*
X233950000Y-144500000D03*
X190950000Y-144500000D03*
X147950000Y-144500000D03*
X104950000Y-144500000D03*
X61950000Y-144500000D03*
X321750000Y-148250000D03*
X278750000Y-148250000D03*
X235750000Y-148250000D03*
X192750000Y-148250000D03*
X149750000Y-148250000D03*
X106750000Y-148250000D03*
X63750000Y-148250000D03*
X343900000Y-145500000D03*
X300900000Y-145500000D03*
X257900000Y-145500000D03*
X214900000Y-145500000D03*
X171900000Y-145500000D03*
X128900000Y-145500000D03*
X85900000Y-145500000D03*
X321750000Y-136500000D03*
X278750000Y-136500000D03*
X235750000Y-136500000D03*
X192750000Y-136500000D03*
X149750000Y-136500000D03*
X106750000Y-136500000D03*
X63750000Y-136500000D03*
X336750000Y-146600000D03*
X293750000Y-146600000D03*
X250750000Y-146600000D03*
X207750000Y-146600000D03*
X164750000Y-146600000D03*
X121750000Y-146600000D03*
X78750000Y-146600000D03*
X343900000Y-140500000D03*
X300900000Y-140500000D03*
X257900000Y-140500000D03*
X214900000Y-140500000D03*
X171900000Y-140500000D03*
X128900000Y-140500000D03*
X85900000Y-140500000D03*
X327000000Y-148400000D03*
X284000000Y-148400000D03*
X241000000Y-148400000D03*
X198000000Y-148400000D03*
X155000000Y-148400000D03*
X112000000Y-148400000D03*
X69000000Y-148400000D03*
X321750000Y-140500000D03*
X278750000Y-140500000D03*
X235750000Y-140500000D03*
X192750000Y-140500000D03*
X149750000Y-140500000D03*
X106750000Y-140500000D03*
X63750000Y-140500000D03*
X327000000Y-146600000D03*
X284000000Y-146600000D03*
X241000000Y-146600000D03*
X198000000Y-146600000D03*
X155000000Y-146600000D03*
X112000000Y-146600000D03*
X69000000Y-146600000D03*
X342100000Y-140500000D03*
X299100000Y-140500000D03*
X256100000Y-140500000D03*
X213100000Y-140500000D03*
X170100000Y-140500000D03*
X127100000Y-140500000D03*
X84100000Y-140500000D03*
X321750000Y-145500000D03*
X278750000Y-145500000D03*
X235750000Y-145500000D03*
X192750000Y-145500000D03*
X149750000Y-145500000D03*
X106750000Y-145500000D03*
X63750000Y-145500000D03*
X342000000Y-148250000D03*
X299000000Y-148250000D03*
X256000000Y-148250000D03*
X213000000Y-148250000D03*
X170000000Y-148250000D03*
X127000000Y-148250000D03*
X84000000Y-148250000D03*
X319950000Y-141250000D03*
X276950000Y-141250000D03*
X233950000Y-141250000D03*
X190950000Y-141250000D03*
X147950000Y-141250000D03*
X104950000Y-141250000D03*
X61950000Y-141250000D03*
X319950000Y-137600000D03*
X276950000Y-137600000D03*
X233950000Y-137600000D03*
X190950000Y-137600000D03*
X147950000Y-137600000D03*
X104950000Y-137600000D03*
X61950000Y-137600000D03*
X342100000Y-136500000D03*
X299100000Y-136500000D03*
X256100000Y-136500000D03*
X213100000Y-136500000D03*
X170100000Y-136500000D03*
X127100000Y-136500000D03*
X84100000Y-136500000D03*
X343900000Y-136500000D03*
X300900000Y-136500000D03*
X257900000Y-136500000D03*
X214900000Y-136500000D03*
X171900000Y-136500000D03*
X128900000Y-136500000D03*
X85900000Y-136500000D03*
X336750000Y-148400000D03*
X293750000Y-148400000D03*
X250750000Y-148400000D03*
X207750000Y-148400000D03*
X164750000Y-148400000D03*
X121750000Y-148400000D03*
X78750000Y-148400000D03*
X342100000Y-145500000D03*
X299100000Y-145500000D03*
X256100000Y-145500000D03*
X213100000Y-145500000D03*
X170100000Y-145500000D03*
X127100000Y-145500000D03*
X84100000Y-145500000D03*
X20750000Y-148250000D03*
X41000000Y-148250000D03*
X18950000Y-144500000D03*
X35750000Y-146600000D03*
X35750000Y-148400000D03*
X26000000Y-148400000D03*
X26000000Y-146600000D03*
X18950000Y-141250000D03*
X18950000Y-137600000D03*
X41100000Y-136500000D03*
X41100000Y-140500000D03*
X41100000Y-145500000D03*
X42900000Y-145500000D03*
X42900000Y-140500000D03*
X42900000Y-136500000D03*
X20750000Y-145500000D03*
X20750000Y-140500000D03*
X20750000Y-136500000D03*
X319000000Y-116000000D03*
X276000000Y-116000000D03*
X233000000Y-116000000D03*
X190000000Y-116000000D03*
X147000000Y-116000000D03*
X104000000Y-116000000D03*
X61000000Y-116000000D03*
X18000000Y-116000000D03*
X319000000Y-111000000D03*
X276000000Y-111000000D03*
X233000000Y-111000000D03*
X190000000Y-111000000D03*
X147000000Y-111000000D03*
X104000000Y-111000000D03*
X61000000Y-111000000D03*
X18000000Y-111000000D03*
X319000000Y-106000000D03*
X276000000Y-106000000D03*
X233000000Y-106000000D03*
X190000000Y-106000000D03*
X147000000Y-106000000D03*
X104000000Y-106000000D03*
X61000000Y-106000000D03*
X18000000Y-106000000D03*
X344500000Y-96750000D03*
X301500000Y-96750000D03*
X258500000Y-96750000D03*
X215500000Y-96750000D03*
X172500000Y-96750000D03*
X129500000Y-96750000D03*
X86500000Y-96750000D03*
X322000000Y-100750000D03*
X279000000Y-100750000D03*
X236000000Y-100750000D03*
X193000000Y-100750000D03*
X150000000Y-100750000D03*
X107000000Y-100750000D03*
X64000000Y-100750000D03*
X340000000Y-122250000D03*
X297000000Y-122250000D03*
X254000000Y-122250000D03*
X211000000Y-122250000D03*
X168000000Y-122250000D03*
X125000000Y-122250000D03*
X82000000Y-122250000D03*
X344500000Y-94750000D03*
X301500000Y-94750000D03*
X258500000Y-94750000D03*
X215500000Y-94750000D03*
X172500000Y-94750000D03*
X129500000Y-94750000D03*
X86500000Y-94750000D03*
X344500000Y-100750000D03*
X301500000Y-100750000D03*
X258500000Y-100750000D03*
X215500000Y-100750000D03*
X172500000Y-100750000D03*
X129500000Y-100750000D03*
X86500000Y-100750000D03*
X313750000Y-94000000D03*
X270750000Y-94000000D03*
X227750000Y-94000000D03*
X184750000Y-94000000D03*
X141750000Y-94000000D03*
X98750000Y-94000000D03*
X55750000Y-94000000D03*
X344500000Y-102750000D03*
X301500000Y-102750000D03*
X258500000Y-102750000D03*
X215500000Y-102750000D03*
X172500000Y-102750000D03*
X129500000Y-102750000D03*
X86500000Y-102750000D03*
X322000000Y-94750000D03*
X279000000Y-94750000D03*
X236000000Y-94750000D03*
X193000000Y-94750000D03*
X150000000Y-94750000D03*
X107000000Y-94750000D03*
X64000000Y-94750000D03*
X322000000Y-96750000D03*
X279000000Y-96750000D03*
X236000000Y-96750000D03*
X193000000Y-96750000D03*
X150000000Y-96750000D03*
X107000000Y-96750000D03*
X64000000Y-96750000D03*
X318000000Y-122250000D03*
X275000000Y-122250000D03*
X232000000Y-122250000D03*
X189000000Y-122250000D03*
X146000000Y-122250000D03*
X103000000Y-122250000D03*
X60000000Y-122250000D03*
X12750000Y-94000000D03*
X21000000Y-94750000D03*
X21000000Y-96750000D03*
X21000000Y-100750000D03*
X43500000Y-100750000D03*
X43500000Y-94750000D03*
X43500000Y-96750000D03*
X43500000Y-102750000D03*
X39250000Y-102750000D03*
X17000000Y-122250000D03*
X39000000Y-122250000D03*
X319750000Y-150250000D03*
X276750000Y-150250000D03*
X233750000Y-150250000D03*
X190750000Y-150250000D03*
X147750000Y-150250000D03*
X104750000Y-150250000D03*
X61750000Y-150250000D03*
X319750000Y-153250000D03*
X276750000Y-153250000D03*
X233750000Y-153250000D03*
X190750000Y-153250000D03*
X147750000Y-153250000D03*
X104750000Y-153250000D03*
X61750000Y-153250000D03*
X18750000Y-153250000D03*
X18750000Y-150250000D03*
X168250000Y-193000000D03*
X179334991Y-220250000D03*
X179334991Y-207500000D03*
X179334991Y-211500000D03*
X319750000Y-248000000D03*
X289750000Y-248000000D03*
X279750000Y-248000000D03*
X309750000Y-248000000D03*
X329750000Y-248000000D03*
X299750000Y-248000000D03*
X349750000Y-248000000D03*
X339750000Y-248000000D03*
X80500000Y-247500000D03*
X70500000Y-247500000D03*
X60500000Y-247500000D03*
X50500000Y-247500000D03*
X40500000Y-247500000D03*
X30500000Y-247500000D03*
X20500000Y-247500000D03*
X10500000Y-247500000D03*
X10500000Y-243000000D03*
X10500000Y-238000000D03*
X10500000Y-233000000D03*
X10500000Y-228000000D03*
X10500000Y-223000000D03*
X19500000Y-216750000D03*
X10500000Y-216750000D03*
X10500000Y-208500000D03*
X19500000Y-222250000D03*
X31200000Y-220750000D03*
X35750000Y-220750000D03*
X38500000Y-225000000D03*
X35750000Y-225000000D03*
X236000000Y-196500000D03*
X221000000Y-196500000D03*
X211000000Y-196500000D03*
X201000000Y-196500000D03*
X226000000Y-196500000D03*
X241000000Y-196500000D03*
X193250000Y-196450000D03*
X231000000Y-196500000D03*
X216000000Y-196500000D03*
X206000000Y-196500000D03*
X246000000Y-196500000D03*
X251000000Y-196500000D03*
X256000000Y-196500000D03*
X261000000Y-196500000D03*
X266000000Y-196500000D03*
X271000000Y-196500000D03*
X276000000Y-196500000D03*
X281000000Y-196500000D03*
X281000000Y-198300000D03*
X276000000Y-198300000D03*
X271000000Y-198300000D03*
X266000000Y-198300000D03*
X231000000Y-198300000D03*
X226000000Y-198300000D03*
X261000000Y-198300000D03*
X211000000Y-198300000D03*
X251000000Y-198300000D03*
X206000000Y-198300000D03*
X199000000Y-198300000D03*
X221000000Y-198300000D03*
X216000000Y-198300000D03*
X236000000Y-198300000D03*
X241000000Y-198300000D03*
X246000000Y-198300000D03*
X256000000Y-198300000D03*
X204000000Y-68500000D03*
X204000000Y-63500000D03*
X217000000Y-68500000D03*
X293200000Y-63500000D03*
X331300000Y-63500000D03*
X293200000Y-68500000D03*
X267200000Y-63500000D03*
X255100000Y-68500000D03*
X305300000Y-68500000D03*
X229100000Y-68500000D03*
X191000000Y-68500000D03*
X305300000Y-63500000D03*
X255100000Y-63500000D03*
X318300000Y-63500000D03*
X280200000Y-63500000D03*
X318300000Y-68500000D03*
X191000000Y-63500000D03*
X217000000Y-63500000D03*
X267200000Y-68500000D03*
X229100000Y-63500000D03*
X280200000Y-68500000D03*
X242100000Y-68500000D03*
X242100000Y-63500000D03*
X331300000Y-68500000D03*
X155550000Y-68500000D03*
X117450000Y-68500000D03*
X79350000Y-68500000D03*
X155550000Y-63500000D03*
X117450000Y-63500000D03*
X79350000Y-63500000D03*
X168550000Y-68500000D03*
X130450000Y-68500000D03*
X92350000Y-68500000D03*
X142550000Y-68500000D03*
X104450000Y-68500000D03*
X66350000Y-68500000D03*
X142550000Y-63500000D03*
X104450000Y-63500000D03*
X66350000Y-63500000D03*
X168550000Y-63500000D03*
X130450000Y-63500000D03*
X92350000Y-63500000D03*
X54250000Y-68500000D03*
X41250000Y-68500000D03*
X54250000Y-63500000D03*
X41250000Y-63500000D03*
X28250000Y-68500000D03*
X28250000Y-63500000D03*
X331000000Y-76000000D03*
X288000000Y-76000000D03*
X245000000Y-76000000D03*
X202000000Y-76000000D03*
X159000000Y-76000000D03*
X116000000Y-76000000D03*
X73000000Y-76000000D03*
X331000000Y-91000000D03*
X288000000Y-91000000D03*
X245000000Y-91000000D03*
X202000000Y-91000000D03*
X159000000Y-91000000D03*
X116000000Y-91000000D03*
X73000000Y-91000000D03*
X331000000Y-111000000D03*
X288000000Y-111000000D03*
X245000000Y-111000000D03*
X202000000Y-111000000D03*
X159000000Y-111000000D03*
X116000000Y-111000000D03*
X73000000Y-111000000D03*
X331000000Y-106000000D03*
X288000000Y-106000000D03*
X245000000Y-106000000D03*
X202000000Y-106000000D03*
X159000000Y-106000000D03*
X116000000Y-106000000D03*
X73000000Y-106000000D03*
X331000000Y-146000000D03*
X288000000Y-146000000D03*
X245000000Y-146000000D03*
X202000000Y-146000000D03*
X159000000Y-146000000D03*
X116000000Y-146000000D03*
X73000000Y-146000000D03*
X331000000Y-126000000D03*
X288000000Y-126000000D03*
X245000000Y-126000000D03*
X202000000Y-126000000D03*
X159000000Y-126000000D03*
X116000000Y-126000000D03*
X73000000Y-126000000D03*
X331000000Y-131000000D03*
X288000000Y-131000000D03*
X245000000Y-131000000D03*
X202000000Y-131000000D03*
X159000000Y-131000000D03*
X116000000Y-131000000D03*
X73000000Y-131000000D03*
X331000000Y-116000000D03*
X288000000Y-116000000D03*
X245000000Y-116000000D03*
X202000000Y-116000000D03*
X159000000Y-116000000D03*
X116000000Y-116000000D03*
X73000000Y-116000000D03*
X331000000Y-96000000D03*
X288000000Y-96000000D03*
X245000000Y-96000000D03*
X202000000Y-96000000D03*
X159000000Y-96000000D03*
X116000000Y-96000000D03*
X73000000Y-96000000D03*
X331000000Y-141000000D03*
X288000000Y-141000000D03*
X245000000Y-141000000D03*
X202000000Y-141000000D03*
X159000000Y-141000000D03*
X116000000Y-141000000D03*
X73000000Y-141000000D03*
X331000000Y-81000000D03*
X288000000Y-81000000D03*
X245000000Y-81000000D03*
X202000000Y-81000000D03*
X159000000Y-81000000D03*
X116000000Y-81000000D03*
X73000000Y-81000000D03*
X331000000Y-86000000D03*
X288000000Y-86000000D03*
X245000000Y-86000000D03*
X202000000Y-86000000D03*
X159000000Y-86000000D03*
X116000000Y-86000000D03*
X73000000Y-86000000D03*
X331000000Y-101000000D03*
X288000000Y-101000000D03*
X245000000Y-101000000D03*
X202000000Y-101000000D03*
X159000000Y-101000000D03*
X116000000Y-101000000D03*
X73000000Y-101000000D03*
X331000000Y-136000000D03*
X288000000Y-136000000D03*
X245000000Y-136000000D03*
X202000000Y-136000000D03*
X159000000Y-136000000D03*
X116000000Y-136000000D03*
X73000000Y-136000000D03*
X331000000Y-121000000D03*
X288000000Y-121000000D03*
X245000000Y-121000000D03*
X202000000Y-121000000D03*
X159000000Y-121000000D03*
X116000000Y-121000000D03*
X73000000Y-121000000D03*
X30000000Y-76000000D03*
X30000000Y-81000000D03*
X30000000Y-86000000D03*
X30000000Y-91000000D03*
X30000000Y-96000000D03*
X30000000Y-101000000D03*
X30000000Y-106000000D03*
X30000000Y-111000000D03*
X30000000Y-116000000D03*
X30000000Y-121000000D03*
X30000000Y-126000000D03*
X30000000Y-131000000D03*
X30000000Y-136000000D03*
X30000000Y-141000000D03*
X30000000Y-146000000D03*
X352500000Y-99000000D03*
X352500000Y-104000000D03*
X309500000Y-104000000D03*
X266500000Y-104000000D03*
X223500000Y-104000000D03*
X180500000Y-104000000D03*
X137500000Y-104000000D03*
X94500000Y-104000000D03*
X51500000Y-104000000D03*
X352500000Y-109000000D03*
X309500000Y-109000000D03*
X266500000Y-109000000D03*
X223500000Y-109000000D03*
X180500000Y-109000000D03*
X137500000Y-109000000D03*
X94500000Y-109000000D03*
X51500000Y-109000000D03*
X352500000Y-114000000D03*
X309500000Y-114000000D03*
X266500000Y-114000000D03*
X223500000Y-114000000D03*
X180500000Y-114000000D03*
X137500000Y-114000000D03*
X94500000Y-114000000D03*
X51500000Y-114000000D03*
X352500000Y-144000000D03*
X309500000Y-144000000D03*
X266500000Y-144000000D03*
X223500000Y-144000000D03*
X180500000Y-144000000D03*
X137500000Y-144000000D03*
X94500000Y-144000000D03*
X51500000Y-144000000D03*
X352500000Y-164000000D03*
X309500000Y-164000000D03*
X266500000Y-164000000D03*
X223500000Y-164000000D03*
X180500000Y-164000000D03*
X137500000Y-164000000D03*
X94500000Y-164000000D03*
X51500000Y-164000000D03*
X352500000Y-74000000D03*
X309500000Y-74000000D03*
X266500000Y-74000000D03*
X223500000Y-74000000D03*
X180500000Y-74000000D03*
X137500000Y-74000000D03*
X94500000Y-74000000D03*
X51500000Y-74000000D03*
X352500000Y-84000000D03*
X309500000Y-84000000D03*
X266500000Y-84000000D03*
X223500000Y-84000000D03*
X180500000Y-84000000D03*
X137500000Y-84000000D03*
X94500000Y-84000000D03*
X51500000Y-84000000D03*
X352500000Y-134000000D03*
X309500000Y-134000000D03*
X266500000Y-134000000D03*
X223500000Y-134000000D03*
X180500000Y-134000000D03*
X137500000Y-134000000D03*
X94500000Y-134000000D03*
X51500000Y-134000000D03*
X352500000Y-139000000D03*
X309500000Y-139000000D03*
X266500000Y-139000000D03*
X223500000Y-139000000D03*
X180500000Y-139000000D03*
X137500000Y-139000000D03*
X94500000Y-139000000D03*
X51500000Y-139000000D03*
X352500000Y-149000000D03*
X309500000Y-149000000D03*
X266500000Y-149000000D03*
X223500000Y-149000000D03*
X180500000Y-149000000D03*
X137500000Y-149000000D03*
X94500000Y-149000000D03*
X51500000Y-149000000D03*
X352500000Y-89000000D03*
X309500000Y-89000000D03*
X266500000Y-89000000D03*
X223500000Y-89000000D03*
X180500000Y-89000000D03*
X137500000Y-89000000D03*
X94500000Y-89000000D03*
X51500000Y-89000000D03*
X352500000Y-94000000D03*
X309500000Y-94000000D03*
X266500000Y-94000000D03*
X223500000Y-94000000D03*
X180500000Y-94000000D03*
X137500000Y-94000000D03*
X94500000Y-94000000D03*
X51500000Y-94000000D03*
X352500000Y-169000000D03*
X309500000Y-169000000D03*
X266500000Y-169000000D03*
X223500000Y-169000000D03*
X180500000Y-169000000D03*
X137500000Y-169000000D03*
X94500000Y-169000000D03*
X51500000Y-169000000D03*
X352500000Y-124000000D03*
X309500000Y-124000000D03*
X266500000Y-124000000D03*
X223500000Y-124000000D03*
X180500000Y-124000000D03*
X137500000Y-124000000D03*
X94500000Y-124000000D03*
X51500000Y-124000000D03*
X352500000Y-129000000D03*
X309500000Y-129000000D03*
X266500000Y-129000000D03*
X223500000Y-129000000D03*
X180500000Y-129000000D03*
X137500000Y-129000000D03*
X94500000Y-129000000D03*
X51500000Y-129000000D03*
X352500000Y-154000000D03*
X309500000Y-154000000D03*
X266500000Y-154000000D03*
X223500000Y-154000000D03*
X180500000Y-154000000D03*
X137500000Y-154000000D03*
X94500000Y-154000000D03*
X51500000Y-154000000D03*
X352500000Y-119000000D03*
X309500000Y-119000000D03*
X266500000Y-119000000D03*
X223500000Y-119000000D03*
X180500000Y-119000000D03*
X137500000Y-119000000D03*
X94500000Y-119000000D03*
X51500000Y-119000000D03*
X352500000Y-159000000D03*
X309500000Y-159000000D03*
X266500000Y-159000000D03*
X223500000Y-159000000D03*
X180500000Y-159000000D03*
X137500000Y-159000000D03*
X94500000Y-159000000D03*
X51500000Y-159000000D03*
X8500000Y-74000000D03*
X8500000Y-84000000D03*
X8500000Y-89000000D03*
X8500000Y-94000000D03*
X8500000Y-104000000D03*
X8500000Y-109000000D03*
X8500000Y-114000000D03*
X8500000Y-119000000D03*
X8500000Y-124000000D03*
X8500000Y-129000000D03*
X8500000Y-134000000D03*
X8500000Y-139000000D03*
X8500000Y-144000000D03*
X8500000Y-149000000D03*
X8500000Y-154000000D03*
X8500000Y-159000000D03*
X8500000Y-164000000D03*
X8500000Y-169000000D03*
X74100000Y-193750000D03*
X343500000Y-82500000D03*
X300500000Y-82500000D03*
X257500000Y-82500000D03*
X214500000Y-82500000D03*
X171500000Y-82500000D03*
X128500000Y-82500000D03*
X85500000Y-82500000D03*
X343500000Y-81000000D03*
X300500000Y-81000000D03*
X257500000Y-81000000D03*
X214500000Y-81000000D03*
X171500000Y-81000000D03*
X128500000Y-81000000D03*
X85500000Y-81000000D03*
X341937490Y-80992687D03*
X298937490Y-80992687D03*
X255937490Y-80992687D03*
X212937490Y-80992687D03*
X169937490Y-80992687D03*
X126937490Y-80992687D03*
X83937490Y-80992687D03*
X321500000Y-81000000D03*
X278500000Y-81000000D03*
X235500000Y-81000000D03*
X192500000Y-81000000D03*
X149500000Y-81000000D03*
X106500000Y-81000000D03*
X63500000Y-81000000D03*
X321500000Y-82500000D03*
X278500000Y-82500000D03*
X235500000Y-82500000D03*
X192500000Y-82500000D03*
X149500000Y-82500000D03*
X106500000Y-82500000D03*
X63500000Y-82500000D03*
X319937490Y-80992687D03*
X276937490Y-80992687D03*
X233937490Y-80992687D03*
X190937490Y-80992687D03*
X147937490Y-80992687D03*
X104937490Y-80992687D03*
X61937490Y-80992687D03*
X320000000Y-82500000D03*
X277000000Y-82500000D03*
X234000000Y-82500000D03*
X191000000Y-82500000D03*
X148000000Y-82500000D03*
X105000000Y-82500000D03*
X62000000Y-82500000D03*
X342000000Y-82500000D03*
X299000000Y-82500000D03*
X256000000Y-82500000D03*
X213000000Y-82500000D03*
X170000000Y-82500000D03*
X127000000Y-82500000D03*
X84000000Y-82500000D03*
X42500000Y-81000000D03*
X42500000Y-82500000D03*
X40937490Y-80992687D03*
X41000000Y-82500000D03*
X18937490Y-80992687D03*
X20500000Y-81000000D03*
X19000000Y-82500000D03*
X20500000Y-82500000D03*
X200400000Y-204023790D03*
X193000000Y-204123790D03*
X321000000Y-198300000D03*
X32250000Y-197500000D03*
X33750000Y-196500000D03*
X37000000Y-198300000D03*
X37000000Y-200050000D03*
X42000000Y-200050000D03*
X47000000Y-200050000D03*
X52000000Y-200050000D03*
X57000000Y-200050000D03*
X42000000Y-198300000D03*
X47000000Y-198300000D03*
X52000000Y-198300000D03*
X57000000Y-198300000D03*
X137000000Y-194750000D03*
X132000000Y-194750000D03*
X127000000Y-194750000D03*
X122000000Y-194750000D03*
X162000000Y-194750000D03*
X157000000Y-194750000D03*
X147000000Y-194750000D03*
X142000000Y-194750000D03*
X152000000Y-194750000D03*
X67000000Y-200050000D03*
X97000000Y-200050000D03*
X107000000Y-200050000D03*
X152000000Y-200050000D03*
X77000000Y-200050000D03*
X92000000Y-200050000D03*
X132000000Y-200050000D03*
X82000000Y-200050000D03*
X147000000Y-200050000D03*
X87000000Y-200050000D03*
X117000000Y-200050000D03*
X72000000Y-200050000D03*
X142000000Y-200050000D03*
X102000000Y-200050000D03*
X112000000Y-200050000D03*
X62000000Y-200050000D03*
X127000000Y-200050000D03*
X122000000Y-200050000D03*
X137000000Y-200050000D03*
X77000000Y-196500000D03*
X82000000Y-196500000D03*
X87000000Y-196500000D03*
X92000000Y-196500000D03*
X97000000Y-196500000D03*
X102000000Y-196500000D03*
X107000000Y-196500000D03*
X112000000Y-196500000D03*
X117000000Y-196500000D03*
X122000000Y-196500000D03*
X127000000Y-196500000D03*
X132000000Y-196500000D03*
X137000000Y-196500000D03*
X142000000Y-196500000D03*
X147000000Y-196500000D03*
X152000000Y-196500000D03*
X157000000Y-196500000D03*
X162000000Y-196500000D03*
X158000000Y-198500000D03*
X62000000Y-198300000D03*
X67000000Y-198300000D03*
X72000000Y-198300000D03*
X77000000Y-198300000D03*
X82000000Y-198300000D03*
X87000000Y-198300000D03*
X92000000Y-198300000D03*
X97000000Y-198300000D03*
X102000000Y-198300000D03*
X107000000Y-198300000D03*
X112000000Y-198300000D03*
X117000000Y-198300000D03*
X122000000Y-198300000D03*
X127000000Y-198300000D03*
X132000000Y-198300000D03*
X137000000Y-198300000D03*
X142000000Y-198300000D03*
X147000000Y-198300000D03*
X152000000Y-198300000D03*
X166850000Y-207500000D03*
X163250000Y-203750000D03*
X160500000Y-201000000D03*
X157000000Y-200050000D03*
X159250000Y-202250000D03*
X162000000Y-205000000D03*
X177000000Y-200250000D03*
X178250000Y-199000000D03*
X173250000Y-194000000D03*
X174750000Y-198000000D03*
X171750000Y-195000000D03*
X176250000Y-197000000D03*
X174750000Y-201250000D03*
X171250000Y-200250000D03*
X168250000Y-197250000D03*
X172750000Y-199250000D03*
X169750000Y-196250000D03*
X163000000Y-199250000D03*
X164500000Y-198250000D03*
X166000000Y-202250000D03*
X167500000Y-201250000D03*
X168750000Y-205000000D03*
X170250000Y-204000000D03*
X173400000Y-204000000D03*
X175100000Y-204000000D03*
X177650000Y-204000000D03*
X181650000Y-204000000D03*
X183250000Y-200750000D03*
X181750000Y-200750000D03*
X187600000Y-204000000D03*
X186000000Y-201200000D03*
X193250000Y-194750000D03*
X197500000Y-194750000D03*
X197500000Y-193000000D03*
X193250000Y-193000000D03*
X188500000Y-193000000D03*
X182500000Y-197500000D03*
X188500000Y-194750000D03*
X185750000Y-197450000D03*
X190500000Y-199200000D03*
X189000000Y-198200000D03*
X196250000Y-200950000D03*
X197500000Y-197200000D03*
X194750000Y-199950000D03*
X241000000Y-194750000D03*
X216000000Y-194750000D03*
X211000000Y-194750000D03*
X201000000Y-194750000D03*
X206000000Y-194750000D03*
X221000000Y-194750000D03*
X226000000Y-194750000D03*
X236000000Y-194750000D03*
X231000000Y-194750000D03*
X31100000Y-173250000D03*
X74100000Y-173250000D03*
X117100000Y-173250000D03*
X160100000Y-173250000D03*
X203100000Y-173250000D03*
X246100000Y-173250000D03*
X29400000Y-164000000D03*
X72400000Y-164000000D03*
X115400000Y-164000000D03*
X158400000Y-164000000D03*
X201400000Y-164000000D03*
X244400000Y-164000000D03*
X31100000Y-193750000D03*
X117100000Y-193750000D03*
X161500000Y-193000000D03*
X203100000Y-191750000D03*
X245750000Y-193200000D03*
X29400000Y-169000000D03*
X72400000Y-169000000D03*
X115400000Y-169000000D03*
X158400000Y-169000000D03*
X201400000Y-169000000D03*
X244400000Y-169000000D03*
X29400000Y-193750000D03*
X72400000Y-193750000D03*
X115400000Y-194000000D03*
X160000000Y-194000000D03*
X201400000Y-191750000D03*
X244250000Y-192200000D03*
X29400000Y-189000000D03*
X72400000Y-189000000D03*
X115400000Y-189000000D03*
X158400000Y-189000000D03*
X201400000Y-187200000D03*
X244400000Y-189000000D03*
X31100000Y-164000000D03*
X74100000Y-164000000D03*
X117000000Y-164000000D03*
X160100000Y-164000000D03*
X203100000Y-164000000D03*
X246100000Y-164000000D03*
X29250000Y-148750000D03*
X72250000Y-148750000D03*
X115250000Y-148750000D03*
X158250000Y-148750000D03*
X201250000Y-148750000D03*
X244250000Y-148750000D03*
X31250000Y-157500000D03*
X74250000Y-157500000D03*
X117250000Y-157750000D03*
X160150000Y-157650000D03*
X203150000Y-157650000D03*
X246150000Y-157650000D03*
X29400000Y-178700000D03*
X72400000Y-178650000D03*
X115400000Y-178500000D03*
X158400000Y-178500000D03*
X201400000Y-178500000D03*
X244400000Y-178500000D03*
X31100000Y-189000000D03*
X74100000Y-189000000D03*
X117100000Y-189000000D03*
X160100000Y-189000000D03*
X203100000Y-187200000D03*
X246100000Y-189000000D03*
X29500000Y-153250000D03*
X72500000Y-153250000D03*
X115500000Y-153250000D03*
X158500000Y-153250000D03*
X201500000Y-153250000D03*
X244500000Y-153250000D03*
X31250000Y-148750000D03*
X74250000Y-148750000D03*
X117250000Y-148750000D03*
X160250000Y-148750000D03*
X203250000Y-148750000D03*
X246250000Y-148750000D03*
X31000000Y-153250000D03*
X74000000Y-153250000D03*
X117000000Y-153250000D03*
X160000000Y-153250000D03*
X203000000Y-153250000D03*
X246000000Y-153250000D03*
X29400000Y-173250000D03*
X72400000Y-173250000D03*
X115400000Y-173250000D03*
X158400000Y-173250000D03*
X201400000Y-173250000D03*
X244400000Y-173250000D03*
X31100000Y-169000000D03*
X74100000Y-169000000D03*
X117100000Y-169000000D03*
X160100000Y-169000000D03*
X203100000Y-169000000D03*
X246100000Y-169000000D03*
X31100000Y-178700000D03*
X74100000Y-178650000D03*
X117100000Y-178500000D03*
X160100000Y-178500000D03*
X203100000Y-178500000D03*
X246100000Y-178500000D03*
X289150000Y-157650000D03*
X287300000Y-178500000D03*
X289100000Y-169000000D03*
X287300000Y-169000000D03*
X287300000Y-164000000D03*
X289000000Y-153250000D03*
X287500000Y-153250000D03*
X287300000Y-189000000D03*
X289100000Y-173750000D03*
X287300000Y-173750000D03*
X289100000Y-178500000D03*
X289100000Y-164000000D03*
X287250000Y-148750000D03*
X287250000Y-192200000D03*
X289250000Y-148750000D03*
X288750000Y-193200000D03*
X289100000Y-189000000D03*
X332250000Y-148750000D03*
X330250000Y-148750000D03*
X332000000Y-153250000D03*
X330500000Y-153250000D03*
X330400000Y-164000000D03*
X330400000Y-169000000D03*
X330400000Y-174000000D03*
X330400000Y-178500000D03*
X330400000Y-184000000D03*
X332150000Y-157650000D03*
X332100000Y-164000000D03*
X332100000Y-169000000D03*
X332100000Y-174000000D03*
X332100000Y-178500000D03*
X332100000Y-184000000D03*
X330400000Y-189000000D03*
X332100000Y-189000000D03*
X330400000Y-192100000D03*
X331750000Y-193200000D03*
X325000000Y-197700000D03*
X326250000Y-198700000D03*
X321000000Y-200050000D03*
X316000000Y-198300000D03*
X311000000Y-198300000D03*
X301000000Y-198300000D03*
X296000000Y-198300000D03*
X291000000Y-198300000D03*
X286000000Y-198300000D03*
X316000000Y-200050000D03*
X311000000Y-200050000D03*
X301000000Y-200050000D03*
X296000000Y-200050000D03*
X291000000Y-200050000D03*
X286000000Y-200050000D03*
X281000000Y-200050000D03*
X276000000Y-200050000D03*
X271000000Y-200050000D03*
X266000000Y-200050000D03*
X261000000Y-200050000D03*
X256000000Y-200050000D03*
X251000000Y-200050000D03*
X246000000Y-200050000D03*
X241000000Y-200050000D03*
X236000000Y-200050000D03*
X231000000Y-200050000D03*
X226000000Y-200050000D03*
X221000000Y-200050000D03*
X216000000Y-200050000D03*
X211000000Y-200050000D03*
X206000000Y-200050000D03*
X203000000Y-201450000D03*
X201750000Y-200350000D03*
X199000000Y-203100000D03*
X181750000Y-207500000D03*
X175100000Y-207500000D03*
X173400000Y-207500000D03*
X169400000Y-207500000D03*
X171100000Y-207500000D03*
X177650000Y-207500000D03*
X171100000Y-241250000D03*
X167000000Y-241250000D03*
X165150000Y-241250000D03*
X169400000Y-241250000D03*
X177650000Y-241250000D03*
X173400000Y-241250000D03*
X183500000Y-241250000D03*
X175350000Y-241250000D03*
X179350000Y-241250000D03*
X181900000Y-241250000D03*
X166750000Y-236500000D03*
X165150000Y-236500000D03*
X166850000Y-231000000D03*
X165150000Y-231000000D03*
X166850000Y-225250000D03*
X165150000Y-225250000D03*
X165150000Y-220250000D03*
X166850000Y-220250000D03*
X171100000Y-220250000D03*
X169400000Y-220250000D03*
X169400000Y-225250000D03*
X171100000Y-225250000D03*
X171050000Y-231050000D03*
X169400000Y-231000000D03*
X169400000Y-236500000D03*
X171100000Y-236500000D03*
X173400000Y-236500000D03*
X175100000Y-236500000D03*
X175100000Y-231000000D03*
X173450000Y-231000000D03*
X175100000Y-225250000D03*
X173400000Y-225250000D03*
X175100000Y-220250000D03*
X173400000Y-220250000D03*
X175100000Y-211500000D03*
X177650000Y-211500000D03*
X177650000Y-220250000D03*
X177650000Y-225250000D03*
X179350000Y-225250000D03*
X179350000Y-231000000D03*
X177700000Y-231000000D03*
X177650000Y-236500000D03*
X179350000Y-236500000D03*
X181650000Y-236500000D03*
X183350000Y-236500000D03*
X181700000Y-231000000D03*
X183350000Y-231000000D03*
X181650000Y-225250000D03*
X183350000Y-225250000D03*
X181650000Y-220250000D03*
X183350000Y-220250000D03*
X181650000Y-211500000D03*
X183350000Y-211500000D03*
X183250000Y-207500000D03*
X197250000Y-207200000D03*
X196300000Y-205900000D03*
X190150000Y-207500000D03*
X191850000Y-207500000D03*
X185900000Y-207500000D03*
X187600000Y-207500000D03*
X185900000Y-211500000D03*
X187600000Y-211500000D03*
X185900000Y-220250000D03*
X187600000Y-220250000D03*
X185900000Y-225250000D03*
X187600000Y-225250000D03*
X185950000Y-231000000D03*
X187600000Y-231000000D03*
X187600000Y-236500000D03*
X185900000Y-236500000D03*
X185900000Y-241250000D03*
X187750000Y-241250000D03*
X191850000Y-241250000D03*
X190150000Y-241250000D03*
X190150000Y-236500000D03*
X191850000Y-236500000D03*
X190200000Y-231000000D03*
X191850000Y-231000000D03*
X191850000Y-225250000D03*
X190150000Y-225250000D03*
X190150000Y-220250000D03*
X191850000Y-220250000D03*
X190150000Y-211500000D03*
X191850000Y-211500000D03*
X194400000Y-211500000D03*
X194450000Y-231000000D03*
X194400000Y-220250000D03*
X194400000Y-241250000D03*
X194500000Y-236500000D03*
X194400000Y-225250000D03*
X196100000Y-241250000D03*
X196100000Y-236500000D03*
X196100000Y-231000000D03*
X196100000Y-225250000D03*
X196000000Y-220250000D03*
X196100000Y-211500000D03*
X163500000Y-238750000D03*
X167750000Y-238750000D03*
X171750000Y-238750000D03*
X176000000Y-238750000D03*
X180000000Y-238750000D03*
X184250000Y-238750000D03*
X188500000Y-238750000D03*
X192750000Y-238750000D03*
X283000000Y-220250000D03*
X280000000Y-221750000D03*
X265750000Y-224000000D03*
X261250000Y-220250000D03*
X250750000Y-220250000D03*
X252250000Y-218500000D03*
X249250000Y-218500000D03*
X238750000Y-220250000D03*
X237250000Y-218500000D03*
X240250000Y-218500000D03*
X106250000Y-219250000D03*
X103250000Y-219250000D03*
X104750000Y-221000000D03*
D51*
X125250000Y-110500000D03*
X168250000Y-110500000D03*
X211250000Y-110500000D03*
X297250000Y-128500000D03*
X340250000Y-128500000D03*
X82250000Y-130000000D03*
X171750000Y-110500000D03*
X214750000Y-110500000D03*
X257750000Y-110500000D03*
X300750000Y-110500000D03*
X211250000Y-90500000D03*
X254250000Y-90500000D03*
X297250000Y-90500000D03*
X340250000Y-90500000D03*
X85750000Y-89000000D03*
X171750000Y-128500000D03*
X214750000Y-128500000D03*
X257750000Y-128500000D03*
X300750000Y-128500000D03*
X343750000Y-128500000D03*
X85750000Y-128500000D03*
D50*
X60250000Y-128500000D03*
D51*
X82250000Y-109000000D03*
X125250000Y-109000000D03*
X168250000Y-109000000D03*
X128750000Y-110500000D03*
X168250000Y-128500000D03*
X254250000Y-128500000D03*
X254250000Y-109000000D03*
X297250000Y-109000000D03*
X340250000Y-109000000D03*
X168250000Y-130000000D03*
D50*
X321750000Y-128500000D03*
D51*
X82250000Y-89000000D03*
X125250000Y-89000000D03*
X168250000Y-89000000D03*
X278750000Y-89000000D03*
X211250000Y-109000000D03*
X171750000Y-90500000D03*
X214750000Y-90500000D03*
X257750000Y-90500000D03*
X300750000Y-90500000D03*
X297250000Y-110500000D03*
X85750000Y-110500000D03*
X343750000Y-109000000D03*
X343750000Y-110500000D03*
X85750000Y-109000000D03*
X128750000Y-109000000D03*
X171750000Y-109000000D03*
D50*
X278750000Y-130000000D03*
X321750000Y-130000000D03*
X60250000Y-130000000D03*
D51*
X343750000Y-130000000D03*
X128750000Y-128500000D03*
X257750000Y-130000000D03*
X300750000Y-130000000D03*
X211250000Y-128500000D03*
X192750000Y-89000000D03*
X300750000Y-109000000D03*
X321750000Y-90500000D03*
X63750000Y-89000000D03*
X106750000Y-89000000D03*
X149750000Y-89000000D03*
X125250000Y-130000000D03*
D50*
X235750000Y-128500000D03*
D51*
X128750000Y-130000000D03*
X171750000Y-130000000D03*
X214750000Y-130000000D03*
X235750000Y-89000000D03*
X321750000Y-89000000D03*
X211250000Y-89000000D03*
X85750000Y-130000000D03*
D50*
X275250000Y-130000000D03*
X318250000Y-130000000D03*
X103250000Y-128500000D03*
X149750000Y-130000000D03*
D51*
X232250000Y-90500000D03*
X82250000Y-110500000D03*
X192750000Y-90500000D03*
X340250000Y-89000000D03*
X257750000Y-89000000D03*
X300750000Y-89000000D03*
X343750000Y-89000000D03*
X340250000Y-130000000D03*
X275250000Y-90500000D03*
D50*
X192750000Y-128500000D03*
D51*
X128750000Y-89000000D03*
X171750000Y-89000000D03*
X214750000Y-89000000D03*
X189250000Y-89000000D03*
D50*
X146250000Y-128500000D03*
X189250000Y-128500000D03*
X232250000Y-128500000D03*
X275250000Y-128500000D03*
D51*
X128750000Y-90500000D03*
X211250000Y-130000000D03*
X278750000Y-90500000D03*
D50*
X63750000Y-128500000D03*
X106750000Y-128500000D03*
X149750000Y-128500000D03*
D51*
X82250000Y-90500000D03*
X125250000Y-90500000D03*
X168250000Y-90500000D03*
X254250000Y-89000000D03*
X297250000Y-89000000D03*
X82250000Y-128500000D03*
X275250000Y-89000000D03*
D50*
X318250000Y-128500000D03*
D51*
X214750000Y-109000000D03*
X257750000Y-109000000D03*
X146250000Y-90500000D03*
X189250000Y-90500000D03*
X318250000Y-89000000D03*
X60250000Y-89000000D03*
D50*
X278750000Y-128500000D03*
X192750000Y-130000000D03*
X103250000Y-130000000D03*
X146250000Y-130000000D03*
X189250000Y-130000000D03*
X232250000Y-130000000D03*
D51*
X318250000Y-90500000D03*
X343750000Y-90500000D03*
X85750000Y-90500000D03*
X60250000Y-90500000D03*
X125250000Y-128500000D03*
D50*
X235750000Y-130000000D03*
D51*
X103250000Y-90500000D03*
X254250000Y-130000000D03*
X254250000Y-110500000D03*
X297250000Y-130000000D03*
X149750000Y-90500000D03*
X235750000Y-90500000D03*
D50*
X106750000Y-130000000D03*
D51*
X340250000Y-110500000D03*
X146250000Y-89000000D03*
D50*
X63750000Y-130000000D03*
D51*
X232250000Y-89000000D03*
X63750000Y-90500000D03*
X103250000Y-89000000D03*
X106750000Y-90500000D03*
D50*
X42500000Y-229750000D03*
X46000000Y-208500000D03*
X31200000Y-214000000D03*
D51*
X44250000Y-217250000D03*
X42250000Y-214000000D03*
X48250000Y-215000000D03*
X47250000Y-212250000D03*
D50*
X31200000Y-207750000D03*
D51*
X44250000Y-220000000D03*
D50*
X46000000Y-230500000D03*
X43500000Y-225750000D03*
X46000000Y-225750000D03*
X48500000Y-225750000D03*
X48500000Y-228750000D03*
X46000000Y-228750000D03*
X26500000Y-227400004D03*
X26500000Y-222200000D03*
X20900000Y-222300000D03*
D51*
X43200000Y-211600000D03*
X120100000Y-219000000D03*
D50*
X49750000Y-229750000D03*
X49750000Y-224750000D03*
X42500000Y-224750000D03*
X21000000Y-226500000D03*
X25500000Y-228500000D03*
X309000000Y-212750000D03*
X298750000Y-212750000D03*
X318750000Y-212750000D03*
X332250000Y-219250000D03*
X324500000Y-219250000D03*
X332250000Y-212750000D03*
X324500000Y-212750000D03*
X332250000Y-205750000D03*
X324500000Y-205750000D03*
D51*
X17250000Y-89000000D03*
X17250000Y-90500000D03*
X20750000Y-90500000D03*
X20750000Y-89000000D03*
X39250000Y-89000000D03*
X39250000Y-90500000D03*
X42750000Y-89000000D03*
X42750000Y-90500000D03*
X42750000Y-110500000D03*
X42750000Y-109000000D03*
X39250000Y-109000000D03*
X39250000Y-110500000D03*
X42750000Y-130000000D03*
X42750000Y-128500000D03*
X39250000Y-128500000D03*
X39250000Y-130000000D03*
D50*
X20750000Y-128500000D03*
X20750000Y-130000000D03*
X17250000Y-130000000D03*
X17250000Y-128500000D03*
D51*
X104750000Y-225000000D03*
X103000000Y-227000000D03*
X103000000Y-225000000D03*
X103000000Y-228750000D03*
X236250000Y-227750000D03*
X238750000Y-223750000D03*
X236250000Y-223750000D03*
X247750000Y-223750000D03*
X250750000Y-223750000D03*
X247750000Y-227750000D03*
D50*
X339750000Y-206500000D03*
X339750000Y-211250000D03*
X337750000Y-211250000D03*
X337750000Y-208750000D03*
X339750000Y-208750000D03*
X341750000Y-208750000D03*
X341750000Y-211250000D03*
X341750000Y-206500000D03*
X337750000Y-206500000D03*
X38500000Y-180000000D03*
X37250000Y-181500000D03*
X36000000Y-181500000D03*
X39750000Y-181500000D03*
X36000000Y-180000000D03*
X39750000Y-180000000D03*
X37250000Y-180000000D03*
X38500000Y-181500000D03*
X81500000Y-181500000D03*
X80250000Y-181500000D03*
X79000000Y-180000000D03*
X80250000Y-180000000D03*
X82750000Y-180000000D03*
X81500000Y-180000000D03*
X79000000Y-181500000D03*
X82750000Y-181500000D03*
X124500000Y-180000000D03*
X125750000Y-180000000D03*
X125750000Y-181500000D03*
X122000000Y-181500000D03*
X123250000Y-180000000D03*
X122000000Y-180000000D03*
X123250000Y-181500000D03*
X124500000Y-181500000D03*
X165000000Y-181500000D03*
X166250000Y-180000000D03*
X166250000Y-181500000D03*
X168750000Y-180000000D03*
X167500000Y-181500000D03*
X167500000Y-180000000D03*
X168750000Y-181500000D03*
X165000000Y-180000000D03*
X209250000Y-180000000D03*
X211750000Y-180000000D03*
X208000000Y-180000000D03*
X208000000Y-181500000D03*
X209250000Y-181500000D03*
X210500000Y-181500000D03*
X211750000Y-181500000D03*
X210500000Y-180000000D03*
X253500000Y-181500000D03*
X251000000Y-180000000D03*
X252250000Y-181500000D03*
X251000000Y-181500000D03*
X254750000Y-180000000D03*
X252250000Y-180000000D03*
X253500000Y-180000000D03*
X254750000Y-181500000D03*
X296250000Y-181500000D03*
X296250000Y-180000000D03*
X293750000Y-180000000D03*
X297500000Y-181500000D03*
X297500000Y-180000000D03*
X293750000Y-181500000D03*
X295000000Y-180000000D03*
X295000000Y-181500000D03*
X337000000Y-180000000D03*
X338250000Y-180000000D03*
X339500000Y-180000000D03*
X340750000Y-180000000D03*
X340750000Y-181500000D03*
X339500000Y-181500000D03*
X338250000Y-181500000D03*
X337000000Y-181500000D03*
D51*
X189255000Y-181458480D03*
X180730000Y-181008480D03*
D50*
X122500000Y-226500000D03*
D32*
X26500000Y-236250000D03*
X26500000Y-233250000D03*
D50*
X74250000Y-218250002D03*
X302500000Y-229250004D03*
X71500000Y-217000000D03*
X311750000Y-217750000D03*
X73000000Y-217500000D03*
X292250000Y-217750000D03*
X70250000Y-216750000D03*
X189000000Y-208500000D03*
X193250000Y-208500000D03*
X69250000Y-205000000D03*
X68500000Y-205750000D03*
X281750010Y-214500000D03*
X67750000Y-206500000D03*
X179500000Y-205750000D03*
X127772987Y-194000000D03*
X184750000Y-208500000D03*
X181500000Y-209000000D03*
X176500000Y-208500000D03*
X60750000Y-210250000D03*
X172250000Y-208500000D03*
X60296966Y-209263315D03*
X168250000Y-208500000D03*
X60000000Y-208500000D03*
X163750000Y-208500000D03*
X177700000Y-175699996D03*
X34500000Y-181250000D03*
X192750000Y-176250002D03*
X37750000Y-105500000D03*
X37750000Y-104500000D03*
X37500000Y-124000000D03*
X37500000Y-124999992D03*
X15250000Y-85500000D03*
X15250000Y-84500000D03*
X13750000Y-95000000D03*
X15250000Y-125000000D03*
X15250000Y-123750000D03*
X37249996Y-145500000D03*
X14000000Y-147000000D03*
X36750000Y-150500000D03*
X38000000Y-150500000D03*
X38000000Y-151750000D03*
X36750000Y-151750000D03*
X36750000Y-153000000D03*
X38000000Y-153000000D03*
X32250000Y-159750000D03*
X32250000Y-158500000D03*
X33500000Y-158500000D03*
X33500000Y-159750000D03*
X34750000Y-159750000D03*
X34750000Y-158500000D03*
X36750000Y-93500000D03*
X37500000Y-85000000D03*
X338750000Y-104500000D03*
X338750000Y-105500000D03*
X338500000Y-124000000D03*
X338500000Y-125000010D03*
X339000000Y-153000000D03*
X339000000Y-150500000D03*
X337750000Y-153000000D03*
X333250000Y-159750000D03*
X337750000Y-93500000D03*
X337750000Y-151750000D03*
X338249996Y-145500000D03*
X316250000Y-85500000D03*
X315000000Y-147000000D03*
X339000000Y-151750000D03*
X337750000Y-150500000D03*
X338500000Y-85000000D03*
X316250000Y-84500000D03*
X333250000Y-158500000D03*
X334500000Y-158500000D03*
X334500000Y-159750000D03*
X316250000Y-123750000D03*
X314750000Y-95000000D03*
X316250000Y-125000000D03*
X335750000Y-159750000D03*
X335750000Y-158500000D03*
X166750000Y-104500000D03*
X166750000Y-105500000D03*
X166500000Y-124000000D03*
X166500000Y-124999994D03*
X144250000Y-84500000D03*
X162500000Y-158500000D03*
X162500000Y-159750000D03*
X163750000Y-159750000D03*
X167000000Y-153000000D03*
X161250000Y-159750000D03*
X161250000Y-158500000D03*
X165750000Y-150500000D03*
X165750000Y-153000000D03*
X167000000Y-151750000D03*
X165750000Y-151750000D03*
X167000000Y-150500000D03*
X166500000Y-85000000D03*
X142750000Y-95000000D03*
X144250000Y-125000000D03*
X144250000Y-123750000D03*
X144250000Y-85500000D03*
X166249996Y-145500000D03*
X143000000Y-147000000D03*
X165750000Y-93500000D03*
X163750000Y-158500000D03*
X252500000Y-104500000D03*
X252499994Y-105500000D03*
X252500000Y-124000000D03*
X252500000Y-125000008D03*
X253000000Y-153000000D03*
X253000000Y-150500000D03*
X230250000Y-85500000D03*
X229000000Y-147000000D03*
X251750000Y-153000000D03*
X253000000Y-151750000D03*
X251750000Y-151750000D03*
X251750000Y-150500000D03*
X252249996Y-145500000D03*
X247250000Y-159750000D03*
X251750000Y-93500000D03*
X230250000Y-84500000D03*
X228750000Y-95000000D03*
X230250000Y-125000000D03*
X252500000Y-85000000D03*
X248500000Y-159750000D03*
X249750000Y-159750000D03*
X249750000Y-158500000D03*
X230250000Y-123750000D03*
X248500000Y-158500000D03*
X247250000Y-158500000D03*
X295750000Y-104500000D03*
X295750000Y-105500001D03*
X295500000Y-124000000D03*
X295500014Y-125000014D03*
X290250000Y-158500000D03*
X291500000Y-158500000D03*
X291500000Y-159750000D03*
X292750000Y-159750000D03*
X294750000Y-153000000D03*
X296000000Y-153000000D03*
X290250000Y-159750000D03*
X296000000Y-150500000D03*
X294750000Y-93500000D03*
X273250000Y-85500000D03*
X272000000Y-147000000D03*
X294750000Y-151750000D03*
X296000000Y-151750000D03*
X294750000Y-150500000D03*
X295249996Y-145500000D03*
X273250000Y-84500000D03*
X295500000Y-85000000D03*
X273250000Y-123750000D03*
X271750000Y-95000000D03*
X273250000Y-125000000D03*
X292750000Y-158500000D03*
X80750000Y-104500000D03*
X80750000Y-105500000D03*
X80500000Y-124000000D03*
X80500006Y-125000000D03*
X81000000Y-151750000D03*
X58250000Y-84500000D03*
X56750000Y-95000000D03*
X58250000Y-125000000D03*
X80249996Y-145500000D03*
X79750000Y-153000000D03*
X75250000Y-159750000D03*
X79750000Y-150500000D03*
X81000000Y-150500000D03*
X80500000Y-85000000D03*
X79750000Y-151750000D03*
X81000000Y-153000000D03*
X75250000Y-158500000D03*
X77750000Y-159750000D03*
X58250000Y-123750000D03*
X57000000Y-147000000D03*
X79750000Y-93500000D03*
X58250000Y-85500000D03*
X76500000Y-159750000D03*
X77750000Y-158500000D03*
X76500000Y-158500000D03*
X123750000Y-104500000D03*
X123750000Y-105500000D03*
X123500000Y-124000000D03*
X123500000Y-125000000D03*
X122750000Y-93500000D03*
X123500000Y-85000000D03*
X101250000Y-84500000D03*
X99750000Y-95000000D03*
X101250000Y-125000000D03*
X122750000Y-153000000D03*
X118250000Y-159750000D03*
X122750000Y-150500000D03*
X124000000Y-151750000D03*
X124000000Y-150500000D03*
X122750000Y-151750000D03*
X118250000Y-158500000D03*
X120750000Y-159750000D03*
X124000000Y-153000000D03*
X101250000Y-85500000D03*
X120750000Y-158500000D03*
X119500000Y-158500000D03*
X119500000Y-159750000D03*
X123249996Y-145500000D03*
X101250000Y-123750000D03*
X100000000Y-147000000D03*
X209750000Y-104500000D03*
X209750000Y-105500000D03*
X209500000Y-124000000D03*
X209499986Y-125000000D03*
X210000000Y-153000000D03*
X204250000Y-159750000D03*
X204250000Y-158500000D03*
X205500000Y-158500000D03*
X209500000Y-85000000D03*
X187250000Y-85500000D03*
X208750000Y-150500000D03*
X186000000Y-147000000D03*
X208750000Y-153000000D03*
X210000000Y-151750000D03*
X208750000Y-151750000D03*
X210000000Y-150500000D03*
X206750000Y-159750000D03*
X209249996Y-145500000D03*
X187250000Y-84500000D03*
X208750000Y-93500000D03*
X187250000Y-123750000D03*
X205500000Y-159750000D03*
X206750000Y-158500000D03*
X187250000Y-125000000D03*
X185750000Y-95000000D03*
X27500000Y-183500000D03*
X24500000Y-185250000D03*
X26000000Y-185250000D03*
X27500000Y-185250000D03*
X26000000Y-183500000D03*
X24500000Y-183500000D03*
X69000000Y-185250000D03*
X69000000Y-183500000D03*
X70500000Y-183500000D03*
X67500000Y-185250000D03*
X70500000Y-185250000D03*
X67500000Y-183500000D03*
X110500000Y-183500000D03*
X112000000Y-183500000D03*
X112000000Y-185250000D03*
X113500000Y-185250000D03*
X110500000Y-185250000D03*
X113500000Y-183500000D03*
X156500000Y-183500000D03*
X153500000Y-183500000D03*
X155000000Y-185250000D03*
X153500000Y-185250000D03*
X155000000Y-183500000D03*
X156500000Y-185250000D03*
X199500000Y-183500000D03*
X196500000Y-183500000D03*
X198000000Y-185250000D03*
X199500000Y-185250000D03*
X198000000Y-183500000D03*
X196500000Y-185250000D03*
X241000000Y-185250000D03*
X242500000Y-183500000D03*
X239500000Y-185250000D03*
X239500000Y-183500000D03*
X242500000Y-185250000D03*
X241000000Y-183500000D03*
X284000000Y-185250000D03*
X282500000Y-185250000D03*
X282500000Y-183500000D03*
X284000000Y-183500000D03*
X285500000Y-183500000D03*
X285500000Y-185250000D03*
X328500000Y-183500000D03*
X328500000Y-185250000D03*
X327000000Y-185250000D03*
X327000000Y-183500000D03*
X325500000Y-183500000D03*
X325500000Y-185250000D03*
X308000000Y-206500000D03*
X306000000Y-206500000D03*
X306000000Y-208500000D03*
X308000000Y-208500000D03*
X308000000Y-210500000D03*
X306000000Y-210500000D03*
X177730000Y-183908480D03*
X163350000Y-232600000D03*
X167600000Y-232600000D03*
X171800000Y-232600000D03*
X175900000Y-232600000D03*
X180100000Y-232600000D03*
X184100000Y-232600000D03*
X188300000Y-232600000D03*
X192600000Y-232600000D03*
D51*
X42400000Y-235000000D03*
X45000000Y-232400000D03*
D50*
X317250018Y-211250000D03*
X65400000Y-216100000D03*
X66300000Y-217900008D03*
X64500000Y-214700002D03*
X63700000Y-213300000D03*
X61700000Y-211399996D03*
X342750000Y-81750000D03*
X320750000Y-81750000D03*
D51*
X105750000Y-81750000D03*
X62750000Y-81750000D03*
X277750000Y-81750000D03*
X234750000Y-81750000D03*
X299750000Y-81750000D03*
X256750000Y-81750000D03*
X41750000Y-81750000D03*
X19750000Y-81750000D03*
X148750000Y-81750000D03*
X84750000Y-81750000D03*
X170750000Y-81750000D03*
X213750000Y-81750000D03*
X191750000Y-81750000D03*
X127750000Y-81750000D03*
D50*
X303000000Y-110500000D03*
X304250000Y-89000000D03*
X302750000Y-133500000D03*
X302750000Y-130500000D03*
X303000000Y-94250000D03*
X303000000Y-114000000D03*
X274750000Y-103750000D03*
X283750000Y-156250000D03*
X283750000Y-155000000D03*
X304250000Y-128250000D03*
X282500000Y-155000000D03*
X282750000Y-142000002D03*
X303000000Y-90750000D03*
X304250000Y-108750000D03*
X285000000Y-155000000D03*
X280750000Y-133750000D03*
X282500000Y-156250000D03*
X285000000Y-156250000D03*
X282250000Y-128250000D03*
X282250000Y-89000000D03*
X297250000Y-101750000D03*
X280750000Y-130250000D03*
X274750000Y-102750000D03*
X280750000Y-94250000D03*
X280750000Y-90750000D03*
X340250000Y-101750000D03*
X345750000Y-130500000D03*
X346000000Y-110500000D03*
X347250000Y-89000000D03*
X323750000Y-90750000D03*
X317750000Y-102750000D03*
X326750000Y-156250000D03*
X328000000Y-156250000D03*
X328000000Y-155000000D03*
X346000000Y-94250000D03*
X346000000Y-114000000D03*
X345750000Y-133500000D03*
X326750000Y-155000000D03*
X347250000Y-128250000D03*
X325500000Y-155000000D03*
X347250000Y-108750000D03*
X317750000Y-103750000D03*
X346000000Y-90750000D03*
X323750000Y-133750000D03*
X325750000Y-142000002D03*
X325250000Y-128250000D03*
X325250000Y-89000000D03*
X323750000Y-130250000D03*
X325500000Y-156250000D03*
X323750000Y-94250000D03*
X260000000Y-110500000D03*
X259750000Y-133500000D03*
X260000000Y-94250000D03*
X259750000Y-130500000D03*
X240750000Y-155000000D03*
X231750000Y-103750000D03*
X261250000Y-128250000D03*
X261250000Y-108750000D03*
X239500000Y-155000000D03*
X237750000Y-130250000D03*
X237750000Y-133750000D03*
X239750000Y-142000002D03*
X239250000Y-89000000D03*
X242000000Y-155000000D03*
X239250000Y-128250000D03*
X254250000Y-101750000D03*
X242000000Y-156250000D03*
X261250000Y-89000000D03*
X260000000Y-114000000D03*
X260000000Y-90750000D03*
X239500000Y-156250000D03*
X240750000Y-156250000D03*
X237750000Y-94250000D03*
X237750000Y-90750000D03*
X231750000Y-102750000D03*
X217000000Y-90750000D03*
X217000000Y-94250000D03*
X217000000Y-110500000D03*
X216750000Y-133500000D03*
X216750000Y-130500000D03*
X211250000Y-101750000D03*
X196500000Y-156250000D03*
X196750000Y-142000002D03*
X197750000Y-155000000D03*
X188750000Y-103750000D03*
X218250000Y-108750000D03*
X217000000Y-114000000D03*
X218250000Y-128250000D03*
X196500000Y-155000000D03*
X199000000Y-155000000D03*
X194750000Y-94250000D03*
X194750000Y-130250000D03*
X218250000Y-89000000D03*
X199000000Y-156250000D03*
X196250000Y-89000000D03*
X197750000Y-156250000D03*
X196250000Y-128250000D03*
X194750000Y-90750000D03*
X188750000Y-102750000D03*
X194750000Y-133750000D03*
X153750000Y-142000002D03*
X174000000Y-114000000D03*
X174000000Y-110500000D03*
X173500000Y-133500000D03*
X173750000Y-130500000D03*
X145750000Y-103750000D03*
X174000000Y-94250000D03*
X153500000Y-156250000D03*
X175250000Y-89000000D03*
X175250000Y-108750000D03*
X168250000Y-101750000D03*
X174000000Y-90750000D03*
X145750000Y-102750000D03*
X175250000Y-128250000D03*
X156000000Y-155000000D03*
X151750000Y-94250000D03*
X151750000Y-130250000D03*
X153250000Y-89000000D03*
X156000000Y-156250000D03*
X153500000Y-155000000D03*
X153250000Y-128250000D03*
X151750000Y-133750000D03*
X154750000Y-156250000D03*
X151750000Y-90750000D03*
X154750000Y-155000000D03*
X125250000Y-101750000D03*
X131000000Y-90750000D03*
X132250000Y-128250000D03*
X132250000Y-108750000D03*
X131000000Y-110500000D03*
X130500000Y-133500000D03*
X131000000Y-114000000D03*
X110500000Y-156250000D03*
X111750000Y-155000000D03*
X110500000Y-155000000D03*
X110250000Y-128250000D03*
X108750000Y-130250000D03*
X110750000Y-142000002D03*
X131000000Y-94250000D03*
X130750000Y-130500000D03*
X102750000Y-102750000D03*
X108750000Y-94250000D03*
X132250000Y-89000000D03*
X110250000Y-89000000D03*
X113000000Y-156250000D03*
X102750000Y-103750000D03*
X108750000Y-133750000D03*
X108750000Y-90750000D03*
X113000000Y-155000000D03*
X111750000Y-156250000D03*
X67500000Y-156250000D03*
X68750000Y-156250000D03*
X87750000Y-133500000D03*
X88000000Y-90750000D03*
X67750000Y-142000002D03*
X89250000Y-128250000D03*
X88000000Y-110500000D03*
X70000000Y-156250000D03*
X88000000Y-94250000D03*
X89250000Y-108750000D03*
X87750000Y-130500000D03*
X59750000Y-102750000D03*
X65750000Y-94250000D03*
X82250000Y-101750000D03*
X67250000Y-89000000D03*
X65750000Y-130250000D03*
X89250000Y-89000000D03*
X88000000Y-114000000D03*
X67500000Y-155000000D03*
X67250000Y-128250000D03*
X65750000Y-133750000D03*
X70000000Y-155000000D03*
X68750000Y-155000000D03*
X59750000Y-103750000D03*
X65750000Y-90750000D03*
X10100000Y-177500000D03*
X13000000Y-181400000D03*
X61900002Y-177900000D03*
X75000000Y-177900042D03*
X11444003Y-181390267D03*
X161000000Y-176750021D03*
X149500000Y-176750021D03*
X10600000Y-179600000D03*
X106000000Y-177250032D03*
X118000000Y-177250032D03*
X12200000Y-179600000D03*
X235000000Y-173949938D03*
X247000000Y-173949938D03*
X9600000Y-174000000D03*
X290100000Y-174400000D03*
X278000000Y-174400000D03*
X9000000Y-175600000D03*
X204000000Y-176100000D03*
X11459627Y-177659627D03*
X10400000Y-176000000D03*
X333000000Y-175000000D03*
X321000000Y-175000000D03*
X24500000Y-156250000D03*
X25750000Y-156250000D03*
X27000000Y-156250000D03*
X27000000Y-155000000D03*
X25750000Y-155000000D03*
X24500000Y-155000000D03*
X24250000Y-128250000D03*
X22750000Y-130250000D03*
X22750000Y-133750000D03*
X24750000Y-142000002D03*
X24250000Y-89000000D03*
X22750000Y-94250000D03*
X22750000Y-90750000D03*
X16750000Y-103750000D03*
X16750000Y-102750000D03*
X39250000Y-101750000D03*
X46250000Y-128250000D03*
X46250000Y-108750000D03*
X46250000Y-89000000D03*
X45000000Y-90750000D03*
X45000000Y-94250000D03*
X45000000Y-114000000D03*
X45000000Y-110500000D03*
X44750000Y-133500000D03*
X44750000Y-130500000D03*
D52*
G36*
X4804183Y-73188532D02*
X4853509Y-73221491D01*
X4886468Y-73270817D01*
X4900000Y-73338847D01*
X4900000Y-249711153D01*
X4886468Y-249779183D01*
X4853509Y-249828509D01*
X4804183Y-249861468D01*
X4736153Y-249875000D01*
X338847Y-249875000D01*
X270817Y-249861468D01*
X221491Y-249828509D01*
X188532Y-249779183D01*
X175000Y-249711153D01*
X175000Y-73338847D01*
X188532Y-73270817D01*
X221491Y-73221491D01*
X270817Y-73188532D01*
X338847Y-73175000D01*
X4736153Y-73175000D01*
X4804183Y-73188532D01*
X4804183Y-73188532D01*
G37*
X4804183Y-73188532D02*
X4853509Y-73221491D01*
X4886468Y-73270817D01*
X4900000Y-73338847D01*
X4900000Y-249711153D01*
X4886468Y-249779183D01*
X4853509Y-249828509D01*
X4804183Y-249861468D01*
X4736153Y-249875000D01*
X338847Y-249875000D01*
X270817Y-249861468D01*
X221491Y-249828509D01*
X188532Y-249779183D01*
X175000Y-249711153D01*
X175000Y-73338847D01*
X188532Y-73270817D01*
X221491Y-73221491D01*
X270817Y-73188532D01*
X338847Y-73175000D01*
X4736153Y-73175000D01*
X4804183Y-73188532D01*
G36*
X359723789Y-73263532D02*
X359773115Y-73296491D01*
X359806074Y-73345817D01*
X359819606Y-73413847D01*
X359819606Y-249786153D01*
X359806074Y-249854183D01*
X359773115Y-249903509D01*
X359723789Y-249936468D01*
X359655759Y-249950000D01*
X355258453Y-249950000D01*
X355190423Y-249936468D01*
X355141097Y-249903509D01*
X355108138Y-249854183D01*
X355094606Y-249786153D01*
X355094606Y-73413847D01*
X355108138Y-73345817D01*
X355141097Y-73296491D01*
X355190423Y-73263532D01*
X355258453Y-73250000D01*
X359655759Y-73250000D01*
X359723789Y-73263532D01*
X359723789Y-73263532D01*
G37*
X359723789Y-73263532D02*
X359773115Y-73296491D01*
X359806074Y-73345817D01*
X359819606Y-73413847D01*
X359819606Y-249786153D01*
X359806074Y-249854183D01*
X359773115Y-249903509D01*
X359723789Y-249936468D01*
X359655759Y-249950000D01*
X355258453Y-249950000D01*
X355190423Y-249936468D01*
X355141097Y-249903509D01*
X355108138Y-249854183D01*
X355094606Y-249786153D01*
X355094606Y-73413847D01*
X355108138Y-73345817D01*
X355141097Y-73296491D01*
X355190423Y-73263532D01*
X355258453Y-73250000D01*
X359655759Y-73250000D01*
X359723789Y-73263532D01*
M02*
